<ttFont>
<head>
    <!-- Most of this table will be recalculated by the compiler -->
    <tableVersion value="1.0"/>
    <fontRevision value="1.0"/>
    <checkSumAdjustment value="0x6c65dd6e"/>
    <magicNumber value="0x5f0f3cf5"/>
    <flags value="00000000 00011011"/>
    <unitsPerEm value="1000"/>
    <created value="Sat Dec  6 13:43:37 2025"/>
    <modified value="Sat Dec  6 13:50:22 2025"/>
    <xMin value="-32"/>
    <yMin value="-250"/>
    <xMax value="1048"/>
    <yMax value="750"/>
    <macStyle value="00000000 00000010"/>
    <lowestRecPPEM value="6"/>
    <fontDirectionHint value="2"/>
    <indexToLocFormat value="0"/>
    <glyphDataFormat value="0"/>
  </head>
    <TTGlyph name="A" xMin="35" yMin="0" xMax="721" yMax="716">
      <contour>
        <pt x="527" y="699" on="1"/>
        <pt x="532" y="707" on="0"/>
        <pt x="541" y="716" on="0"/>
        <pt x="553" y="716" on="1"/>
        <pt x="566" y="716" on="0"/>
        <pt x="570" y="707" on="0"/>
        <pt x="572" y="692" on="1"/>
        <pt x="633" y="67" on="1"/>
        <pt x="634" y="56" on="0"/>
        <pt x="637" y="42" on="0"/>
        <pt x="649" y="34" on="0"/>
        <pt x="675" y="31" on="0"/>
        <pt x="698" y="31" on="1"/>
        <pt x="708" y="31" on="0"/>
        <pt x="721" y="28" on="0"/>
        <pt x="721" y="20" on="1"/>
        <pt x="721" y="5" on="0"/>
        <pt x="708" y="0" on="0"/>
        <pt x="703" y="0" on="1"/>
        <pt x="694" y="0" on="0"/>
        <pt x="663" y="1" on="0"/>
        <pt x="630" y="2" on="0"/>
        <pt x="599" y="3" on="0"/>
        <pt x="590" y="3" on="1"/>
        <pt x="559" y="3" on="0"/>
        <pt x="496" y="0" on="0"/>
        <pt x="465" y="0" on="1"/>
        <pt x="463" y="0" on="0"/>
        <pt x="451" y="3" on="0"/>
        <pt x="451" y="11" on="1"/>
        <pt x="451" y="26" on="0"/>
        <pt x="464" y="31" on="0"/>
        <pt x="475" y="31" on="1"/>
        <pt x="483" y="31" on="0"/>
        <pt x="507" y="33" on="0"/>
        <pt x="530" y="40" on="0"/>
        <pt x="547" y="53" on="0"/>
        <pt x="547" y="64" on="1"/>
        <pt x="547" y="68" on="0"/>
        <pt x="543" y="115" on="0"/>
        <pt x="537" y="172" on="0"/>
        <pt x="532" y="223" on="0"/>
        <pt x="531" y="231" on="1"/>
        <pt x="280" y="231" on="1"/>
        <pt x="204" y="103" on="1"/>
        <pt x="198" y="92" on="0"/>
        <pt x="190" y="75" on="0"/>
        <pt x="190" y="66" on="1"/>
        <pt x="190" y="47" on="0"/>
        <pt x="220" y="33" on="0"/>
        <pt x="237" y="31" on="1"/>
        <pt x="242" y="31" on="0"/>
        <pt x="253" y="27" on="0"/>
        <pt x="253" y="19" on="1"/>
        <pt x="253" y="5" on="0"/>
        <pt x="239" y="0" on="0"/>
        <pt x="234" y="0" on="1"/>
        <pt x="210" y="0" on="0"/>
        <pt x="159" y="3" on="0"/>
        <pt x="134" y="3" on="1"/>
        <pt x="113" y="3" on="0"/>
        <pt x="68" y="0" on="0"/>
        <pt x="48" y="0" on="1"/>
        <pt x="35" y="0" on="0"/>
        <pt x="35" y="11" on="1"/>
        <pt x="35" y="25" on="0"/>
        <pt x="47" y="30" on="0"/>
        <pt x="56" y="31" on="1"/>
        <pt x="89" y="33" on="0"/>
        <pt x="149" y="65" on="0"/>
        <pt x="179" y="115" on="1"/>
      </contour>
      <contour>
        <pt x="528" y="262" on="1"/>
        <pt x="496" y="592" on="1"/>
        <pt x="299" y="262" on="1"/>
      </contour>
    </TTGlyph>
    <TTGlyph name="B" xMin="42" yMin="0" xMax="756" yMax="683">
      <contour>
        <pt x="294" y="615" on="1"/>
        <pt x="296" y="624" on="0"/>
        <pt x="298" y="631" on="0"/>
        <pt x="298" y="634" on="1"/>
        <pt x="298" y="644" on="0"/>
        <pt x="285" y="648" on="0"/>
        <pt x="271" y="650" on="1"/>
        <pt x="258" y="652" on="0"/>
        <pt x="235" y="652" on="0"/>
        <pt x="233" y="652" on="1"/>
        <pt x="219" y="652" on="0"/>
        <pt x="205" y="655" on="0"/>
        <pt x="205" y="663" on="1"/>
        <pt x="205" y="678" on="0"/>
        <pt x="220" y="683" on="0"/>
        <pt x="234" y="683" on="1"/>
        <pt x="570" y="683" on="1"/>
        <pt x="615" y="683" on="0"/>
        <pt x="684" y="661" on="0"/>
        <pt x="732" y="623" on="0"/>
        <pt x="756" y="573" on="0"/>
        <pt x="756" y="545" on="1"/>
        <pt x="756" y="509" on="0"/>
        <pt x="720" y="447" on="0"/>
        <pt x="661" y="398" on="0"/>
        <pt x="586" y="364" on="0"/>
        <pt x="547" y="357" on="1"/>
        <pt x="620" y="349" on="0"/>
        <pt x="702" y="270" on="0"/>
        <pt x="702" y="216" on="1"/>
        <pt x="702" y="179" on="0"/>
        <pt x="660" y="103" on="0"/>
        <pt x="586" y="40" on="0"/>
        <pt x="485" y="0" on="0"/>
        <pt x="426" y="0" on="1"/>
        <pt x="69" y="0" on="1"/>
        <pt x="55" y="0" on="0"/>
        <pt x="42" y="3" on="0"/>
        <pt x="42" y="11" on="1"/>
        <pt x="42" y="26" on="0"/>
        <pt x="56" y="31" on="0"/>
        <pt x="69" y="31" on="1"/>
        <pt x="99" y="31" on="0"/>
        <pt x="132" y="35" on="0"/>
        <pt x="149" y="45" on="0"/>
        <pt x="156" y="63" on="0"/>
        <pt x="160" y="78" on="1"/>
      </contour>
      <contour>
        <pt x="457" y="366" on="1"/>
        <pt x="503" y="366" on="0"/>
        <pt x="579" y="398" on="0"/>
        <pt x="634" y="451" on="0"/>
        <pt x="665" y="516" on="0"/>
        <pt x="665" y="549" on="1"/>
        <pt x="665" y="566" on="0"/>
        <pt x="656" y="602" on="0"/>
        <pt x="631" y="632" on="0"/>
        <pt x="589" y="652" on="0"/>
        <pt x="556" y="652" on="1"/>
        <pt x="427" y="652" on="1"/>
        <pt x="411" y="652" on="0"/>
        <pt x="393" y="650" on="0"/>
        <pt x="382" y="642" on="0"/>
        <pt x="376" y="627" on="0"/>
        <pt x="373" y="614" on="1"/>
        <pt x="311" y="366" on="1"/>
      </contour>
      <contour>
        <pt x="402" y="31" on="1"/>
        <pt x="446" y="31" on="0"/>
        <pt x="522" y="64" on="0"/>
        <pt x="578" y="119" on="0"/>
        <pt x="609" y="190" on="0"/>
        <pt x="609" y="227" on="1"/>
        <pt x="609" y="243" on="0"/>
        <pt x="600" y="284" on="0"/>
        <pt x="575" y="320" on="0"/>
        <pt x="530" y="344" on="0"/>
        <pt x="494" y="344" on="1"/>
        <pt x="305" y="344" on="1"/>
        <pt x="236" y="65" on="1"/>
        <pt x="232" y="51" on="0"/>
        <pt x="231" y="44" on="0"/>
        <pt x="231" y="42" on="1"/>
        <pt x="231" y="36" on="0"/>
        <pt x="236" y="33" on="0"/>
        <pt x="244" y="32" on="1"/>
        <pt x="249" y="31" on="0"/>
        <pt x="255" y="31" on="0"/>
        <pt x="266" y="31" on="1"/>
      </contour>
    </TTGlyph>
    <TTGlyph name="C" xMin="50" yMin="-22" xMax="760" yMax="705">
      <contour>
        <pt x="697" y="440" on="1"/>
        <pt x="693" y="426" on="0"/>
        <pt x="689" y="420" on="0"/>
        <pt x="679" y="420" on="1"/>
        <pt x="676" y="420" on="0"/>
        <pt x="664" y="422" on="0"/>
        <pt x="664" y="430" on="1"/>
        <pt x="664" y="434" on="0"/>
        <pt x="665" y="439" on="0"/>
        <pt x="666" y="449" on="0"/>
        <pt x="667" y="466" on="0"/>
        <pt x="667" y="481" on="1"/>
        <pt x="667" y="568" on="0"/>
        <pt x="583" y="674" on="0"/>
        <pt x="506" y="674" on="1"/>
        <pt x="473" y="674" on="0"/>
        <pt x="405" y="656" on="0"/>
        <pt x="342" y="624" on="0"/>
        <pt x="285" y="580" on="0"/>
        <pt x="262" y="553" on="1"/>
        <pt x="225" y="509" on="0"/>
        <pt x="177" y="409" on="0"/>
        <pt x="151" y="316" on="0"/>
        <pt x="141" y="238" on="0"/>
        <pt x="141" y="217" on="1"/>
        <pt x="141" y="159" on="0"/>
        <pt x="177" y="79" on="0"/>
        <pt x="234" y="30" on="0"/>
        <pt x="303" y="9" on="0"/>
        <pt x="337" y="9" on="1"/>
        <pt x="376" y="9" on="0"/>
        <pt x="469" y="40" on="0"/>
        <pt x="521" y="82" on="1"/>
        <pt x="547" y="104" on="0"/>
        <pt x="582" y="150" on="0"/>
        <pt x="606" y="193" on="0"/>
        <pt x="619" y="229" on="0"/>
        <pt x="622" y="240" on="1"/>
        <pt x="625" y="250" on="0"/>
        <pt x="635" y="250" on="1"/>
        <pt x="637" y="250" on="0"/>
        <pt x="647" y="248" on="0"/>
        <pt x="647" y="240" on="1"/>
        <pt x="647" y="239" on="0"/>
        <pt x="639" y="207" on="0"/>
        <pt x="615" y="157" on="0"/>
        <pt x="572" y="95" on="0"/>
        <pt x="537" y="64" on="1"/>
        <pt x="497" y="29" on="0"/>
        <pt x="387" y="-22" on="0"/>
        <pt x="321" y="-22" on="1"/>
        <pt x="264" y="-22" on="0"/>
        <pt x="165" y="17" on="0"/>
        <pt x="92" y="89" on="0"/>
        <pt x="50" y="190" on="0"/>
        <pt x="50" y="252" on="1"/>
        <pt x="50" y="310" on="0"/>
        <pt x="85" y="422" on="0"/>
        <pt x="148" y="523" on="0"/>
        <pt x="233" y="608" on="0"/>
        <pt x="333" y="670" on="0"/>
        <pt x="442" y="705" on="0"/>
        <pt x="498" y="705" on="1"/>
        <pt x="540" y="705" on="0"/>
        <pt x="599" y="681" on="0"/>
        <pt x="639" y="650" on="0"/>
        <pt x="661" y="621" on="0"/>
        <pt x="664" y="616" on="1"/>
        <pt x="734" y="693" on="1"/>
        <pt x="742" y="701" on="0"/>
        <pt x="747" y="705" on="0"/>
        <pt x="749" y="705" on="1"/>
        <pt x="756" y="705" on="0"/>
        <pt x="760" y="697" on="0"/>
        <pt x="760" y="695" on="1"/>
      </contour>
    </TTGlyph>
    <TTGlyph name="D" xMin="40" yMin="0" xMax="804" yMax="683">
      <contour>
        <pt x="293" y="615" on="1"/>
        <pt x="295" y="624" on="0"/>
        <pt x="297" y="631" on="0"/>
        <pt x="297" y="634" on="1"/>
        <pt x="297" y="642" on="0"/>
        <pt x="287" y="648" on="0"/>
        <pt x="275" y="650" on="1"/>
        <pt x="266" y="651" on="0"/>
        <pt x="242" y="652" on="0"/>
        <pt x="232" y="652" on="1"/>
        <pt x="217" y="652" on="0"/>
        <pt x="203" y="655" on="0"/>
        <pt x="203" y="664" on="1"/>
        <pt x="203" y="678" on="0"/>
        <pt x="219" y="683" on="0"/>
        <pt x="233" y="683" on="1"/>
        <pt x="569" y="683" on="1"/>
        <pt x="625" y="683" on="0"/>
        <pt x="713" y="644" on="0"/>
        <pt x="773" y="575" on="0"/>
        <pt x="804" y="483" on="0"/>
        <pt x="804" y="430" on="1"/>
        <pt x="804" y="348" on="0"/>
        <pt x="736" y="193" on="0"/>
        <pt x="623" y="73" on="0"/>
        <pt x="477" y="0" on="0"/>
        <pt x="399" y="0" on="1"/>
        <pt x="68" y="0" on="1"/>
        <pt x="54" y="0" on="0"/>
        <pt x="40" y="3" on="0"/>
        <pt x="40" y="12" on="1"/>
        <pt x="40" y="26" on="0"/>
        <pt x="55" y="31" on="0"/>
        <pt x="68" y="31" on="1"/>
        <pt x="98" y="31" on="0"/>
        <pt x="131" y="35" on="0"/>
        <pt x="148" y="45" on="0"/>
        <pt x="155" y="63" on="0"/>
        <pt x="159" y="78" on="1"/>
      </contour>
      <contour>
        <pt x="238" y="65" on="1"/>
        <pt x="234" y="51" on="0"/>
        <pt x="233" y="44" on="0"/>
        <pt x="233" y="42" on="1"/>
        <pt x="233" y="36" on="0"/>
        <pt x="238" y="33" on="0"/>
        <pt x="246" y="32" on="1"/>
        <pt x="251" y="31" on="0"/>
        <pt x="257" y="31" on="0"/>
        <pt x="268" y="31" on="1"/>
        <pt x="381" y="31" on="1"/>
        <pt x="427" y="31" on="0"/>
        <pt x="503" y="56" on="0"/>
        <pt x="561" y="91" on="0"/>
        <pt x="601" y="130" on="0"/>
        <pt x="612" y="144" on="1"/>
        <pt x="644" y="185" on="0"/>
        <pt x="685" y="283" on="0"/>
        <pt x="708" y="374" on="0"/>
        <pt x="717" y="449" on="0"/>
        <pt x="717" y="467" on="1"/>
        <pt x="717" y="517" on="0"/>
        <pt x="688" y="587" on="0"/>
        <pt x="639" y="631" on="0"/>
        <pt x="573" y="652" on="0"/>
        <pt x="536" y="652" on="1"/>
        <pt x="429" y="652" on="1"/>
        <pt x="413" y="652" on="0"/>
        <pt x="395" y="650" on="0"/>
        <pt x="384" y="642" on="0"/>
        <pt x="378" y="627" on="0"/>
        <pt x="375" y="614" on="1"/>
      </contour>
    </TTGlyph>
    <TTGlyph name="E" xMin="38" yMin="0" xMax="765" yMax="680">
      <contour>
        <pt x="616" y="17" on="1"/>
        <pt x="611" y="5" on="0"/>
        <pt x="602" y="0" on="0"/>
        <pt x="585" y="0" on="1"/>
        <pt x="66" y="0" on="1"/>
        <pt x="52" y="0" on="0"/>
        <pt x="38" y="3" on="0"/>
        <pt x="38" y="12" on="1"/>
        <pt x="38" y="26" on="0"/>
        <pt x="53" y="31" on="0"/>
        <pt x="66" y="31" on="1"/>
        <pt x="96" y="31" on="0"/>
        <pt x="129" y="35" on="0"/>
        <pt x="146" y="45" on="0"/>
        <pt x="153" y="63" on="0"/>
        <pt x="157" y="78" on="1"/>
        <pt x="289" y="607" on="1"/>
        <pt x="293" y="621" on="0"/>
        <pt x="294" y="628" on="0"/>
        <pt x="294" y="631" on="1"/>
        <pt x="294" y="645" on="0"/>
        <pt x="257" y="649" on="0"/>
        <pt x="229" y="649" on="1"/>
        <pt x="215" y="649" on="0"/>
        <pt x="201" y="652" on="0"/>
        <pt x="201" y="660" on="1"/>
        <pt x="201" y="675" on="0"/>
        <pt x="216" y="680" on="0"/>
        <pt x="231" y="680" on="1"/>
        <pt x="736" y="680" on="1"/>
        <pt x="755" y="680" on="0"/>
        <pt x="765" y="673" on="0"/>
        <pt x="763" y="653" on="1"/>
        <pt x="743" y="480" on="1"/>
        <pt x="741" y="466" on="0"/>
        <pt x="737" y="455" on="0"/>
        <pt x="729" y="455" on="1"/>
        <pt x="722" y="455" on="0"/>
        <pt x="717" y="463" on="0"/>
        <pt x="717" y="467" on="1"/>
        <pt x="717" y="471" on="0"/>
        <pt x="718" y="480" on="0"/>
        <pt x="718" y="485" on="1"/>
        <pt x="720" y="495" on="0"/>
        <pt x="721" y="507" on="0"/>
        <pt x="722" y="518" on="0"/>
        <pt x="722" y="529" on="0"/>
        <pt x="722" y="538" on="1"/>
        <pt x="722" y="569" on="0"/>
        <pt x="709" y="611" on="0"/>
        <pt x="675" y="637" on="0"/>
        <pt x="616" y="649" on="0"/>
        <pt x="570" y="649" on="1"/>
        <pt x="429" y="649" on="1"/>
        <pt x="413" y="649" on="0"/>
        <pt x="394" y="647" on="0"/>
        <pt x="384" y="639" on="0"/>
        <pt x="378" y="623" on="0"/>
        <pt x="375" y="610" on="1"/>
        <pt x="315" y="369" on="1"/>
        <pt x="409" y="369" on="1"/>
        <pt x="444" y="369" on="0"/>
        <pt x="487" y="379" on="0"/>
        <pt x="515" y="401" on="0"/>
        <pt x="532" y="440" on="0"/>
        <pt x="540" y="468" on="1"/>
        <pt x="542" y="477" on="0"/>
        <pt x="547" y="486" on="0"/>
        <pt x="554" y="486" on="1"/>
        <pt x="566" y="486" on="0"/>
        <pt x="566" y="475" on="1"/>
        <pt x="509" y="241" on="1"/>
        <pt x="504" y="221" on="0"/>
        <pt x="494" y="221" on="1"/>
        <pt x="487" y="221" on="0"/>
        <pt x="481" y="228" on="0"/>
        <pt x="481" y="232" on="1"/>
        <pt x="481" y="236" on="0"/>
        <pt x="484" y="243" on="1"/>
        <pt x="489" y="266" on="0"/>
        <pt x="491" y="287" on="0"/>
        <pt x="491" y="292" on="1"/>
        <pt x="491" y="301" on="0"/>
        <pt x="488" y="318" on="0"/>
        <pt x="472" y="331" on="0"/>
        <pt x="438" y="338" on="0"/>
        <pt x="406" y="338" on="1"/>
        <pt x="307" y="338" on="1"/>
        <pt x="239" y="65" on="1"/>
        <pt x="235" y="51" on="0"/>
        <pt x="234" y="44" on="0"/>
        <pt x="234" y="42" on="1"/>
        <pt x="234" y="36" on="0"/>
        <pt x="239" y="33" on="0"/>
        <pt x="247" y="32" on="1"/>
        <pt x="252" y="31" on="0"/>
        <pt x="258" y="31" on="0"/>
        <pt x="269" y="31" on="1"/>
        <pt x="415" y="31" on="1"/>
        <pt x="479" y="31" on="0"/>
        <pt x="562" y="57" on="0"/>
        <pt x="620" y="109" on="0"/>
        <pt x="664" y="191" on="0"/>
        <pt x="688" y="246" on="1"/>
        <pt x="690" y="251" on="0"/>
        <pt x="694" y="258" on="0"/>
        <pt x="701" y="258" on="1"/>
        <pt x="710" y="258" on="0"/>
        <pt x="713" y="248" on="0"/>
        <pt x="713" y="247" on="1"/>
        <pt x="713" y="245" on="0"/>
        <pt x="710" y="237" on="0"/>
        <pt x="708" y="233" on="1"/>
      </contour>
    </TTGlyph>
    <TTGlyph name="F" xMin="38" yMin="0" xMax="750" yMax="680">
      <contour>
        <pt x="241" y="76" on="1"/>
        <pt x="238" y="65" on="0"/>
        <pt x="237" y="55" on="0"/>
        <pt x="237" y="53" on="1"/>
        <pt x="237" y="43" on="0"/>
        <pt x="247" y="35" on="0"/>
        <pt x="269" y="33" on="1"/>
        <pt x="278" y="32" on="0"/>
        <pt x="291" y="31" on="0"/>
        <pt x="301" y="31" on="0"/>
        <pt x="313" y="31" on="0"/>
        <pt x="321" y="31" on="1"/>
        <pt x="338" y="31" on="0"/>
        <pt x="347" y="31" on="0"/>
        <pt x="349" y="30" on="1"/>
        <pt x="349" y="29" on="0"/>
        <pt x="355" y="25" on="0"/>
        <pt x="355" y="19" on="1"/>
        <pt x="355" y="5" on="0"/>
        <pt x="341" y="0" on="0"/>
        <pt x="334" y="0" on="1"/>
        <pt x="322" y="0" on="0"/>
        <pt x="281" y="1" on="0"/>
        <pt x="238" y="2" on="0"/>
        <pt x="197" y="3" on="0"/>
        <pt x="185" y="3" on="1"/>
        <pt x="174" y="3" on="0"/>
        <pt x="138" y="2" on="0"/>
        <pt x="100" y="1" on="0"/>
        <pt x="64" y="0" on="0"/>
        <pt x="53" y="0" on="1"/>
        <pt x="51" y="0" on="0"/>
        <pt x="38" y="3" on="0"/>
        <pt x="38" y="12" on="1"/>
        <pt x="38" y="26" on="0"/>
        <pt x="53" y="31" on="0"/>
        <pt x="66" y="31" on="1"/>
        <pt x="96" y="31" on="0"/>
        <pt x="129" y="35" on="0"/>
        <pt x="146" y="45" on="0"/>
        <pt x="153" y="63" on="0"/>
        <pt x="157" y="78" on="1"/>
        <pt x="289" y="607" on="1"/>
        <pt x="293" y="621" on="0"/>
        <pt x="294" y="628" on="0"/>
        <pt x="294" y="631" on="1"/>
        <pt x="294" y="645" on="0"/>
        <pt x="257" y="649" on="0"/>
        <pt x="229" y="649" on="1"/>
        <pt x="215" y="649" on="0"/>
        <pt x="201" y="652" on="0"/>
        <pt x="201" y="660" on="1"/>
        <pt x="201" y="675" on="0"/>
        <pt x="216" y="680" on="0"/>
        <pt x="231" y="680" on="1"/>
        <pt x="721" y="680" on="1"/>
        <pt x="740" y="680" on="0"/>
        <pt x="750" y="673" on="0"/>
        <pt x="748" y="653" on="1"/>
        <pt x="728" y="480" on="1"/>
        <pt x="726" y="466" on="0"/>
        <pt x="722" y="455" on="0"/>
        <pt x="714" y="455" on="1"/>
        <pt x="707" y="455" on="0"/>
        <pt x="702" y="463" on="0"/>
        <pt x="702" y="467" on="1"/>
        <pt x="702" y="469" on="0"/>
        <pt x="702" y="475" on="0"/>
        <pt x="704" y="485" on="1"/>
        <pt x="706" y="505" on="0"/>
        <pt x="707" y="522" on="0"/>
        <pt x="707" y="539" on="1"/>
        <pt x="707" y="568" on="0"/>
        <pt x="696" y="609" on="0"/>
        <pt x="664" y="636" on="0"/>
        <pt x="607" y="649" on="0"/>
        <pt x="561" y="649" on="1"/>
        <pt x="429" y="649" on="1"/>
        <pt x="413" y="649" on="0"/>
        <pt x="394" y="647" on="0"/>
        <pt x="384" y="639" on="0"/>
        <pt x="378" y="623" on="0"/>
        <pt x="375" y="610" on="1"/>
        <pt x="311" y="356" on="1"/>
        <pt x="402" y="356" on="1"/>
        <pt x="434" y="356" on="0"/>
        <pt x="476" y="364" on="0"/>
        <pt x="505" y="385" on="0"/>
        <pt x="523" y="423" on="0"/>
        <pt x="531" y="452" on="1"/>
        <pt x="534" y="464" on="0"/>
        <pt x="538" y="473" on="0"/>
        <pt x="546" y="473" on="1"/>
        <pt x="554" y="473" on="0"/>
        <pt x="558" y="464" on="0"/>
        <pt x="558" y="462" on="1"/>
        <pt x="558" y="460" on="0"/>
        <pt x="557" y="454" on="0"/>
        <pt x="555" y="446" on="1"/>
        <pt x="500" y="229" on="1"/>
        <pt x="496" y="215" on="0"/>
        <pt x="493" y="208" on="0"/>
        <pt x="485" y="208" on="1"/>
        <pt x="480" y="208" on="0"/>
        <pt x="473" y="214" on="0"/>
        <pt x="473" y="220" on="1"/>
        <pt x="473" y="224" on="0"/>
        <pt x="476" y="231" on="1"/>
        <pt x="481" y="254" on="0"/>
        <pt x="483" y="275" on="0"/>
        <pt x="483" y="280" on="1"/>
        <pt x="483" y="291" on="0"/>
        <pt x="478" y="308" on="0"/>
        <pt x="461" y="319" on="0"/>
        <pt x="428" y="325" on="0"/>
        <pt x="400" y="325" on="1"/>
        <pt x="303" y="325" on="1"/>
      </contour>
    </TTGlyph>
    <TTGlyph name="G" xMin="50" yMin="-22" xMax="760" yMax="705">
      <contour>
        <pt x="697" y="440" on="1"/>
        <pt x="693" y="426" on="0"/>
        <pt x="689" y="420" on="0"/>
        <pt x="679" y="420" on="1"/>
        <pt x="676" y="420" on="0"/>
        <pt x="664" y="422" on="0"/>
        <pt x="664" y="430" on="1"/>
        <pt x="664" y="434" on="0"/>
        <pt x="665" y="439" on="0"/>
        <pt x="666" y="449" on="0"/>
        <pt x="667" y="466" on="0"/>
        <pt x="667" y="481" on="1"/>
        <pt x="667" y="568" on="0"/>
        <pt x="583" y="674" on="0"/>
        <pt x="506" y="674" on="1"/>
        <pt x="469" y="674" on="0"/>
        <pt x="397" y="653" on="0"/>
        <pt x="332" y="617" on="0"/>
        <pt x="276" y="571" on="0"/>
        <pt x="256" y="545" on="1"/>
        <pt x="217" y="496" on="0"/>
        <pt x="171" y="391" on="0"/>
        <pt x="147" y="299" on="0"/>
        <pt x="141" y="231" on="0"/>
        <pt x="141" y="219" on="1"/>
        <pt x="141" y="162" on="0"/>
        <pt x="177" y="82" on="0"/>
        <pt x="234" y="32" on="0"/>
        <pt x="306" y="9" on="0"/>
        <pt x="342" y="9" on="1"/>
        <pt x="355" y="9" on="0"/>
        <pt x="411" y="16" on="0"/>
        <pt x="471" y="41" on="0"/>
        <pt x="525" y="89" on="0"/>
        <pt x="535" y="130" on="1"/>
        <pt x="543" y="158" on="0"/>
        <pt x="556" y="214" on="0"/>
        <pt x="556" y="221" on="1"/>
        <pt x="556" y="231" on="0"/>
        <pt x="545" y="238" on="0"/>
        <pt x="525" y="240" on="1"/>
        <pt x="508" y="242" on="0"/>
        <pt x="473" y="242" on="0"/>
        <pt x="472" y="242" on="1"/>
        <pt x="455" y="242" on="0"/>
        <pt x="442" y="245" on="0"/>
        <pt x="442" y="253" on="1"/>
        <pt x="442" y="268" on="0"/>
        <pt x="456" y="273" on="0"/>
        <pt x="463" y="273" on="1"/>
        <pt x="475" y="273" on="0"/>
        <pt x="513" y="272" on="0"/>
        <pt x="553" y="271" on="0"/>
        <pt x="591" y="270" on="0"/>
        <pt x="603" y="270" on="1"/>
        <pt x="612" y="270" on="0"/>
        <pt x="640" y="271" on="0"/>
        <pt x="671" y="272" on="0"/>
        <pt x="699" y="273" on="0"/>
        <pt x="708" y="273" on="1"/>
        <pt x="721" y="273" on="0"/>
        <pt x="721" y="262" on="1"/>
        <pt x="721" y="248" on="0"/>
        <pt x="709" y="242" on="0"/>
        <pt x="705" y="242" on="1"/>
        <pt x="684" y="242" on="0"/>
        <pt x="660" y="239" on="0"/>
        <pt x="647" y="230" on="0"/>
        <pt x="640" y="211" on="0"/>
        <pt x="636" y="194" on="1"/>
        <pt x="633" y="181" on="0"/>
        <pt x="626" y="156" on="0"/>
        <pt x="623" y="143" on="1"/>
        <pt x="604" y="66" on="1"/>
        <pt x="602" y="58" on="0"/>
        <pt x="597" y="38" on="0"/>
        <pt x="592" y="19" on="0"/>
        <pt x="588" y="6" on="0"/>
        <pt x="587" y="5" on="1"/>
        <pt x="587" y="1" on="0"/>
        <pt x="580" y="1" on="1"/>
        <pt x="576" y="1" on="0"/>
        <pt x="564" y="13" on="0"/>
        <pt x="550" y="32" on="0"/>
        <pt x="538" y="54" on="0"/>
        <pt x="535" y="63" on="1"/>
        <pt x="494" y="18" on="0"/>
        <pt x="383" y="-22" on="0"/>
        <pt x="323" y="-22" on="1"/>
        <pt x="262" y="-22" on="0"/>
        <pt x="162" y="19" on="0"/>
        <pt x="90" y="92" on="0"/>
        <pt x="50" y="192" on="0"/>
        <pt x="50" y="252" on="1"/>
        <pt x="50" y="310" on="0"/>
        <pt x="85" y="422" on="0"/>
        <pt x="148" y="523" on="0"/>
        <pt x="233" y="608" on="0"/>
        <pt x="333" y="670" on="0"/>
        <pt x="442" y="705" on="0"/>
        <pt x="498" y="705" on="1"/>
        <pt x="540" y="705" on="0"/>
        <pt x="599" y="681" on="0"/>
        <pt x="639" y="650" on="0"/>
        <pt x="661" y="621" on="0"/>
        <pt x="664" y="616" on="1"/>
        <pt x="734" y="693" on="1"/>
        <pt x="742" y="701" on="0"/>
        <pt x="747" y="705" on="0"/>
        <pt x="749" y="705" on="1"/>
        <pt x="756" y="705" on="0"/>
        <pt x="760" y="697" on="0"/>
        <pt x="760" y="695" on="1"/>
      </contour>
    </TTGlyph>
    <TTGlyph name="Gamma" xMin="39" yMin="0" xMax="722" yMax="680">
      <contour>
        <pt x="241" y="76" on="1"/>
        <pt x="238" y="65" on="0"/>
        <pt x="237" y="55" on="0"/>
        <pt x="237" y="53" on="1"/>
        <pt x="237" y="43" on="0"/>
        <pt x="247" y="35" on="0"/>
        <pt x="269" y="33" on="1"/>
        <pt x="278" y="32" on="0"/>
        <pt x="291" y="31" on="0"/>
        <pt x="301" y="31" on="0"/>
        <pt x="313" y="31" on="0"/>
        <pt x="321" y="31" on="1"/>
        <pt x="338" y="31" on="0"/>
        <pt x="347" y="31" on="0"/>
        <pt x="349" y="30" on="1"/>
        <pt x="349" y="29" on="0"/>
        <pt x="355" y="25" on="0"/>
        <pt x="355" y="19" on="1"/>
        <pt x="355" y="5" on="0"/>
        <pt x="340" y="0" on="0"/>
        <pt x="334" y="0" on="1"/>
        <pt x="322" y="0" on="0"/>
        <pt x="281" y="1" on="0"/>
        <pt x="238" y="2" on="0"/>
        <pt x="197" y="3" on="0"/>
        <pt x="185" y="3" on="1"/>
        <pt x="174" y="3" on="0"/>
        <pt x="138" y="2" on="0"/>
        <pt x="100" y="1" on="0"/>
        <pt x="64" y="0" on="0"/>
        <pt x="53" y="0" on="1"/>
        <pt x="51" y="0" on="0"/>
        <pt x="39" y="3" on="0"/>
        <pt x="39" y="11" on="1"/>
        <pt x="39" y="26" on="0"/>
        <pt x="53" y="31" on="0"/>
        <pt x="66" y="31" on="1"/>
        <pt x="96" y="31" on="0"/>
        <pt x="129" y="35" on="0"/>
        <pt x="146" y="45" on="0"/>
        <pt x="153" y="63" on="0"/>
        <pt x="157" y="78" on="1"/>
        <pt x="290" y="607" on="1"/>
        <pt x="293" y="618" on="0"/>
        <pt x="294" y="625" on="0"/>
        <pt x="294" y="631" on="1"/>
        <pt x="294" y="645" on="0"/>
        <pt x="257" y="649" on="0"/>
        <pt x="227" y="649" on="1"/>
        <pt x="215" y="649" on="0"/>
        <pt x="201" y="652" on="0"/>
        <pt x="201" y="660" on="1"/>
        <pt x="201" y="675" on="0"/>
        <pt x="216" y="680" on="0"/>
        <pt x="231" y="680" on="1"/>
        <pt x="693" y="680" on="1"/>
        <pt x="712" y="680" on="0"/>
        <pt x="722" y="673" on="0"/>
        <pt x="720" y="653" on="1"/>
        <pt x="700" y="480" on="1"/>
        <pt x="698" y="466" on="0"/>
        <pt x="694" y="455" on="0"/>
        <pt x="686" y="455" on="1"/>
        <pt x="679" y="455" on="0"/>
        <pt x="674" y="463" on="0"/>
        <pt x="674" y="467" on="1"/>
        <pt x="674" y="469" on="0"/>
        <pt x="674" y="475" on="0"/>
        <pt x="676" y="485" on="1"/>
        <pt x="678" y="505" on="0"/>
        <pt x="679" y="540" on="0"/>
        <pt x="679" y="542" on="1"/>
        <pt x="679" y="568" on="0"/>
        <pt x="671" y="608" on="0"/>
        <pt x="643" y="635" on="0"/>
        <pt x="589" y="649" on="0"/>
        <pt x="544" y="649" on="1"/>
        <pt x="429" y="649" on="1"/>
        <pt x="413" y="649" on="0"/>
        <pt x="394" y="647" on="0"/>
        <pt x="384" y="639" on="0"/>
        <pt x="378" y="623" on="0"/>
        <pt x="375" y="610" on="1"/>
      </contour>
    </TTGlyph>
    <TTGlyph name="H" xMin="39" yMin="0" xMax="881" yMax="683">
      <contour>
        <pt x="628" y="66" on="1"/>
        <pt x="627" y="61" on="0"/>
        <pt x="625" y="54" on="0"/>
        <pt x="625" y="49" on="1"/>
        <pt x="625" y="35" on="0"/>
        <pt x="662" y="31" on="0"/>
        <pt x="690" y="31" on="1"/>
        <pt x="704" y="31" on="0"/>
        <pt x="718" y="28" on="0"/>
        <pt x="718" y="20" on="1"/>
        <pt x="718" y="5" on="0"/>
        <pt x="704" y="0" on="0"/>
        <pt x="698" y="0" on="1"/>
        <pt x="682" y="0" on="0"/>
        <pt x="650" y="2" on="0"/>
        <pt x="633" y="2" on="1"/>
        <pt x="617" y="2" on="0"/>
        <pt x="585" y="3" on="0"/>
        <pt x="569" y="3" on="1"/>
        <pt x="559" y="3" on="0"/>
        <pt x="524" y="2" on="0"/>
        <pt x="487" y="1" on="0"/>
        <pt x="453" y="0" on="0"/>
        <pt x="442" y="0" on="1"/>
        <pt x="440" y="0" on="0"/>
        <pt x="428" y="3" on="0"/>
        <pt x="428" y="11" on="1"/>
        <pt x="428" y="26" on="0"/>
        <pt x="441" y="31" on="0"/>
        <pt x="452" y="31" on="1"/>
        <pt x="475" y="31" on="0"/>
        <pt x="507" y="32" on="0"/>
        <pt x="527" y="39" on="0"/>
        <pt x="539" y="52" on="0"/>
        <pt x="543" y="64" on="1"/>
        <pt x="546" y="75" on="0"/>
        <pt x="580" y="215" on="0"/>
        <pt x="612" y="340" on="1"/>
        <pt x="307" y="340" on="1"/>
        <pt x="239" y="66" on="1"/>
        <pt x="238" y="61" on="0"/>
        <pt x="236" y="54" on="0"/>
        <pt x="236" y="49" on="1"/>
        <pt x="236" y="35" on="0"/>
        <pt x="273" y="31" on="0"/>
        <pt x="301" y="31" on="1"/>
        <pt x="315" y="31" on="0"/>
        <pt x="329" y="28" on="0"/>
        <pt x="329" y="20" on="1"/>
        <pt x="329" y="5" on="0"/>
        <pt x="315" y="0" on="0"/>
        <pt x="309" y="0" on="1"/>
        <pt x="293" y="0" on="0"/>
        <pt x="261" y="2" on="0"/>
        <pt x="244" y="2" on="1"/>
        <pt x="228" y="2" on="0"/>
        <pt x="196" y="3" on="0"/>
        <pt x="180" y="3" on="1"/>
        <pt x="170" y="3" on="0"/>
        <pt x="135" y="2" on="0"/>
        <pt x="98" y="1" on="0"/>
        <pt x="64" y="0" on="0"/>
        <pt x="53" y="0" on="1"/>
        <pt x="51" y="0" on="0"/>
        <pt x="39" y="3" on="0"/>
        <pt x="39" y="11" on="1"/>
        <pt x="39" y="26" on="0"/>
        <pt x="52" y="31" on="0"/>
        <pt x="66" y="31" on="1"/>
        <pt x="96" y="31" on="0"/>
        <pt x="129" y="35" on="0"/>
        <pt x="146" y="45" on="0"/>
        <pt x="153" y="63" on="0"/>
        <pt x="157" y="78" on="1"/>
        <pt x="291" y="615" on="1"/>
        <pt x="293" y="624" on="0"/>
        <pt x="295" y="631" on="0"/>
        <pt x="295" y="634" on="1"/>
        <pt x="295" y="644" on="0"/>
        <pt x="282" y="648" on="0"/>
        <pt x="268" y="650" on="1"/>
        <pt x="255" y="652" on="0"/>
        <pt x="232" y="652" on="0"/>
        <pt x="230" y="652" on="1"/>
        <pt x="216" y="652" on="0"/>
        <pt x="202" y="655" on="0"/>
        <pt x="202" y="663" on="1"/>
        <pt x="202" y="678" on="0"/>
        <pt x="215" y="683" on="0"/>
        <pt x="221" y="683" on="1"/>
        <pt x="232" y="683" on="0"/>
        <pt x="267" y="682" on="0"/>
        <pt x="304" y="681" on="0"/>
        <pt x="339" y="680" on="0"/>
        <pt x="350" y="680" on="1"/>
        <pt x="361" y="680" on="0"/>
        <pt x="395" y="681" on="0"/>
        <pt x="433" y="682" on="0"/>
        <pt x="468" y="683" on="0"/>
        <pt x="478" y="683" on="1"/>
        <pt x="480" y="683" on="0"/>
        <pt x="492" y="680" on="0"/>
        <pt x="492" y="672" on="1"/>
        <pt x="492" y="657" on="0"/>
        <pt x="478" y="652" on="0"/>
        <pt x="458" y="652" on="1"/>
        <pt x="431" y="652" on="0"/>
        <pt x="401" y="648" on="0"/>
        <pt x="384" y="637" on="0"/>
        <pt x="377" y="620" on="0"/>
        <pt x="374" y="606" on="1"/>
        <pt x="315" y="371" on="1"/>
        <pt x="620" y="371" on="1"/>
        <pt x="680" y="615" on="1"/>
        <pt x="682" y="625" on="0"/>
        <pt x="684" y="631" on="0"/>
        <pt x="684" y="634" on="1"/>
        <pt x="684" y="644" on="0"/>
        <pt x="671" y="648" on="0"/>
        <pt x="657" y="650" on="1"/>
        <pt x="644" y="652" on="0"/>
        <pt x="621" y="652" on="0"/>
        <pt x="619" y="652" on="1"/>
        <pt x="605" y="652" on="0"/>
        <pt x="591" y="655" on="0"/>
        <pt x="591" y="663" on="1"/>
        <pt x="591" y="678" on="0"/>
        <pt x="604" y="683" on="0"/>
        <pt x="610" y="683" on="1"/>
        <pt x="621" y="683" on="0"/>
        <pt x="656" y="682" on="0"/>
        <pt x="693" y="681" on="0"/>
        <pt x="728" y="680" on="0"/>
        <pt x="739" y="680" on="1"/>
        <pt x="750" y="680" on="0"/>
        <pt x="784" y="681" on="0"/>
        <pt x="822" y="682" on="0"/>
        <pt x="857" y="683" on="0"/>
        <pt x="867" y="683" on="1"/>
        <pt x="869" y="683" on="0"/>
        <pt x="881" y="680" on="0"/>
        <pt x="881" y="672" on="1"/>
        <pt x="881" y="657" on="0"/>
        <pt x="867" y="652" on="0"/>
        <pt x="847" y="652" on="1"/>
        <pt x="820" y="652" on="0"/>
        <pt x="789" y="648" on="0"/>
        <pt x="773" y="637" on="0"/>
        <pt x="766" y="620" on="0"/>
        <pt x="763" y="606" on="1"/>
      </contour>
    </TTGlyph>
    <TTGlyph name="I" xMin="34" yMin="0" xMax="497" yMax="683">
      <contour>
        <pt x="240" y="73" on="1"/>
        <pt x="238" y="68" on="0"/>
        <pt x="236" y="56" on="0"/>
        <pt x="236" y="50" on="1"/>
        <pt x="236" y="42" on="0"/>
        <pt x="245" y="35" on="0"/>
        <pt x="261" y="33" on="1"/>
        <pt x="276" y="31" on="0"/>
        <pt x="290" y="31" on="0"/>
        <pt x="304" y="31" on="1"/>
        <pt x="321" y="31" on="0"/>
        <pt x="334" y="28" on="0"/>
        <pt x="334" y="19" on="1"/>
        <pt x="334" y="5" on="0"/>
        <pt x="320" y="0" on="0"/>
        <pt x="314" y="0" on="1"/>
        <pt x="303" y="0" on="0"/>
        <pt x="267" y="1" on="0"/>
        <pt x="228" y="2" on="0"/>
        <pt x="191" y="3" on="0"/>
        <pt x="180" y="3" on="1"/>
        <pt x="169" y="3" on="0"/>
        <pt x="134" y="2" on="0"/>
        <pt x="95" y="1" on="0"/>
        <pt x="60" y="0" on="0"/>
        <pt x="49" y="0" on="1"/>
        <pt x="47" y="0" on="0"/>
        <pt x="34" y="3" on="0"/>
        <pt x="34" y="11" on="1"/>
        <pt x="34" y="26" on="0"/>
        <pt x="49" y="31" on="0"/>
        <pt x="66" y="31" on="1"/>
        <pt x="96" y="31" on="0"/>
        <pt x="129" y="35" on="0"/>
        <pt x="147" y="46" on="0"/>
        <pt x="154" y="64" on="0"/>
        <pt x="157" y="78" on="1"/>
        <pt x="292" y="617" on="1"/>
        <pt x="294" y="624" on="0"/>
        <pt x="294" y="629" on="0"/>
        <pt x="294" y="633" on="1"/>
        <pt x="294" y="647" on="0"/>
        <pt x="257" y="652" on="0"/>
        <pt x="225" y="652" on="1"/>
        <pt x="211" y="652" on="0"/>
        <pt x="197" y="655" on="0"/>
        <pt x="197" y="663" on="1"/>
        <pt x="197" y="678" on="0"/>
        <pt x="212" y="683" on="0"/>
        <pt x="217" y="683" on="1"/>
        <pt x="228" y="683" on="0"/>
        <pt x="264" y="682" on="0"/>
        <pt x="303" y="681" on="0"/>
        <pt x="339" y="680" on="0"/>
        <pt x="350" y="680" on="1"/>
        <pt x="361" y="680" on="0"/>
        <pt x="397" y="681" on="0"/>
        <pt x="435" y="682" on="0"/>
        <pt x="471" y="683" on="0"/>
        <pt x="482" y="683" on="1"/>
        <pt x="485" y="683" on="0"/>
        <pt x="497" y="680" on="0"/>
        <pt x="497" y="671" on="1"/>
        <pt x="497" y="657" on="0"/>
        <pt x="483" y="652" on="0"/>
        <pt x="465" y="652" on="1"/>
        <pt x="435" y="652" on="0"/>
        <pt x="402" y="648" on="0"/>
        <pt x="384" y="637" on="0"/>
        <pt x="377" y="620" on="0"/>
        <pt x="374" y="606" on="1"/>
      </contour>
    </TTGlyph>
    <TTGlyph name="J" xMin="71" yMin="-22" xMax="633" yMax="683">
      <contour>
        <pt x="424" y="143" on="1"/>
        <pt x="415" y="106" on="0"/>
        <pt x="369" y="45" on="0"/>
        <pt x="308" y="2" on="0"/>
        <pt x="238" y="-22" on="0"/>
        <pt x="203" y="-22" on="1"/>
        <pt x="143" y="-22" on="0"/>
        <pt x="71" y="40" on="0"/>
        <pt x="71" y="87" on="1"/>
        <pt x="71" y="113" on="0"/>
        <pt x="87" y="144" on="0"/>
        <pt x="109" y="161" on="0"/>
        <pt x="131" y="167" on="0"/>
        <pt x="138" y="167" on="1"/>
        <pt x="151" y="167" on="0"/>
        <pt x="182" y="149" on="0"/>
        <pt x="182" y="125" on="1"/>
        <pt x="182" y="114" on="0"/>
        <pt x="173" y="91" on="0"/>
        <pt x="156" y="73" on="0"/>
        <pt x="132" y="61" on="0"/>
        <pt x="117" y="61" on="1"/>
        <pt x="115" y="61" on="0"/>
        <pt x="107" y="61" on="0"/>
        <pt x="105" y="62" on="1"/>
        <pt x="111" y="43" on="0"/>
        <pt x="135" y="18" on="0"/>
        <pt x="163" y="5" on="0"/>
        <pt x="190" y="0" on="0"/>
        <pt x="200" y="0" on="1"/>
        <pt x="220" y="0" on="0"/>
        <pt x="263" y="20" on="0"/>
        <pt x="302" y="58" on="0"/>
        <pt x="335" y="114" on="0"/>
        <pt x="344" y="150" on="1"/>
        <pt x="459" y="609" on="1"/>
        <pt x="461" y="615" on="0"/>
        <pt x="463" y="625" on="0"/>
        <pt x="463" y="630" on="1"/>
        <pt x="463" y="641" on="0"/>
        <pt x="450" y="648" on="0"/>
        <pt x="432" y="650" on="1"/>
        <pt x="413" y="652" on="0"/>
        <pt x="391" y="652" on="0"/>
        <pt x="374" y="652" on="1"/>
        <pt x="354" y="652" on="0"/>
        <pt x="340" y="655" on="0"/>
        <pt x="340" y="663" on="1"/>
        <pt x="340" y="678" on="0"/>
        <pt x="354" y="683" on="0"/>
        <pt x="361" y="683" on="1"/>
        <pt x="373" y="683" on="0"/>
        <pt x="413" y="682" on="0"/>
        <pt x="456" y="681" on="0"/>
        <pt x="496" y="680" on="0"/>
        <pt x="508" y="680" on="1"/>
        <pt x="517" y="680" on="0"/>
        <pt x="547" y="681" on="0"/>
        <pt x="580" y="682" on="0"/>
        <pt x="610" y="683" on="0"/>
        <pt x="619" y="683" on="1"/>
        <pt x="633" y="683" on="0"/>
        <pt x="633" y="671" on="1"/>
        <pt x="633" y="657" on="0"/>
        <pt x="618" y="652" on="0"/>
        <pt x="606" y="652" on="1"/>
        <pt x="585" y="652" on="0"/>
        <pt x="562" y="648" on="0"/>
        <pt x="550" y="639" on="0"/>
        <pt x="544" y="622" on="0"/>
        <pt x="541" y="610" on="1"/>
      </contour>
    </TTGlyph>
    <TTGlyph name="K" xMin="38" yMin="0" xMax="889" yMax="683">
      <contour>
        <pt x="651" y="76" on="1"/>
        <pt x="657" y="63" on="0"/>
        <pt x="668" y="46" on="0"/>
        <pt x="683" y="36" on="0"/>
        <pt x="705" y="31" on="0"/>
        <pt x="720" y="31" on="1"/>
        <pt x="727" y="31" on="0"/>
        <pt x="740" y="28" on="0"/>
        <pt x="740" y="20" on="1"/>
        <pt x="740" y="5" on="0"/>
        <pt x="726" y="0" on="0"/>
        <pt x="722" y="0" on="1"/>
        <pt x="714" y="0" on="0"/>
        <pt x="687" y="1" on="0"/>
        <pt x="659" y="2" on="0"/>
        <pt x="632" y="3" on="0"/>
        <pt x="624" y="3" on="1"/>
        <pt x="594" y="3" on="0"/>
        <pt x="532" y="0" on="0"/>
        <pt x="502" y="0" on="1"/>
        <pt x="500" y="0" on="0"/>
        <pt x="488" y="3" on="0"/>
        <pt x="488" y="11" on="1"/>
        <pt x="488" y="26" on="0"/>
        <pt x="502" y="31" on="0"/>
        <pt x="510" y="31" on="1"/>
        <pt x="513" y="31" on="0"/>
        <pt x="530" y="32" on="0"/>
        <pt x="548" y="38" on="0"/>
        <pt x="562" y="51" on="0"/>
        <pt x="562" y="62" on="1"/>
        <pt x="562" y="67" on="0"/>
        <pt x="559" y="77" on="0"/>
        <pt x="550" y="97" on="1"/>
        <pt x="434" y="366" on="1"/>
        <pt x="285" y="250" on="1"/>
        <pt x="275" y="211" on="0"/>
        <pt x="256" y="132" on="0"/>
        <pt x="245" y="93" on="1"/>
        <pt x="243" y="82" on="0"/>
        <pt x="236" y="54" on="0"/>
        <pt x="236" y="49" on="1"/>
        <pt x="236" y="35" on="0"/>
        <pt x="273" y="31" on="0"/>
        <pt x="301" y="31" on="1"/>
        <pt x="315" y="31" on="0"/>
        <pt x="329" y="28" on="0"/>
        <pt x="329" y="20" on="1"/>
        <pt x="329" y="5" on="0"/>
        <pt x="314" y="0" on="0"/>
        <pt x="309" y="0" on="1"/>
        <pt x="293" y="0" on="0"/>
        <pt x="261" y="2" on="0"/>
        <pt x="244" y="2" on="1"/>
        <pt x="228" y="2" on="0"/>
        <pt x="196" y="3" on="0"/>
        <pt x="180" y="3" on="1"/>
        <pt x="170" y="3" on="0"/>
        <pt x="135" y="2" on="0"/>
        <pt x="98" y="1" on="0"/>
        <pt x="64" y="0" on="0"/>
        <pt x="53" y="0" on="1"/>
        <pt x="51" y="0" on="0"/>
        <pt x="38" y="3" on="0"/>
        <pt x="38" y="12" on="1"/>
        <pt x="38" y="26" on="0"/>
        <pt x="53" y="31" on="0"/>
        <pt x="66" y="31" on="1"/>
        <pt x="96" y="31" on="0"/>
        <pt x="129" y="35" on="0"/>
        <pt x="146" y="45" on="0"/>
        <pt x="153" y="63" on="0"/>
        <pt x="157" y="78" on="1"/>
        <pt x="291" y="615" on="1"/>
        <pt x="293" y="624" on="0"/>
        <pt x="295" y="631" on="0"/>
        <pt x="295" y="634" on="1"/>
        <pt x="295" y="642" on="0"/>
        <pt x="285" y="648" on="0"/>
        <pt x="273" y="650" on="1"/>
        <pt x="264" y="651" on="0"/>
        <pt x="240" y="652" on="0"/>
        <pt x="230" y="652" on="1"/>
        <pt x="215" y="652" on="0"/>
        <pt x="201" y="655" on="0"/>
        <pt x="201" y="664" on="1"/>
        <pt x="201" y="678" on="0"/>
        <pt x="216" y="683" on="0"/>
        <pt x="221" y="683" on="1"/>
        <pt x="232" y="683" on="0"/>
        <pt x="267" y="682" on="0"/>
        <pt x="304" y="681" on="0"/>
        <pt x="339" y="680" on="0"/>
        <pt x="350" y="680" on="1"/>
        <pt x="361" y="680" on="0"/>
        <pt x="395" y="681" on="0"/>
        <pt x="433" y="682" on="0"/>
        <pt x="468" y="683" on="0"/>
        <pt x="478" y="683" on="1"/>
        <pt x="483" y="683" on="0"/>
        <pt x="492" y="679" on="0"/>
        <pt x="492" y="672" on="1"/>
        <pt x="492" y="657" on="0"/>
        <pt x="477" y="652" on="0"/>
        <pt x="458" y="652" on="1"/>
        <pt x="431" y="652" on="0"/>
        <pt x="400" y="648" on="0"/>
        <pt x="384" y="637" on="0"/>
        <pt x="377" y="620" on="0"/>
        <pt x="374" y="606" on="1"/>
        <pt x="294" y="285" on="1"/>
        <pt x="684" y="585" on="1"/>
        <pt x="686" y="587" on="0"/>
        <pt x="698" y="597" on="0"/>
        <pt x="710" y="610" on="0"/>
        <pt x="720" y="624" on="0"/>
        <pt x="720" y="631" on="1"/>
        <pt x="720" y="642" on="0"/>
        <pt x="706" y="650" on="0"/>
        <pt x="689" y="652" on="1"/>
        <pt x="677" y="654" on="0"/>
        <pt x="677" y="663" on="1"/>
        <pt x="677" y="678" on="0"/>
        <pt x="691" y="683" on="0"/>
        <pt x="696" y="683" on="1"/>
        <pt x="723" y="683" on="0"/>
        <pt x="780" y="680" on="0"/>
        <pt x="807" y="680" on="1"/>
        <pt x="825" y="680" on="0"/>
        <pt x="861" y="683" on="0"/>
        <pt x="878" y="683" on="1"/>
        <pt x="884" y="683" on="0"/>
        <pt x="889" y="675" on="0"/>
        <pt x="889" y="672" on="1"/>
        <pt x="889" y="658" on="0"/>
        <pt x="877" y="653" on="0"/>
        <pt x="871" y="652" on="1"/>
        <pt x="860" y="651" on="0"/>
        <pt x="832" y="646" on="0"/>
        <pt x="795" y="631" on="0"/>
        <pt x="743" y="602" on="0"/>
        <pt x="708" y="576" on="1"/>
        <pt x="533" y="441" on="1"/>
        <pt x="525" y="435" on="0"/>
        <pt x="504" y="419" on="0"/>
        <pt x="504" y="418" on="1"/>
        <pt x="504" y="416" on="0"/>
        <pt x="508" y="406" on="0"/>
        <pt x="509" y="404" on="1"/>
      </contour>
    </TTGlyph>
    <TTGlyph name="L" xMin="39" yMin="0" xMax="643" yMax="683">
      <contour>
        <pt x="239" y="65" on="1"/>
        <pt x="235" y="51" on="0"/>
        <pt x="234" y="44" on="0"/>
        <pt x="234" y="42" on="1"/>
        <pt x="234" y="36" on="0"/>
        <pt x="239" y="33" on="0"/>
        <pt x="247" y="32" on="1"/>
        <pt x="252" y="31" on="0"/>
        <pt x="258" y="31" on="0"/>
        <pt x="269" y="31" on="1"/>
        <pt x="363" y="31" on="1"/>
        <pt x="428" y="31" on="0"/>
        <pt x="513" y="70" on="0"/>
        <pt x="568" y="130" on="0"/>
        <pt x="601" y="203" on="0"/>
        <pt x="614" y="237" on="1"/>
        <pt x="619" y="249" on="0"/>
        <pt x="624" y="258" on="0"/>
        <pt x="631" y="258" on="1"/>
        <pt x="638" y="258" on="0"/>
        <pt x="643" y="250" on="0"/>
        <pt x="643" y="247" on="1"/>
        <pt x="643" y="246" on="0"/>
        <pt x="642" y="241" on="0"/>
        <pt x="639" y="233" on="1"/>
        <pt x="560" y="17" on="1"/>
        <pt x="556" y="4" on="0"/>
        <pt x="547" y="0" on="0"/>
        <pt x="529" y="0" on="1"/>
        <pt x="66" y="0" on="1"/>
        <pt x="52" y="0" on="0"/>
        <pt x="39" y="3" on="0"/>
        <pt x="39" y="11" on="1"/>
        <pt x="39" y="26" on="0"/>
        <pt x="53" y="31" on="0"/>
        <pt x="66" y="31" on="1"/>
        <pt x="96" y="31" on="0"/>
        <pt x="129" y="35" on="0"/>
        <pt x="146" y="45" on="0"/>
        <pt x="153" y="63" on="0"/>
        <pt x="157" y="78" on="1"/>
        <pt x="291" y="615" on="1"/>
        <pt x="293" y="624" on="0"/>
        <pt x="295" y="631" on="0"/>
        <pt x="295" y="634" on="1"/>
        <pt x="295" y="644" on="0"/>
        <pt x="282" y="648" on="0"/>
        <pt x="268" y="650" on="1"/>
        <pt x="255" y="652" on="0"/>
        <pt x="232" y="652" on="0"/>
        <pt x="230" y="652" on="1"/>
        <pt x="216" y="652" on="0"/>
        <pt x="202" y="655" on="0"/>
        <pt x="202" y="663" on="1"/>
        <pt x="202" y="678" on="0"/>
        <pt x="216" y="683" on="0"/>
        <pt x="221" y="683" on="1"/>
        <pt x="232" y="683" on="0"/>
        <pt x="268" y="682" on="0"/>
        <pt x="307" y="681" on="0"/>
        <pt x="343" y="680" on="0"/>
        <pt x="354" y="680" on="1"/>
        <pt x="366" y="680" on="0"/>
        <pt x="406" y="681" on="0"/>
        <pt x="450" y="682" on="0"/>
        <pt x="490" y="683" on="0"/>
        <pt x="502" y="683" on="1"/>
        <pt x="506" y="683" on="0"/>
        <pt x="518" y="680" on="0"/>
        <pt x="518" y="671" on="1"/>
        <pt x="518" y="657" on="0"/>
        <pt x="503" y="652" on="0"/>
        <pt x="480" y="652" on="1"/>
        <pt x="445" y="652" on="0"/>
        <pt x="405" y="647" on="0"/>
        <pt x="385" y="637" on="0"/>
        <pt x="377" y="619" on="0"/>
        <pt x="374" y="605" on="1"/>
      </contour>
    </TTGlyph>
    <TTGlyph name="Lambda" xMin="35" yMin="0" xMax="666" yMax="716">
      <contour>
        <pt x="498" y="697" on="1"/>
        <pt x="504" y="707" on="0"/>
        <pt x="514" y="716" on="0"/>
        <pt x="525" y="716" on="1"/>
        <pt x="533" y="716" on="0"/>
        <pt x="542" y="711" on="0"/>
        <pt x="543" y="699" on="1"/>
        <pt x="543" y="697" on="0"/>
        <pt x="544" y="692" on="0"/>
        <pt x="544" y="690" on="1"/>
        <pt x="589" y="68" on="1"/>
        <pt x="590" y="57" on="0"/>
        <pt x="592" y="42" on="0"/>
        <pt x="602" y="34" on="0"/>
        <pt x="623" y="31" on="0"/>
        <pt x="641" y="31" on="1"/>
        <pt x="653" y="31" on="0"/>
        <pt x="666" y="28" on="0"/>
        <pt x="666" y="19" on="1"/>
        <pt x="666" y="5" on="0"/>
        <pt x="652" y="0" on="0"/>
        <pt x="647" y="0" on="1"/>
        <pt x="638" y="0" on="0"/>
        <pt x="609" y="1" on="0"/>
        <pt x="579" y="2" on="0"/>
        <pt x="550" y="3" on="0"/>
        <pt x="541" y="3" on="1"/>
        <pt x="510" y="3" on="0"/>
        <pt x="448" y="0" on="0"/>
        <pt x="418" y="0" on="1"/>
        <pt x="415" y="0" on="0"/>
        <pt x="403" y="3" on="0"/>
        <pt x="403" y="12" on="1"/>
        <pt x="403" y="26" on="0"/>
        <pt x="417" y="31" on="0"/>
        <pt x="426" y="31" on="1"/>
        <pt x="455" y="31" on="0"/>
        <pt x="486" y="40" on="0"/>
        <pt x="499" y="54" on="0"/>
        <pt x="501" y="71" on="0"/>
        <pt x="500" y="79" on="1"/>
        <pt x="463" y="579" on="1"/>
        <pt x="192" y="104" on="1"/>
        <pt x="184" y="91" on="0"/>
        <pt x="178" y="77" on="0"/>
        <pt x="178" y="67" on="1"/>
        <pt x="178" y="46" on="0"/>
        <pt x="212" y="32" on="0"/>
        <pt x="228" y="31" on="1"/>
        <pt x="230" y="31" on="0"/>
        <pt x="242" y="28" on="0"/>
        <pt x="242" y="20" on="1"/>
        <pt x="242" y="5" on="0"/>
        <pt x="228" y="0" on="0"/>
        <pt x="224" y="0" on="1"/>
        <pt x="200" y="0" on="0"/>
        <pt x="150" y="3" on="0"/>
        <pt x="125" y="3" on="1"/>
        <pt x="105" y="3" on="0"/>
        <pt x="66" y="0" on="0"/>
        <pt x="47" y="0" on="1"/>
        <pt x="42" y="0" on="0"/>
        <pt x="35" y="6" on="0"/>
        <pt x="35" y="12" on="1"/>
        <pt x="35" y="25" on="0"/>
        <pt x="47" y="30" on="0"/>
        <pt x="55" y="31" on="1"/>
        <pt x="78" y="33" on="0"/>
        <pt x="111" y="48" on="0"/>
        <pt x="136" y="70" on="0"/>
        <pt x="155" y="99" on="0"/>
        <pt x="164" y="114" on="1"/>
      </contour>
    </TTGlyph>
    <TTGlyph name="M" xMin="42" yMin="0" xMax="1044" yMax="683">
      <contour>
        <pt x="793" y="73" on="1"/>
        <pt x="789" y="59" on="0"/>
        <pt x="788" y="52" on="0"/>
        <pt x="788" y="49" on="1"/>
        <pt x="788" y="35" on="0"/>
        <pt x="825" y="31" on="0"/>
        <pt x="853" y="31" on="1"/>
        <pt x="867" y="31" on="0"/>
        <pt x="881" y="28" on="0"/>
        <pt x="881" y="20" on="1"/>
        <pt x="881" y="5" on="0"/>
        <pt x="867" y="0" on="0"/>
        <pt x="862" y="0" on="1"/>
        <pt x="831" y="0" on="0"/>
        <pt x="768" y="3" on="0"/>
        <pt x="737" y="3" on="1"/>
        <pt x="727" y="3" on="0"/>
        <pt x="693" y="2" on="0"/>
        <pt x="657" y="1" on="0"/>
        <pt x="624" y="0" on="0"/>
        <pt x="613" y="0" on="1"/>
        <pt x="611" y="0" on="0"/>
        <pt x="598" y="3" on="0"/>
        <pt x="598" y="12" on="1"/>
        <pt x="598" y="26" on="0"/>
        <pt x="613" y="31" on="0"/>
        <pt x="626" y="31" on="1"/>
        <pt x="656" y="31" on="0"/>
        <pt x="689" y="35" on="0"/>
        <pt x="706" y="45" on="0"/>
        <pt x="713" y="63" on="0"/>
        <pt x="717" y="78" on="1"/>
        <pt x="860" y="651" on="1"/>
        <pt x="859" y="651" on="1"/>
        <pt x="455" y="18" on="1"/>
        <pt x="451" y="13" on="0"/>
        <pt x="441" y="0" on="0"/>
        <pt x="433" y="0" on="1"/>
        <pt x="424" y="0" on="0"/>
        <pt x="420" y="14" on="0"/>
        <pt x="418" y="23" on="1"/>
        <pt x="332" y="643" on="1"/>
        <pt x="331" y="643" on="1"/>
        <pt x="195" y="98" on="1"/>
        <pt x="191" y="83" on="0"/>
        <pt x="191" y="75" on="1"/>
        <pt x="191" y="58" on="0"/>
        <pt x="216" y="32" on="0"/>
        <pt x="259" y="31" on="1"/>
        <pt x="264" y="31" on="0"/>
        <pt x="277" y="28" on="0"/>
        <pt x="277" y="20" on="1"/>
        <pt x="277" y="5" on="0"/>
        <pt x="263" y="0" on="0"/>
        <pt x="259" y="0" on="1"/>
        <pt x="234" y="0" on="0"/>
        <pt x="182" y="3" on="0"/>
        <pt x="156" y="3" on="1"/>
        <pt x="131" y="3" on="0"/>
        <pt x="80" y="0" on="0"/>
        <pt x="56" y="0" on="1"/>
        <pt x="42" y="0" on="0"/>
        <pt x="42" y="12" on="1"/>
        <pt x="42" y="26" on="0"/>
        <pt x="56" y="31" on="0"/>
        <pt x="60" y="31" on="1"/>
        <pt x="90" y="32" on="0"/>
        <pt x="129" y="45" on="0"/>
        <pt x="152" y="65" on="0"/>
        <pt x="164" y="91" on="0"/>
        <pt x="168" y="106" on="1"/>
        <pt x="295" y="615" on="1"/>
        <pt x="297" y="624" on="0"/>
        <pt x="299" y="631" on="0"/>
        <pt x="299" y="634" on="1"/>
        <pt x="299" y="642" on="0"/>
        <pt x="289" y="648" on="0"/>
        <pt x="277" y="650" on="1"/>
        <pt x="268" y="651" on="0"/>
        <pt x="244" y="652" on="0"/>
        <pt x="234" y="652" on="1"/>
        <pt x="219" y="652" on="0"/>
        <pt x="205" y="655" on="0"/>
        <pt x="205" y="664" on="1"/>
        <pt x="205" y="678" on="0"/>
        <pt x="221" y="683" on="0"/>
        <pt x="235" y="683" on="1"/>
        <pt x="372" y="683" on="1"/>
        <pt x="382" y="683" on="0"/>
        <pt x="393" y="682" on="0"/>
        <pt x="399" y="678" on="0"/>
        <pt x="402" y="669" on="0"/>
        <pt x="403" y="660" on="1"/>
        <pt x="481" y="94" on="1"/>
        <pt x="846" y="664" on="1"/>
        <pt x="855" y="678" on="0"/>
        <pt x="866" y="683" on="0"/>
        <pt x="885" y="683" on="1"/>
        <pt x="1017" y="683" on="1"/>
        <pt x="1030" y="683" on="0"/>
        <pt x="1044" y="680" on="0"/>
        <pt x="1044" y="672" on="1"/>
        <pt x="1044" y="657" on="0"/>
        <pt x="1029" y="652" on="0"/>
        <pt x="1012" y="652" on="1"/>
        <pt x="984" y="652" on="0"/>
        <pt x="953" y="648" on="0"/>
        <pt x="936" y="637" on="0"/>
        <pt x="929" y="620" on="0"/>
        <pt x="926" y="606" on="1"/>
      </contour>
    </TTGlyph>
    <TTGlyph name="N" xMin="39" yMin="0" xMax="881" yMax="683">
      <contour>
        <pt x="616" y="21" on="1"/>
        <pt x="612" y="7" on="0"/>
        <pt x="608" y="0" on="0"/>
        <pt x="600" y="0" on="1"/>
        <pt x="593" y="0" on="0"/>
        <pt x="586" y="6" on="0"/>
        <pt x="581" y="19" on="1"/>
        <pt x="332" y="608" on="1"/>
        <pt x="328" y="616" on="0"/>
        <pt x="326" y="621" on="0"/>
        <pt x="323" y="626" on="1"/>
        <pt x="191" y="98" on="1"/>
        <pt x="187" y="83" on="0"/>
        <pt x="187" y="75" on="1"/>
        <pt x="187" y="68" on="0"/>
        <pt x="191" y="52" on="0"/>
        <pt x="205" y="40" on="0"/>
        <pt x="231" y="32" on="0"/>
        <pt x="253" y="31" on="1"/>
        <pt x="261" y="31" on="0"/>
        <pt x="273" y="28" on="0"/>
        <pt x="273" y="20" on="1"/>
        <pt x="273" y="5" on="0"/>
        <pt x="259" y="0" on="0"/>
        <pt x="255" y="0" on="1"/>
        <pt x="230" y="0" on="0"/>
        <pt x="178" y="3" on="0"/>
        <pt x="152" y="3" on="1"/>
        <pt x="127" y="3" on="0"/>
        <pt x="76" y="0" on="0"/>
        <pt x="52" y="0" on="1"/>
        <pt x="39" y="0" on="0"/>
        <pt x="39" y="11" on="1"/>
        <pt x="39" y="25" on="0"/>
        <pt x="51" y="31" on="0"/>
        <pt x="56" y="31" on="1"/>
        <pt x="86" y="32" on="0"/>
        <pt x="125" y="45" on="0"/>
        <pt x="148" y="65" on="0"/>
        <pt x="160" y="91" on="0"/>
        <pt x="164" y="106" on="1"/>
        <pt x="298" y="643" on="1"/>
        <pt x="298" y="646" on="0"/>
        <pt x="278" y="650" on="0"/>
        <pt x="254" y="652" on="0"/>
        <pt x="232" y="652" on="0"/>
        <pt x="230" y="652" on="1"/>
        <pt x="216" y="652" on="0"/>
        <pt x="202" y="655" on="0"/>
        <pt x="202" y="663" on="1"/>
        <pt x="202" y="678" on="0"/>
        <pt x="216" y="683" on="0"/>
        <pt x="231" y="683" on="1"/>
        <pt x="365" y="683" on="1"/>
        <pt x="382" y="683" on="0"/>
        <pt x="391" y="678" on="0"/>
        <pt x="397" y="664" on="1"/>
        <pt x="618" y="142" on="1"/>
        <pt x="730" y="587" on="1"/>
        <pt x="731" y="589" on="0"/>
        <pt x="733" y="606" on="0"/>
        <pt x="733" y="608" on="1"/>
        <pt x="733" y="625" on="0"/>
        <pt x="708" y="651" on="0"/>
        <pt x="665" y="652" on="1"/>
        <pt x="659" y="652" on="0"/>
        <pt x="647" y="655" on="0"/>
        <pt x="647" y="663" on="1"/>
        <pt x="647" y="678" on="0"/>
        <pt x="660" y="683" on="0"/>
        <pt x="665" y="683" on="1"/>
        <pt x="690" y="683" on="0"/>
        <pt x="741" y="680" on="0"/>
        <pt x="767" y="680" on="1"/>
        <pt x="792" y="680" on="0"/>
        <pt x="843" y="683" on="0"/>
        <pt x="868" y="683" on="1"/>
        <pt x="878" y="683" on="0"/>
        <pt x="881" y="673" on="0"/>
        <pt x="881" y="672" on="1"/>
        <pt x="881" y="658" on="0"/>
        <pt x="868" y="652" on="0"/>
        <pt x="864" y="652" on="1"/>
        <pt x="834" y="651" on="0"/>
        <pt x="796" y="639" on="0"/>
        <pt x="772" y="619" on="0"/>
        <pt x="760" y="593" on="0"/>
        <pt x="756" y="578" on="1"/>
      </contour>
    </TTGlyph>
    <TTGlyph name="O" xMin="49" yMin="-22" xMax="740" yMax="705">
      <contour>
        <pt x="740" y="436" on="1"/>
        <pt x="740" y="346" on="0"/>
        <pt x="664" y="181" on="0"/>
        <pt x="540" y="54" on="0"/>
        <pt x="385" y="-22" on="0"/>
        <pt x="305" y="-22" on="1"/>
        <pt x="251" y="-22" on="0"/>
        <pt x="158" y="15" on="0"/>
        <pt x="89" y="84" on="0"/>
        <pt x="49" y="183" on="0"/>
        <pt x="49" y="245" on="1"/>
        <pt x="49" y="303" on="0"/>
        <pt x="84" y="417" on="0"/>
        <pt x="144" y="519" on="0"/>
        <pt x="228" y="606" on="0"/>
        <pt x="324" y="669" on="0"/>
        <pt x="431" y="705" on="0"/>
        <pt x="485" y="705" on="1"/>
        <pt x="541" y="705" on="0"/>
        <pt x="635" y="666" on="0"/>
        <pt x="702" y="596" on="0"/>
        <pt x="740" y="496" on="0"/>
      </contour>
      <contour>
        <pt x="311" y="4" on="1"/>
        <pt x="343" y="4" on="0"/>
        <pt x="404" y="24" on="0"/>
        <pt x="459" y="58" on="0"/>
        <pt x="507" y="101" on="0"/>
        <pt x="525" y="124" on="1"/>
        <pt x="562" y="170" on="0"/>
        <pt x="611" y="271" on="0"/>
        <pt x="639" y="366" on="0"/>
        <pt x="651" y="448" on="0"/>
        <pt x="651" y="475" on="1"/>
        <pt x="651" y="531" on="0"/>
        <pt x="620" y="609" on="0"/>
        <pt x="571" y="658" on="0"/>
        <pt x="510" y="680" on="0"/>
        <pt x="479" y="680" on="1"/>
        <pt x="449" y="680" on="0"/>
        <pt x="385" y="661" on="0"/>
        <pt x="320" y="622" on="0"/>
        <pt x="259" y="563" on="0"/>
        <pt x="233" y="524" on="1"/>
        <pt x="204" y="480" on="0"/>
        <pt x="168" y="386" on="0"/>
        <pt x="149" y="301" on="0"/>
        <pt x="142" y="234" on="0"/>
        <pt x="142" y="217" on="1"/>
        <pt x="142" y="168" on="0"/>
        <pt x="167" y="89" on="0"/>
        <pt x="212" y="33" on="0"/>
        <pt x="274" y="4" on="0"/>
      </contour>
    </TTGlyph>
    <TTGlyph name="P" xMin="40" yMin="0" xMax="754" yMax="683">
      <contour>
        <pt x="241" y="66" on="1"/>
        <pt x="240" y="61" on="0"/>
        <pt x="238" y="54" on="0"/>
        <pt x="238" y="49" on="1"/>
        <pt x="238" y="35" on="0"/>
        <pt x="275" y="31" on="0"/>
        <pt x="303" y="31" on="1"/>
        <pt x="317" y="31" on="0"/>
        <pt x="331" y="28" on="0"/>
        <pt x="331" y="20" on="1"/>
        <pt x="331" y="5" on="0"/>
        <pt x="316" y="0" on="0"/>
        <pt x="311" y="0" on="1"/>
        <pt x="295" y="0" on="0"/>
        <pt x="263" y="2" on="0"/>
        <pt x="246" y="2" on="1"/>
        <pt x="230" y="2" on="0"/>
        <pt x="198" y="3" on="0"/>
        <pt x="182" y="3" on="1"/>
        <pt x="172" y="3" on="0"/>
        <pt x="137" y="2" on="0"/>
        <pt x="100" y="1" on="0"/>
        <pt x="66" y="0" on="0"/>
        <pt x="55" y="0" on="1"/>
        <pt x="53" y="0" on="0"/>
        <pt x="40" y="3" on="0"/>
        <pt x="40" y="12" on="1"/>
        <pt x="40" y="26" on="0"/>
        <pt x="55" y="31" on="0"/>
        <pt x="68" y="31" on="1"/>
        <pt x="98" y="31" on="0"/>
        <pt x="131" y="35" on="0"/>
        <pt x="148" y="45" on="0"/>
        <pt x="155" y="63" on="0"/>
        <pt x="159" y="78" on="1"/>
        <pt x="293" y="615" on="1"/>
        <pt x="295" y="624" on="0"/>
        <pt x="297" y="631" on="0"/>
        <pt x="297" y="634" on="1"/>
        <pt x="297" y="642" on="0"/>
        <pt x="287" y="648" on="0"/>
        <pt x="275" y="650" on="1"/>
        <pt x="266" y="651" on="0"/>
        <pt x="242" y="652" on="0"/>
        <pt x="232" y="652" on="1"/>
        <pt x="217" y="652" on="0"/>
        <pt x="203" y="655" on="0"/>
        <pt x="203" y="664" on="1"/>
        <pt x="203" y="678" on="0"/>
        <pt x="219" y="683" on="0"/>
        <pt x="233" y="683" on="1"/>
        <pt x="557" y="683" on="1"/>
        <pt x="606" y="683" on="0"/>
        <pt x="680" y="657" on="0"/>
        <pt x="729" y="615" on="0"/>
        <pt x="754" y="561" on="0"/>
        <pt x="754" y="532" on="1"/>
        <pt x="754" y="490" on="0"/>
        <pt x="706" y="412" on="0"/>
        <pt x="627" y="352" on="0"/>
        <pt x="526" y="316" on="0"/>
        <pt x="473" y="316" on="1"/>
        <pt x="303" y="316" on="1"/>
      </contour>
      <contour>
        <pt x="307" y="342" on="1"/>
        <pt x="448" y="342" on="1"/>
        <pt x="481" y="342" on="0"/>
        <pt x="564" y="361" on="0"/>
        <pt x="602" y="395" on="1"/>
        <pt x="617" y="409" on="0"/>
        <pt x="639" y="451" on="0"/>
        <pt x="654" y="498" on="0"/>
        <pt x="661" y="541" on="0"/>
        <pt x="661" y="556" on="1"/>
        <pt x="661" y="608" on="0"/>
        <pt x="588" y="652" on="0"/>
        <pt x="525" y="652" on="1"/>
        <pt x="429" y="652" on="1"/>
        <pt x="413" y="652" on="0"/>
        <pt x="395" y="650" on="0"/>
        <pt x="384" y="642" on="0"/>
        <pt x="378" y="627" on="0"/>
        <pt x="375" y="614" on="1"/>
      </contour>
    </TTGlyph>
    <TTGlyph name="Phi" xMin="23" yMin="0" xMax="643" yMax="683">
      <contour>
        <pt x="424" y="548" on="1"/>
        <pt x="475" y="544" on="0"/>
        <pt x="556" y="513" on="0"/>
        <pt x="613" y="467" on="0"/>
        <pt x="643" y="408" on="0"/>
        <pt x="643" y="376" on="1"/>
        <pt x="643" y="334" on="0"/>
        <pt x="593" y="252" on="0"/>
        <pt x="506" y="185" on="0"/>
        <pt x="389" y="140" on="0"/>
        <pt x="321" y="135" on="1"/>
        <pt x="318" y="125" on="0"/>
        <pt x="312" y="99" on="0"/>
        <pt x="306" y="74" on="0"/>
        <pt x="302" y="56" on="0"/>
        <pt x="302" y="53" on="1"/>
        <pt x="302" y="43" on="0"/>
        <pt x="312" y="35" on="0"/>
        <pt x="334" y="33" on="1"/>
        <pt x="343" y="32" on="0"/>
        <pt x="356" y="31" on="0"/>
        <pt x="366" y="31" on="0"/>
        <pt x="378" y="31" on="0"/>
        <pt x="386" y="31" on="1"/>
        <pt x="403" y="31" on="0"/>
        <pt x="412" y="31" on="0"/>
        <pt x="414" y="30" on="1"/>
        <pt x="414" y="29" on="0"/>
        <pt x="420" y="25" on="0"/>
        <pt x="420" y="19" on="1"/>
        <pt x="420" y="5" on="0"/>
        <pt x="406" y="0" on="0"/>
        <pt x="399" y="0" on="1"/>
        <pt x="386" y="0" on="0"/>
        <pt x="345" y="1" on="0"/>
        <pt x="302" y="2" on="0"/>
        <pt x="261" y="3" on="0"/>
        <pt x="248" y="3" on="1"/>
        <pt x="230" y="3" on="0"/>
        <pt x="194" y="2" on="0"/>
        <pt x="176" y="2" on="1"/>
        <pt x="157" y="2" on="0"/>
        <pt x="119" y="0" on="0"/>
        <pt x="100" y="0" on="1"/>
        <pt x="97" y="0" on="0"/>
        <pt x="84" y="3" on="0"/>
        <pt x="84" y="11" on="1"/>
        <pt x="84" y="26" on="0"/>
        <pt x="99" y="31" on="0"/>
        <pt x="121" y="31" on="1"/>
        <pt x="157" y="31" on="0"/>
        <pt x="197" y="35" on="0"/>
        <pt x="218" y="47" on="0"/>
        <pt x="226" y="68" on="0"/>
        <pt x="230" y="85" on="1"/>
        <pt x="242" y="135" on="1"/>
        <pt x="194" y="138" on="0"/>
        <pt x="114" y="167" on="0"/>
        <pt x="56" y="213" on="0"/>
        <pt x="23" y="273" on="0"/>
        <pt x="23" y="307" on="1"/>
        <pt x="23" y="351" on="0"/>
        <pt x="75" y="433" on="0"/>
        <pt x="164" y="499" on="0"/>
        <pt x="281" y="543" on="0"/>
        <pt x="346" y="548" on="1"/>
        <pt x="356" y="587" on="1"/>
        <pt x="358" y="598" on="0"/>
        <pt x="365" y="626" on="0"/>
        <pt x="365" y="630" on="1"/>
        <pt x="365" y="640" on="0"/>
        <pt x="355" y="648" on="0"/>
        <pt x="333" y="650" on="1"/>
        <pt x="324" y="651" on="0"/>
        <pt x="312" y="652" on="0"/>
        <pt x="301" y="652" on="0"/>
        <pt x="289" y="652" on="0"/>
        <pt x="281" y="652" on="1"/>
        <pt x="261" y="652" on="0"/>
        <pt x="247" y="655" on="0"/>
        <pt x="247" y="663" on="1"/>
        <pt x="247" y="678" on="0"/>
        <pt x="261" y="683" on="0"/>
        <pt x="268" y="683" on="1"/>
        <pt x="286" y="683" on="0"/>
        <pt x="323" y="681" on="0"/>
        <pt x="341" y="681" on="1"/>
        <pt x="491" y="681" on="1"/>
        <pt x="510" y="681" on="0"/>
        <pt x="548" y="683" on="0"/>
        <pt x="567" y="683" on="1"/>
        <pt x="571" y="683" on="0"/>
        <pt x="583" y="680" on="0"/>
        <pt x="583" y="671" on="1"/>
        <pt x="583" y="657" on="0"/>
        <pt x="568" y="652" on="0"/>
        <pt x="546" y="652" on="1"/>
        <pt x="510" y="652" on="0"/>
        <pt x="471" y="648" on="0"/>
        <pt x="450" y="636" on="0"/>
        <pt x="441" y="616" on="0"/>
        <pt x="437" y="600" on="1"/>
      </contour>
      <contour>
        <pt x="340" y="526" on="1"/>
        <pt x="267" y="518" on="0"/>
        <pt x="178" y="457" on="0"/>
        <pt x="130" y="381" on="0"/>
        <pt x="114" y="306" on="0"/>
        <pt x="114" y="284" on="1"/>
        <pt x="114" y="253" on="0"/>
        <pt x="135" y="208" on="0"/>
        <pt x="171" y="178" on="0"/>
        <pt x="220" y="161" on="0"/>
        <pt x="248" y="157" on="1"/>
      </contour>
      <contour>
        <pt x="327" y="157" on="1"/>
        <pt x="381" y="164" on="0"/>
        <pt x="457" y="202" on="0"/>
        <pt x="507" y="251" on="0"/>
        <pt x="535" y="306" on="0"/>
        <pt x="549" y="355" on="0"/>
        <pt x="552" y="392" on="0"/>
        <pt x="552" y="399" on="1"/>
        <pt x="552" y="429" on="0"/>
        <pt x="531" y="474" on="0"/>
        <pt x="495" y="505" on="0"/>
        <pt x="447" y="523" on="0"/>
        <pt x="419" y="526" on="1"/>
      </contour>
    </TTGlyph>
    <TTGlyph name="Pi" xMin="39" yMin="0" xMax="880" yMax="680">
      <contour>
        <pt x="628" y="66" on="1"/>
        <pt x="627" y="61" on="0"/>
        <pt x="625" y="54" on="0"/>
        <pt x="625" y="49" on="1"/>
        <pt x="625" y="35" on="0"/>
        <pt x="662" y="31" on="0"/>
        <pt x="690" y="31" on="1"/>
        <pt x="704" y="31" on="0"/>
        <pt x="718" y="28" on="0"/>
        <pt x="718" y="20" on="1"/>
        <pt x="718" y="5" on="0"/>
        <pt x="704" y="0" on="0"/>
        <pt x="698" y="0" on="1"/>
        <pt x="682" y="0" on="0"/>
        <pt x="650" y="2" on="0"/>
        <pt x="633" y="2" on="1"/>
        <pt x="617" y="2" on="0"/>
        <pt x="585" y="3" on="0"/>
        <pt x="569" y="3" on="1"/>
        <pt x="559" y="3" on="0"/>
        <pt x="524" y="2" on="0"/>
        <pt x="487" y="1" on="0"/>
        <pt x="453" y="0" on="0"/>
        <pt x="442" y="0" on="1"/>
        <pt x="440" y="0" on="0"/>
        <pt x="428" y="3" on="0"/>
        <pt x="428" y="11" on="1"/>
        <pt x="428" y="26" on="0"/>
        <pt x="441" y="31" on="0"/>
        <pt x="455" y="31" on="1"/>
        <pt x="485" y="31" on="0"/>
        <pt x="518" y="35" on="0"/>
        <pt x="535" y="45" on="0"/>
        <pt x="542" y="63" on="0"/>
        <pt x="546" y="78" on="1"/>
        <pt x="689" y="649" on="1"/>
        <pt x="384" y="649" on="1"/>
        <pt x="239" y="66" on="1"/>
        <pt x="238" y="61" on="0"/>
        <pt x="236" y="54" on="0"/>
        <pt x="236" y="49" on="1"/>
        <pt x="236" y="35" on="0"/>
        <pt x="273" y="31" on="0"/>
        <pt x="301" y="31" on="1"/>
        <pt x="315" y="31" on="0"/>
        <pt x="329" y="28" on="0"/>
        <pt x="329" y="20" on="1"/>
        <pt x="329" y="5" on="0"/>
        <pt x="315" y="0" on="0"/>
        <pt x="309" y="0" on="1"/>
        <pt x="293" y="0" on="0"/>
        <pt x="261" y="2" on="0"/>
        <pt x="244" y="2" on="1"/>
        <pt x="228" y="2" on="0"/>
        <pt x="196" y="3" on="0"/>
        <pt x="180" y="3" on="1"/>
        <pt x="170" y="3" on="0"/>
        <pt x="135" y="2" on="0"/>
        <pt x="98" y="1" on="0"/>
        <pt x="64" y="0" on="0"/>
        <pt x="53" y="0" on="1"/>
        <pt x="51" y="0" on="0"/>
        <pt x="39" y="3" on="0"/>
        <pt x="39" y="11" on="1"/>
        <pt x="39" y="26" on="0"/>
        <pt x="52" y="31" on="0"/>
        <pt x="66" y="31" on="1"/>
        <pt x="96" y="31" on="0"/>
        <pt x="129" y="35" on="0"/>
        <pt x="146" y="45" on="0"/>
        <pt x="153" y="63" on="0"/>
        <pt x="157" y="78" on="1"/>
        <pt x="291" y="614" on="1"/>
        <pt x="292" y="619" on="0"/>
        <pt x="294" y="626" on="0"/>
        <pt x="294" y="631" on="1"/>
        <pt x="294" y="645" on="0"/>
        <pt x="257" y="649" on="0"/>
        <pt x="229" y="649" on="1"/>
        <pt x="215" y="649" on="0"/>
        <pt x="201" y="652" on="0"/>
        <pt x="201" y="660" on="1"/>
        <pt x="201" y="675" on="0"/>
        <pt x="216" y="680" on="0"/>
        <pt x="231" y="680" on="1"/>
        <pt x="853" y="680" on="1"/>
        <pt x="867" y="680" on="0"/>
        <pt x="880" y="677" on="0"/>
        <pt x="880" y="669" on="1"/>
        <pt x="880" y="654" on="0"/>
        <pt x="867" y="649" on="0"/>
        <pt x="853" y="649" on="1"/>
        <pt x="823" y="649" on="0"/>
        <pt x="790" y="645" on="0"/>
        <pt x="773" y="635" on="0"/>
        <pt x="766" y="617" on="0"/>
        <pt x="762" y="602" on="1"/>
      </contour>
    </TTGlyph>
    <TTGlyph name="Psi" xMin="27" yMin="0" xMax="693" yMax="683">
      <contour>
        <pt x="304" y="160" on="1"/>
        <pt x="359" y="172" on="0"/>
        <pt x="433" y="237" on="0"/>
        <pt x="480" y="315" on="0"/>
        <pt x="505" y="390" on="0"/>
        <pt x="511" y="413" on="1"/>
        <pt x="525" y="466" on="0"/>
        <pt x="560" y="523" on="0"/>
        <pt x="594" y="550" on="0"/>
        <pt x="626" y="554" on="0"/>
        <pt x="638" y="554" on="1"/>
        <pt x="666" y="554" on="1"/>
        <pt x="680" y="554" on="0"/>
        <pt x="693" y="551" on="0"/>
        <pt x="693" y="543" on="1"/>
        <pt x="693" y="536" on="0"/>
        <pt x="684" y="533" on="0"/>
        <pt x="680" y="532" on="1"/>
        <pt x="645" y="527" on="0"/>
        <pt x="604" y="463" on="0"/>
        <pt x="587" y="403" on="1"/>
        <pt x="553" y="278" on="0"/>
        <pt x="405" y="146" on="0"/>
        <pt x="298" y="135" on="1"/>
        <pt x="295" y="125" on="0"/>
        <pt x="289" y="99" on="0"/>
        <pt x="283" y="74" on="0"/>
        <pt x="279" y="56" on="0"/>
        <pt x="279" y="53" on="1"/>
        <pt x="279" y="43" on="0"/>
        <pt x="289" y="35" on="0"/>
        <pt x="311" y="33" on="1"/>
        <pt x="320" y="32" on="0"/>
        <pt x="333" y="31" on="0"/>
        <pt x="343" y="31" on="0"/>
        <pt x="355" y="31" on="0"/>
        <pt x="363" y="31" on="1"/>
        <pt x="380" y="31" on="0"/>
        <pt x="389" y="31" on="0"/>
        <pt x="391" y="30" on="1"/>
        <pt x="391" y="29" on="0"/>
        <pt x="397" y="25" on="0"/>
        <pt x="397" y="19" on="1"/>
        <pt x="397" y="5" on="0"/>
        <pt x="383" y="0" on="0"/>
        <pt x="376" y="0" on="1"/>
        <pt x="363" y="0" on="0"/>
        <pt x="322" y="1" on="0"/>
        <pt x="279" y="2" on="0"/>
        <pt x="238" y="3" on="0"/>
        <pt x="225" y="3" on="1"/>
        <pt x="207" y="3" on="0"/>
        <pt x="171" y="2" on="0"/>
        <pt x="153" y="2" on="1"/>
        <pt x="134" y="2" on="0"/>
        <pt x="96" y="0" on="0"/>
        <pt x="77" y="0" on="1"/>
        <pt x="74" y="0" on="0"/>
        <pt x="61" y="3" on="0"/>
        <pt x="61" y="11" on="1"/>
        <pt x="61" y="26" on="0"/>
        <pt x="76" y="31" on="0"/>
        <pt x="98" y="31" on="1"/>
        <pt x="134" y="31" on="0"/>
        <pt x="174" y="35" on="0"/>
        <pt x="195" y="47" on="0"/>
        <pt x="204" y="69" on="0"/>
        <pt x="208" y="87" on="1"/>
        <pt x="210" y="93" on="0"/>
        <pt x="211" y="100" on="0"/>
        <pt x="213" y="110" on="0"/>
        <pt x="216" y="124" on="0"/>
        <pt x="219" y="136" on="1"/>
        <pt x="131" y="147" on="0"/>
        <pt x="53" y="247" on="0"/>
        <pt x="53" y="320" on="1"/>
        <pt x="53" y="349" on="0"/>
        <pt x="63" y="401" on="0"/>
        <pt x="66" y="415" on="1"/>
        <pt x="71" y="435" on="0"/>
        <pt x="75" y="468" on="0"/>
        <pt x="75" y="476" on="1"/>
        <pt x="75" y="496" on="0"/>
        <pt x="67" y="518" on="0"/>
        <pt x="57" y="529" on="0"/>
        <pt x="45" y="532" on="0"/>
        <pt x="40" y="532" on="1"/>
        <pt x="37" y="532" on="0"/>
        <pt x="27" y="535" on="0"/>
        <pt x="27" y="543" on="1"/>
        <pt x="27" y="551" on="0"/>
        <pt x="41" y="554" on="0"/>
        <pt x="55" y="554" on="1"/>
        <pt x="83" y="554" on="1"/>
        <pt x="92" y="554" on="0"/>
        <pt x="116" y="552" on="0"/>
        <pt x="138" y="537" on="0"/>
        <pt x="153" y="505" on="0"/>
        <pt x="153" y="476" on="1"/>
        <pt x="153" y="459" on="0"/>
        <pt x="147" y="423" on="0"/>
        <pt x="143" y="405" on="1"/>
        <pt x="135" y="374" on="0"/>
        <pt x="128" y="324" on="0"/>
        <pt x="128" y="301" on="1"/>
        <pt x="128" y="291" on="0"/>
        <pt x="131" y="250" on="0"/>
        <pt x="149" y="205" on="0"/>
        <pt x="189" y="166" on="0"/>
        <pt x="226" y="159" on="1"/>
        <pt x="338" y="609" on="1"/>
        <pt x="340" y="615" on="0"/>
        <pt x="342" y="625" on="0"/>
        <pt x="342" y="630" on="1"/>
        <pt x="342" y="640" on="0"/>
        <pt x="332" y="648" on="0"/>
        <pt x="310" y="650" on="1"/>
        <pt x="301" y="651" on="0"/>
        <pt x="289" y="652" on="0"/>
        <pt x="278" y="652" on="0"/>
        <pt x="266" y="652" on="0"/>
        <pt x="258" y="652" on="1"/>
        <pt x="238" y="652" on="0"/>
        <pt x="224" y="655" on="0"/>
        <pt x="224" y="663" on="1"/>
        <pt x="224" y="678" on="0"/>
        <pt x="238" y="683" on="0"/>
        <pt x="245" y="683" on="1"/>
        <pt x="263" y="683" on="0"/>
        <pt x="300" y="681" on="0"/>
        <pt x="318" y="681" on="1"/>
        <pt x="468" y="681" on="1"/>
        <pt x="487" y="681" on="0"/>
        <pt x="525" y="683" on="0"/>
        <pt x="544" y="683" on="1"/>
        <pt x="548" y="683" on="0"/>
        <pt x="560" y="680" on="0"/>
        <pt x="560" y="671" on="1"/>
        <pt x="560" y="657" on="0"/>
        <pt x="545" y="652" on="0"/>
        <pt x="522" y="652" on="1"/>
        <pt x="487" y="652" on="0"/>
        <pt x="447" y="647" on="0"/>
        <pt x="427" y="637" on="0"/>
        <pt x="419" y="619" on="0"/>
        <pt x="416" y="605" on="1"/>
      </contour>
    </TTGlyph>
    <TTGlyph name="Q" xMin="49" yMin="-194" xMax="740" yMax="705">
      <contour>
        <pt x="438" y="6" on="1"/>
        <pt x="446" y="-51" on="0"/>
        <pt x="474" y="-97" on="0"/>
        <pt x="509" y="-97" on="1"/>
        <pt x="522" y="-97" on="0"/>
        <pt x="555" y="-87" on="0"/>
        <pt x="588" y="-64" on="0"/>
        <pt x="617" y="-28" on="0"/>
        <pt x="626" y="-1" on="1"/>
        <pt x="628" y="4" on="0"/>
        <pt x="632" y="10" on="0"/>
        <pt x="638" y="10" on="1"/>
        <pt x="641" y="10" on="0"/>
        <pt x="649" y="5" on="0"/>
        <pt x="649" y="0" on="1"/>
        <pt x="649" y="-3" on="0"/>
        <pt x="641" y="-34" on="0"/>
        <pt x="624" y="-77" on="0"/>
        <pt x="597" y="-126" on="0"/>
        <pt x="560" y="-167" on="0"/>
        <pt x="512" y="-194" on="0"/>
        <pt x="482" y="-194" on="1"/>
        <pt x="451" y="-194" on="0"/>
        <pt x="417" y="-169" on="0"/>
        <pt x="402" y="-133" on="0"/>
        <pt x="399" y="-96" on="0"/>
        <pt x="399" y="-84" on="1"/>
        <pt x="399" y="-79" on="0"/>
        <pt x="399" y="-71" on="0"/>
        <pt x="400" y="-56" on="0"/>
        <pt x="402" y="-30" on="0"/>
        <pt x="403" y="-7" on="1"/>
        <pt x="374" y="-15" on="0"/>
        <pt x="324" y="-22" on="0"/>
        <pt x="305" y="-22" on="1"/>
        <pt x="251" y="-22" on="0"/>
        <pt x="158" y="15" on="0"/>
        <pt x="89" y="84" on="0"/>
        <pt x="49" y="183" on="0"/>
        <pt x="49" y="245" on="1"/>
        <pt x="49" y="303" on="0"/>
        <pt x="84" y="417" on="0"/>
        <pt x="144" y="519" on="0"/>
        <pt x="228" y="606" on="0"/>
        <pt x="324" y="669" on="0"/>
        <pt x="431" y="705" on="0"/>
        <pt x="485" y="705" on="1"/>
        <pt x="541" y="705" on="0"/>
        <pt x="635" y="666" on="0"/>
        <pt x="702" y="596" on="0"/>
        <pt x="740" y="496" on="0"/>
        <pt x="740" y="436" on="1"/>
        <pt x="740" y="364" on="0"/>
        <pt x="689" y="228" on="0"/>
        <pt x="605" y="114" on="0"/>
        <pt x="496" y="28" on="0"/>
      </contour>
      <contour>
        <pt x="249" y="14" on="1"/>
        <pt x="249" y="15" on="0"/>
        <pt x="243" y="31" on="0"/>
        <pt x="243" y="46" on="1"/>
        <pt x="243" y="66" on="0"/>
        <pt x="260" y="102" on="0"/>
        <pt x="288" y="131" on="0"/>
        <pt x="325" y="148" on="0"/>
        <pt x="345" y="148" on="1"/>
        <pt x="372" y="148" on="0"/>
        <pt x="405" y="124" on="0"/>
        <pt x="424" y="90" on="0"/>
        <pt x="431" y="53" on="0"/>
        <pt x="433" y="40" on="1"/>
        <pt x="475" y="64" on="0"/>
        <pt x="540" y="131" on="0"/>
        <pt x="589" y="210" on="0"/>
        <pt x="622" y="294" on="0"/>
        <pt x="643" y="373" on="0"/>
        <pt x="652" y="443" on="0"/>
        <pt x="652" y="468" on="1"/>
        <pt x="652" y="518" on="0"/>
        <pt x="626" y="597" on="0"/>
        <pt x="580" y="651" on="0"/>
        <pt x="517" y="680" on="0"/>
        <pt x="479" y="680" on="1"/>
        <pt x="424" y="680" on="0"/>
        <pt x="294" y="609" on="0"/>
        <pt x="239" y="532" on="1"/>
        <pt x="211" y="492" on="0"/>
        <pt x="172" y="401" on="0"/>
        <pt x="148" y="315" on="0"/>
        <pt x="137" y="239" on="0"/>
        <pt x="137" y="213" on="1"/>
        <pt x="137" y="179" on="0"/>
        <pt x="150" y="117" on="0"/>
        <pt x="177" y="65" on="0"/>
        <pt x="220" y="26" on="0"/>
      </contour>
      <contour>
        <pt x="311" y="3" on="1"/>
        <pt x="332" y="3" on="0"/>
        <pt x="375" y="13" on="0"/>
        <pt x="395" y="21" on="1"/>
        <pt x="403" y="24" on="0"/>
        <pt x="406" y="30" on="0"/>
        <pt x="406" y="41" on="1"/>
        <pt x="406" y="87" on="0"/>
        <pt x="377" y="126" on="0"/>
        <pt x="345" y="126" on="1"/>
        <pt x="329" y="126" on="0"/>
        <pt x="300" y="112" on="0"/>
        <pt x="278" y="90" on="0"/>
        <pt x="265" y="61" on="0"/>
        <pt x="265" y="46" on="1"/>
        <pt x="265" y="30" on="0"/>
        <pt x="275" y="12" on="0"/>
        <pt x="290" y="4" on="0"/>
        <pt x="306" y="3" on="0"/>
      </contour>
    </TTGlyph>
    <TTGlyph name="R" xMin="41" yMin="-22" xMax="755" yMax="683">
      <contour>
        <pt x="310" y="353" on="1"/>
        <pt x="422" y="353" on="1"/>
        <pt x="456" y="353" on="0"/>
        <pt x="510" y="364" on="0"/>
        <pt x="551" y="381" on="0"/>
        <pt x="581" y="401" on="0"/>
        <pt x="591" y="411" on="1"/>
        <pt x="606" y="426" on="0"/>
        <pt x="626" y="464" on="0"/>
        <pt x="640" y="504" on="0"/>
        <pt x="646" y="540" on="0"/>
        <pt x="646" y="553" on="1"/>
        <pt x="646" y="590" on="0"/>
        <pt x="609" y="630" on="0"/>
        <pt x="554" y="649" on="0"/>
        <pt x="491" y="652" on="0"/>
        <pt x="464" y="652" on="1"/>
        <pt x="449" y="652" on="0"/>
        <pt x="410" y="652" on="0"/>
        <pt x="403" y="651" on="1"/>
        <pt x="389" y="649" on="0"/>
        <pt x="380" y="632" on="0"/>
        <pt x="375" y="614" on="1"/>
      </contour>
      <contour>
        <pt x="519" y="340" on="1"/>
        <pt x="529" y="336" on="0"/>
        <pt x="561" y="320" on="0"/>
        <pt x="591" y="292" on="0"/>
        <pt x="613" y="251" on="0"/>
        <pt x="613" y="222" on="1"/>
        <pt x="613" y="211" on="0"/>
        <pt x="611" y="186" on="0"/>
        <pt x="609" y="175" on="1"/>
        <pt x="608" y="163" on="0"/>
        <pt x="604" y="133" on="0"/>
        <pt x="601" y="102" on="0"/>
        <pt x="599" y="73" on="0"/>
        <pt x="599" y="61" on="1"/>
        <pt x="599" y="32" on="0"/>
        <pt x="614" y="0" on="0"/>
        <pt x="639" y="0" on="1"/>
        <pt x="648" y="0" on="0"/>
        <pt x="671" y="8" on="0"/>
        <pt x="696" y="28" on="0"/>
        <pt x="721" y="63" on="0"/>
        <pt x="730" y="91" on="1"/>
        <pt x="732" y="96" on="0"/>
        <pt x="736" y="105" on="0"/>
        <pt x="743" y="105" on="1"/>
        <pt x="744" y="105" on="0"/>
        <pt x="755" y="102" on="0"/>
        <pt x="755" y="93" on="1"/>
        <pt x="755" y="88" on="0"/>
        <pt x="741" y="51" on="0"/>
        <pt x="712" y="10" on="0"/>
        <pt x="667" y="-22" on="0"/>
        <pt x="635" y="-22" on="1"/>
        <pt x="630" y="-22" on="0"/>
        <pt x="587" y="-19" on="0"/>
        <pt x="540" y="2" on="0"/>
        <pt x="502" y="46" on="0"/>
        <pt x="502" y="86" on="1"/>
        <pt x="502" y="101" on="0"/>
        <pt x="513" y="150" on="0"/>
        <pt x="518" y="171" on="1"/>
        <pt x="523" y="188" on="0"/>
        <pt x="532" y="229" on="0"/>
        <pt x="532" y="240" on="1"/>
        <pt x="532" y="253" on="0"/>
        <pt x="524" y="285" on="0"/>
        <pt x="500" y="312" on="0"/>
        <pt x="457" y="331" on="0"/>
        <pt x="423" y="331" on="1"/>
        <pt x="304" y="331" on="1"/>
        <pt x="238" y="66" on="1"/>
        <pt x="237" y="61" on="0"/>
        <pt x="235" y="54" on="0"/>
        <pt x="235" y="49" on="1"/>
        <pt x="235" y="35" on="0"/>
        <pt x="272" y="31" on="0"/>
        <pt x="300" y="31" on="1"/>
        <pt x="314" y="31" on="0"/>
        <pt x="328" y="28" on="0"/>
        <pt x="328" y="20" on="1"/>
        <pt x="328" y="5" on="0"/>
        <pt x="314" y="0" on="0"/>
        <pt x="308" y="0" on="1"/>
        <pt x="298" y="0" on="0"/>
        <pt x="263" y="1" on="0"/>
        <pt x="226" y="2" on="0"/>
        <pt x="192" y="3" on="0"/>
        <pt x="181" y="3" on="1"/>
        <pt x="171" y="3" on="0"/>
        <pt x="136" y="2" on="0"/>
        <pt x="100" y="1" on="0"/>
        <pt x="66" y="0" on="0"/>
        <pt x="55" y="0" on="1"/>
        <pt x="53" y="0" on="0"/>
        <pt x="41" y="3" on="0"/>
        <pt x="41" y="11" on="1"/>
        <pt x="41" y="26" on="0"/>
        <pt x="54" y="31" on="0"/>
        <pt x="68" y="31" on="1"/>
        <pt x="98" y="31" on="0"/>
        <pt x="131" y="35" on="0"/>
        <pt x="148" y="45" on="0"/>
        <pt x="155" y="63" on="0"/>
        <pt x="159" y="78" on="1"/>
        <pt x="293" y="615" on="1"/>
        <pt x="295" y="624" on="0"/>
        <pt x="297" y="631" on="0"/>
        <pt x="297" y="634" on="1"/>
        <pt x="297" y="644" on="0"/>
        <pt x="284" y="648" on="0"/>
        <pt x="270" y="650" on="1"/>
        <pt x="257" y="652" on="0"/>
        <pt x="234" y="652" on="0"/>
        <pt x="232" y="652" on="1"/>
        <pt x="218" y="652" on="0"/>
        <pt x="204" y="655" on="0"/>
        <pt x="204" y="663" on="1"/>
        <pt x="204" y="678" on="0"/>
        <pt x="218" y="683" on="0"/>
        <pt x="233" y="683" on="1"/>
        <pt x="518" y="683" on="1"/>
        <pt x="567" y="683" on="0"/>
        <pt x="648" y="660" on="0"/>
        <pt x="707" y="620" on="0"/>
        <pt x="739" y="565" on="0"/>
        <pt x="739" y="533" on="1"/>
        <pt x="739" y="495" on="0"/>
        <pt x="699" y="432" on="0"/>
        <pt x="635" y="382" on="0"/>
        <pt x="557" y="348" on="0"/>
      </contour>
    </TTGlyph>
    <TTGlyph name="S" xMin="52" yMin="-22" xMax="645" yMax="705">
      <contour>
        <pt x="591" y="476" on="1"/>
        <pt x="588" y="463" on="0"/>
        <pt x="584" y="456" on="0"/>
        <pt x="576" y="456" on="1"/>
        <pt x="567" y="456" on="0"/>
        <pt x="564" y="465" on="0"/>
        <pt x="564" y="466" on="1"/>
        <pt x="564" y="471" on="0"/>
        <pt x="568" y="498" on="0"/>
        <pt x="568" y="522" on="1"/>
        <pt x="568" y="564" on="0"/>
        <pt x="546" y="623" on="0"/>
        <pt x="508" y="660" on="0"/>
        <pt x="455" y="677" on="0"/>
        <pt x="424" y="677" on="1"/>
        <pt x="388" y="677" on="0"/>
        <pt x="325" y="648" on="0"/>
        <pt x="277" y="601" on="0"/>
        <pt x="249" y="541" on="0"/>
        <pt x="249" y="511" on="1"/>
        <pt x="249" y="491" on="0"/>
        <pt x="260" y="460" on="0"/>
        <pt x="278" y="438" on="0"/>
        <pt x="300" y="423" on="0"/>
        <pt x="310" y="420" on="1"/>
        <pt x="317" y="418" on="0"/>
        <pt x="360" y="407" on="0"/>
        <pt x="377" y="402" on="1"/>
        <pt x="410" y="393" on="0"/>
        <pt x="452" y="382" on="0"/>
        <pt x="479" y="372" on="0"/>
        <pt x="495" y="361" on="0"/>
        <pt x="504" y="352" on="1"/>
        <pt x="510" y="347" on="0"/>
        <pt x="526" y="328" on="0"/>
        <pt x="542" y="300" on="0"/>
        <pt x="553" y="261" on="0"/>
        <pt x="553" y="235" on="1"/>
        <pt x="553" y="189" on="0"/>
        <pt x="512" y="97" on="0"/>
        <pt x="442" y="23" on="0"/>
        <pt x="350" y="-22" on="0"/>
        <pt x="299" y="-22" on="1"/>
        <pt x="277" y="-22" on="0"/>
        <pt x="231" y="-16" on="0"/>
        <pt x="187" y="0" on="0"/>
        <pt x="146" y="28" on="0"/>
        <pt x="130" y="50" on="1"/>
        <pt x="81" y="-7" on="1"/>
        <pt x="72" y="-18" on="0"/>
        <pt x="67" y="-22" on="0"/>
        <pt x="63" y="-22" on="1"/>
        <pt x="52" y="-22" on="0"/>
        <pt x="52" y="-12" on="1"/>
        <pt x="52" y="-11" on="0"/>
        <pt x="60" y="24" on="0"/>
        <pt x="73" y="75" on="0"/>
        <pt x="88" y="135" on="0"/>
        <pt x="101" y="187" on="0"/>
        <pt x="111" y="222" on="0"/>
        <pt x="112" y="223" on="1"/>
        <pt x="116" y="227" on="0"/>
        <pt x="122" y="227" on="1"/>
        <pt x="126" y="227" on="0"/>
        <pt x="134" y="224" on="0"/>
        <pt x="134" y="216" on="1"/>
        <pt x="134" y="214" on="0"/>
        <pt x="133" y="212" on="0"/>
        <pt x="132" y="209" on="1"/>
        <pt x="131" y="204" on="0"/>
        <pt x="126" y="173" on="0"/>
        <pt x="126" y="155" on="1"/>
        <pt x="126" y="109" on="0"/>
        <pt x="163" y="51" on="0"/>
        <pt x="216" y="20" on="0"/>
        <pt x="277" y="9" on="0"/>
        <pt x="301" y="9" on="1"/>
        <pt x="338" y="9" on="0"/>
        <pt x="403" y="41" on="0"/>
        <pt x="452" y="93" on="0"/>
        <pt x="481" y="159" on="0"/>
        <pt x="481" y="193" on="1"/>
        <pt x="481" y="224" on="0"/>
        <pt x="463" y="262" on="0"/>
        <pt x="435" y="285" on="0"/>
        <pt x="403" y="296" on="0"/>
        <pt x="389" y="299" on="1"/>
        <pt x="282" y="327" on="1"/>
        <pt x="263" y="333" on="0"/>
        <pt x="226" y="356" on="0"/>
        <pt x="196" y="391" on="0"/>
        <pt x="178" y="439" on="0"/>
        <pt x="178" y="469" on="1"/>
        <pt x="178" y="514" on="0"/>
        <pt x="219" y="599" on="0"/>
        <pt x="288" y="665" on="0"/>
        <pt x="377" y="705" on="0"/>
        <pt x="425" y="705" on="1"/>
        <pt x="474" y="705" on="0"/>
        <pt x="548" y="668" on="0"/>
        <pt x="568" y="633" on="1"/>
        <pt x="616" y="690" on="1"/>
        <pt x="625" y="701" on="0"/>
        <pt x="630" y="705" on="0"/>
        <pt x="634" y="705" on="1"/>
        <pt x="641" y="705" on="0"/>
        <pt x="645" y="697" on="0"/>
        <pt x="645" y="695" on="1"/>
      </contour>
    </TTGlyph>
    <TTGlyph name="Sigma" xMin="58" yMin="0" xMax="806" yMax="683">
      <contour>
        <pt x="131" y="41" on="1"/>
        <pt x="403" y="41" on="1"/>
        <pt x="469" y="41" on="0"/>
        <pt x="559" y="55" on="0"/>
        <pt x="624" y="95" on="0"/>
        <pt x="672" y="165" on="0"/>
        <pt x="695" y="221" on="1"/>
        <pt x="698" y="227" on="0"/>
        <pt x="703" y="235" on="0"/>
        <pt x="709" y="235" on="1"/>
        <pt x="716" y="235" on="0"/>
        <pt x="721" y="228" on="0"/>
        <pt x="721" y="224" on="1"/>
        <pt x="721" y="223" on="0"/>
        <pt x="717" y="210" on="0"/>
        <pt x="716" y="208" on="1"/>
        <pt x="644" y="17" on="1"/>
        <pt x="639" y="5" on="0"/>
        <pt x="631" y="0" on="0"/>
        <pt x="613" y="0" on="1"/>
        <pt x="86" y="0" on="1"/>
        <pt x="72" y="0" on="0"/>
        <pt x="58" y="3" on="0"/>
        <pt x="58" y="11" on="1"/>
        <pt x="58" y="14" on="0"/>
        <pt x="62" y="18" on="0"/>
        <pt x="70" y="26" on="1"/>
        <pt x="378" y="304" on="1"/>
        <pt x="227" y="647" on="1"/>
        <pt x="222" y="656" on="0"/>
        <pt x="221" y="661" on="0"/>
        <pt x="221" y="663" on="1"/>
        <pt x="221" y="678" on="0"/>
        <pt x="236" y="683" on="0"/>
        <pt x="251" y="683" on="1"/>
        <pt x="778" y="683" on="1"/>
        <pt x="793" y="683" on="0"/>
        <pt x="806" y="680" on="0"/>
        <pt x="806" y="670" on="1"/>
        <pt x="804" y="657" on="1"/>
        <pt x="785" y="483" on="1"/>
        <pt x="783" y="470" on="0"/>
        <pt x="779" y="458" on="0"/>
        <pt x="771" y="458" on="1"/>
        <pt x="762" y="458" on="0"/>
        <pt x="758" y="468" on="0"/>
        <pt x="758" y="470" on="1"/>
        <pt x="758" y="481" on="0"/>
        <pt x="762" y="509" on="0"/>
        <pt x="762" y="522" on="1"/>
        <pt x="762" y="562" on="0"/>
        <pt x="743" y="613" on="0"/>
        <pt x="698" y="641" on="0"/>
        <pt x="623" y="652" on="0"/>
        <pt x="567" y="652" on="1"/>
        <pt x="324" y="652" on="1"/>
        <pt x="454" y="356" on="1"/>
        <pt x="459" y="345" on="0"/>
        <pt x="459" y="342" on="1"/>
        <pt x="459" y="338" on="0"/>
        <pt x="455" y="332" on="0"/>
        <pt x="447" y="325" on="1"/>
      </contour>
    </TTGlyph>
    <TTGlyph name="T" xMin="24" yMin="0" xMax="704" yMax="677">
      <contour>
        <pt x="294" y="76" on="1"/>
        <pt x="291" y="65" on="0"/>
        <pt x="290" y="56" on="0"/>
        <pt x="290" y="55" on="1"/>
        <pt x="290" y="43" on="0"/>
        <pt x="305" y="35" on="0"/>
        <pt x="327" y="33" on="1"/>
        <pt x="347" y="31" on="0"/>
        <pt x="372" y="31" on="0"/>
        <pt x="391" y="31" on="1"/>
        <pt x="411" y="31" on="0"/>
        <pt x="425" y="28" on="0"/>
        <pt x="425" y="20" on="1"/>
        <pt x="425" y="5" on="0"/>
        <pt x="411" y="0" on="0"/>
        <pt x="403" y="0" on="1"/>
        <pt x="382" y="0" on="0"/>
        <pt x="338" y="2" on="0"/>
        <pt x="316" y="2" on="1"/>
        <pt x="296" y="2" on="0"/>
        <pt x="254" y="3" on="0"/>
        <pt x="233" y="3" on="1"/>
        <pt x="212" y="3" on="0"/>
        <pt x="169" y="2" on="0"/>
        <pt x="148" y="2" on="1"/>
        <pt x="128" y="2" on="0"/>
        <pt x="86" y="0" on="0"/>
        <pt x="66" y="0" on="1"/>
        <pt x="61" y="0" on="0"/>
        <pt x="49" y="3" on="0"/>
        <pt x="49" y="12" on="1"/>
        <pt x="49" y="26" on="0"/>
        <pt x="64" y="31" on="0"/>
        <pt x="91" y="31" on="1"/>
        <pt x="131" y="31" on="0"/>
        <pt x="176" y="36" on="0"/>
        <pt x="199" y="47" on="0"/>
        <pt x="207" y="65" on="0"/>
        <pt x="210" y="79" on="1"/>
        <pt x="344" y="613" on="1"/>
        <pt x="345" y="615" on="0"/>
        <pt x="348" y="629" on="0"/>
        <pt x="348" y="634" on="1"/>
        <pt x="348" y="640" on="0"/>
        <pt x="341" y="646" on="0"/>
        <pt x="320" y="646" on="1"/>
        <pt x="281" y="646" on="1"/>
        <pt x="226" y="646" on="0"/>
        <pt x="156" y="636" on="0"/>
        <pt x="108" y="600" on="0"/>
        <pt x="73" y="531" on="0"/>
        <pt x="53" y="473" on="1"/>
        <pt x="48" y="461" on="0"/>
        <pt x="44" y="452" on="0"/>
        <pt x="36" y="452" on="1"/>
        <pt x="24" y="452" on="0"/>
        <pt x="24" y="463" on="1"/>
        <pt x="24" y="465" on="0"/>
        <pt x="29" y="479" on="0"/>
        <pt x="30" y="481" on="1"/>
        <pt x="90" y="657" on="1"/>
        <pt x="95" y="671" on="0"/>
        <pt x="104" y="677" on="0"/>
        <pt x="122" y="677" on="1"/>
        <pt x="677" y="677" on="1"/>
        <pt x="690" y="677" on="0"/>
        <pt x="704" y="674" on="0"/>
        <pt x="704" y="666" on="1"/>
        <pt x="704" y="664" on="0"/>
        <pt x="703" y="652" on="0"/>
        <pt x="702" y="649" on="1"/>
        <pt x="675" y="475" on="1"/>
        <pt x="673" y="464" on="0"/>
        <pt x="668" y="452" on="0"/>
        <pt x="660" y="452" on="1"/>
        <pt x="653" y="452" on="0"/>
        <pt x="648" y="460" on="0"/>
        <pt x="648" y="465" on="1"/>
        <pt x="648" y="467" on="0"/>
        <pt x="650" y="481" on="0"/>
        <pt x="651" y="484" on="1"/>
        <pt x="653" y="494" on="0"/>
        <pt x="655" y="517" on="0"/>
        <pt x="658" y="539" on="0"/>
        <pt x="659" y="558" on="0"/>
        <pt x="659" y="564" on="1"/>
        <pt x="659" y="593" on="0"/>
        <pt x="642" y="626" on="0"/>
        <pt x="606" y="642" on="0"/>
        <pt x="551" y="646" on="0"/>
        <pt x="513" y="646" on="1"/>
        <pt x="497" y="646" on="0"/>
        <pt x="457" y="646" on="0"/>
        <pt x="450" y="644" on="1"/>
        <pt x="441" y="642" on="0"/>
        <pt x="432" y="628" on="0"/>
        <pt x="427" y="607" on="1"/>
      </contour>
    </TTGlyph>
    <TTGlyph name="Theta" xMin="49" yMin="-22" xMax="740" yMax="705">
      <contour>
        <pt x="740" y="436" on="1"/>
        <pt x="740" y="346" on="0"/>
        <pt x="664" y="181" on="0"/>
        <pt x="540" y="54" on="0"/>
        <pt x="385" y="-22" on="0"/>
        <pt x="305" y="-22" on="1"/>
        <pt x="251" y="-22" on="0"/>
        <pt x="158" y="15" on="0"/>
        <pt x="89" y="84" on="0"/>
        <pt x="49" y="183" on="0"/>
        <pt x="49" y="245" on="1"/>
        <pt x="49" y="303" on="0"/>
        <pt x="84" y="417" on="0"/>
        <pt x="144" y="519" on="0"/>
        <pt x="228" y="606" on="0"/>
        <pt x="324" y="669" on="0"/>
        <pt x="431" y="705" on="0"/>
        <pt x="485" y="705" on="1"/>
        <pt x="541" y="705" on="0"/>
        <pt x="635" y="666" on="0"/>
        <pt x="702" y="596" on="0"/>
        <pt x="740" y="496" on="0"/>
      </contour>
      <contour>
        <pt x="310" y="1" on="1"/>
        <pt x="343" y="1" on="0"/>
        <pt x="409" y="22" on="0"/>
        <pt x="470" y="59" on="0"/>
        <pt x="524" y="109" on="0"/>
        <pt x="545" y="138" on="1"/>
        <pt x="582" y="188" on="0"/>
        <pt x="625" y="292" on="0"/>
        <pt x="648" y="384" on="0"/>
        <pt x="655" y="454" on="0"/>
        <pt x="655" y="469" on="1"/>
        <pt x="655" y="517" on="0"/>
        <pt x="630" y="596" on="0"/>
        <pt x="584" y="652" on="0"/>
        <pt x="519" y="683" on="0"/>
        <pt x="480" y="683" on="1"/>
        <pt x="448" y="683" on="0"/>
        <pt x="385" y="662" on="0"/>
        <pt x="327" y="628" on="0"/>
        <pt x="277" y="584" on="0"/>
        <pt x="258" y="560" on="1"/>
        <pt x="215" y="507" on="0"/>
        <pt x="166" y="395" on="0"/>
        <pt x="141" y="298" on="0"/>
        <pt x="134" y="226" on="0"/>
        <pt x="134" y="213" on="1"/>
        <pt x="134" y="164" on="0"/>
        <pt x="160" y="85" on="0"/>
        <pt x="207" y="30" on="0"/>
        <pt x="271" y="1" on="0"/>
      </contour>
      <contour>
        <pt x="225" y="306" on="1"/>
        <pt x="225" y="304" on="0"/>
        <pt x="221" y="290" on="0"/>
        <pt x="219" y="285" on="1"/>
        <pt x="218" y="280" on="0"/>
        <pt x="214" y="272" on="0"/>
        <pt x="206" y="272" on="1"/>
        <pt x="201" y="272" on="0"/>
        <pt x="194" y="278" on="0"/>
        <pt x="194" y="284" on="1"/>
        <pt x="194" y="286" on="0"/>
        <pt x="202" y="317" on="0"/>
        <pt x="211" y="354" on="0"/>
        <pt x="220" y="388" on="0"/>
        <pt x="221" y="393" on="1"/>
        <pt x="223" y="403" on="0"/>
        <pt x="228" y="412" on="0"/>
        <pt x="236" y="412" on="1"/>
        <pt x="241" y="412" on="0"/>
        <pt x="248" y="406" on="0"/>
        <pt x="248" y="400" on="1"/>
        <pt x="248" y="398" on="0"/>
        <pt x="244" y="380" on="0"/>
        <pt x="243" y="378" on="1"/>
        <pt x="565" y="378" on="1"/>
        <pt x="565" y="380" on="0"/>
        <pt x="569" y="394" on="0"/>
        <pt x="571" y="399" on="1"/>
        <pt x="572" y="404" on="0"/>
        <pt x="576" y="412" on="0"/>
        <pt x="584" y="412" on="1"/>
        <pt x="589" y="412" on="0"/>
        <pt x="596" y="406" on="0"/>
        <pt x="596" y="400" on="1"/>
        <pt x="596" y="398" on="0"/>
        <pt x="588" y="367" on="0"/>
        <pt x="579" y="330" on="0"/>
        <pt x="570" y="296" on="0"/>
        <pt x="569" y="291" on="1"/>
        <pt x="567" y="281" on="0"/>
        <pt x="562" y="272" on="0"/>
        <pt x="554" y="272" on="1"/>
        <pt x="549" y="272" on="0"/>
        <pt x="542" y="278" on="0"/>
        <pt x="542" y="284" on="1"/>
        <pt x="542" y="286" on="0"/>
        <pt x="546" y="304" on="0"/>
        <pt x="547" y="306" on="1"/>
      </contour>
    </TTGlyph>
    <TTGlyph name="U" xMin="67" yMin="-22" xMax="760" yMax="683">
      <contour>
        <pt x="546" y="223" on="1"/>
        <pt x="534" y="174" on="0"/>
        <pt x="478" y="85" on="0"/>
        <pt x="401" y="17" on="0"/>
        <pt x="310" y="-22" on="0"/>
        <pt x="263" y="-22" on="1"/>
        <pt x="224" y="-22" on="0"/>
        <pt x="153" y="4" on="0"/>
        <pt x="99" y="53" on="0"/>
        <pt x="67" y="124" on="0"/>
        <pt x="67" y="170" on="1"/>
        <pt x="67" y="181" on="0"/>
        <pt x="69" y="207" on="0"/>
        <pt x="74" y="228" on="1"/>
        <pt x="76" y="235" on="0"/>
        <pt x="92" y="303" on="0"/>
        <pt x="113" y="385" on="0"/>
        <pt x="132" y="460" on="0"/>
        <pt x="135" y="475" on="1"/>
        <pt x="157" y="563" on="1"/>
        <pt x="159" y="572" on="0"/>
        <pt x="165" y="594" on="0"/>
        <pt x="170" y="615" on="0"/>
        <pt x="174" y="632" on="0"/>
        <pt x="174" y="634" on="1"/>
        <pt x="174" y="644" on="0"/>
        <pt x="161" y="648" on="0"/>
        <pt x="147" y="650" on="1"/>
        <pt x="134" y="652" on="0"/>
        <pt x="111" y="652" on="0"/>
        <pt x="109" y="652" on="1"/>
        <pt x="95" y="652" on="0"/>
        <pt x="81" y="655" on="0"/>
        <pt x="81" y="663" on="1"/>
        <pt x="81" y="678" on="0"/>
        <pt x="94" y="683" on="0"/>
        <pt x="100" y="683" on="1"/>
        <pt x="111" y="683" on="0"/>
        <pt x="146" y="682" on="0"/>
        <pt x="183" y="681" on="0"/>
        <pt x="218" y="680" on="0"/>
        <pt x="229" y="680" on="1"/>
        <pt x="240" y="680" on="0"/>
        <pt x="274" y="681" on="0"/>
        <pt x="312" y="682" on="0"/>
        <pt x="347" y="683" on="0"/>
        <pt x="357" y="683" on="1"/>
        <pt x="359" y="683" on="0"/>
        <pt x="371" y="680" on="0"/>
        <pt x="371" y="672" on="1"/>
        <pt x="371" y="657" on="0"/>
        <pt x="357" y="652" on="0"/>
        <pt x="337" y="652" on="1"/>
        <pt x="310" y="652" on="0"/>
        <pt x="279" y="648" on="0"/>
        <pt x="263" y="637" on="0"/>
        <pt x="256" y="620" on="0"/>
        <pt x="253" y="606" on="1"/>
        <pt x="156" y="217" on="1"/>
        <pt x="148" y="184" on="0"/>
        <pt x="145" y="141" on="0"/>
        <pt x="145" y="139" on="1"/>
        <pt x="145" y="74" on="0"/>
        <pt x="216" y="9" on="0"/>
        <pt x="267" y="9" on="1"/>
        <pt x="305" y="9" on="0"/>
        <pt x="382" y="40" on="0"/>
        <pt x="450" y="98" on="0"/>
        <pt x="503" y="180" on="0"/>
        <pt x="516" y="230" on="1"/>
        <pt x="606" y="587" on="1"/>
        <pt x="607" y="589" on="0"/>
        <pt x="609" y="606" on="0"/>
        <pt x="609" y="608" on="1"/>
        <pt x="609" y="625" on="0"/>
        <pt x="584" y="651" on="0"/>
        <pt x="541" y="652" on="1"/>
        <pt x="535" y="652" on="0"/>
        <pt x="523" y="655" on="0"/>
        <pt x="523" y="663" on="1"/>
        <pt x="523" y="678" on="0"/>
        <pt x="536" y="683" on="0"/>
        <pt x="541" y="683" on="1"/>
        <pt x="566" y="683" on="0"/>
        <pt x="619" y="680" on="0"/>
        <pt x="645" y="680" on="1"/>
        <pt x="671" y="680" on="0"/>
        <pt x="722" y="683" on="0"/>
        <pt x="747" y="683" on="1"/>
        <pt x="757" y="683" on="0"/>
        <pt x="760" y="673" on="0"/>
        <pt x="760" y="672" on="1"/>
        <pt x="760" y="658" on="0"/>
        <pt x="747" y="652" on="0"/>
        <pt x="743" y="652" on="1"/>
        <pt x="713" y="651" on="0"/>
        <pt x="675" y="639" on="0"/>
        <pt x="651" y="620" on="0"/>
        <pt x="639" y="593" on="0"/>
        <pt x="635" y="578" on="1"/>
      </contour>
    </TTGlyph>
    <TTGlyph name="Upsilon" xMin="28" yMin="0" xMax="701" yMax="705">
      <contour>
        <pt x="339" y="457" on="1"/>
        <pt x="360" y="507" on="0"/>
        <pt x="414" y="597" on="0"/>
        <pt x="479" y="665" on="0"/>
        <pt x="557" y="705" on="0"/>
        <pt x="602" y="705" on="1"/>
        <pt x="631" y="705" on="0"/>
        <pt x="669" y="683" on="0"/>
        <pt x="691" y="650" on="0"/>
        <pt x="701" y="610" on="0"/>
        <pt x="701" y="593" on="1"/>
        <pt x="701" y="567" on="0"/>
        <pt x="691" y="535" on="0"/>
        <pt x="676" y="535" on="1"/>
        <pt x="674" y="535" on="0"/>
        <pt x="664" y="537" on="0"/>
        <pt x="664" y="544" on="1"/>
        <pt x="664" y="547" on="0"/>
        <pt x="666" y="557" on="0"/>
        <pt x="666" y="565" on="1"/>
        <pt x="666" y="590" on="0"/>
        <pt x="626" y="632" on="0"/>
        <pt x="584" y="632" on="1"/>
        <pt x="544" y="632" on="0"/>
        <pt x="474" y="590" on="0"/>
        <pt x="415" y="513" on="0"/>
        <pt x="369" y="405" on="0"/>
        <pt x="352" y="339" on="1"/>
        <pt x="350" y="330" on="0"/>
        <pt x="338" y="285" on="0"/>
        <pt x="324" y="227" on="0"/>
        <pt x="308" y="164" on="0"/>
        <pt x="295" y="110" on="0"/>
        <pt x="285" y="73" on="0"/>
        <pt x="284" y="69" on="1"/>
        <pt x="283" y="64" on="0"/>
        <pt x="282" y="57" on="0"/>
        <pt x="282" y="53" on="1"/>
        <pt x="282" y="43" on="0"/>
        <pt x="292" y="35" on="0"/>
        <pt x="314" y="33" on="1"/>
        <pt x="323" y="32" on="0"/>
        <pt x="336" y="31" on="0"/>
        <pt x="346" y="31" on="0"/>
        <pt x="358" y="31" on="0"/>
        <pt x="366" y="31" on="1"/>
        <pt x="383" y="31" on="0"/>
        <pt x="392" y="31" on="0"/>
        <pt x="394" y="30" on="1"/>
        <pt x="394" y="29" on="0"/>
        <pt x="400" y="25" on="0"/>
        <pt x="400" y="19" on="1"/>
        <pt x="400" y="5" on="0"/>
        <pt x="386" y="0" on="0"/>
        <pt x="379" y="0" on="1"/>
        <pt x="360" y="0" on="0"/>
        <pt x="322" y="2" on="0"/>
        <pt x="302" y="2" on="1"/>
        <pt x="150" y="2" on="1"/>
        <pt x="131" y="2" on="0"/>
        <pt x="93" y="0" on="0"/>
        <pt x="74" y="0" on="1"/>
        <pt x="71" y="0" on="0"/>
        <pt x="58" y="3" on="0"/>
        <pt x="58" y="11" on="1"/>
        <pt x="58" y="26" on="0"/>
        <pt x="72" y="31" on="0"/>
        <pt x="85" y="31" on="1"/>
        <pt x="93" y="31" on="0"/>
        <pt x="119" y="31" on="0"/>
        <pt x="146" y="33" on="0"/>
        <pt x="170" y="35" on="0"/>
        <pt x="177" y="38" on="1"/>
        <pt x="190" y="43" on="0"/>
        <pt x="199" y="67" on="0"/>
        <pt x="203" y="83" on="1"/>
        <pt x="205" y="88" on="0"/>
        <pt x="217" y="137" on="0"/>
        <pt x="232" y="197" on="0"/>
        <pt x="245" y="252" on="0"/>
        <pt x="248" y="262" on="1"/>
        <pt x="261" y="312" on="0"/>
        <pt x="276" y="376" on="0"/>
        <pt x="285" y="423" on="0"/>
        <pt x="288" y="460" on="0"/>
        <pt x="288" y="483" on="1"/>
        <pt x="288" y="501" on="0"/>
        <pt x="283" y="552" on="0"/>
        <pt x="262" y="599" on="0"/>
        <pt x="218" y="632" on="0"/>
        <pt x="180" y="632" on="1"/>
        <pt x="167" y="632" on="0"/>
        <pt x="132" y="624" on="0"/>
        <pt x="98" y="605" on="0"/>
        <pt x="68" y="573" on="0"/>
        <pt x="59" y="549" on="1"/>
        <pt x="57" y="543" on="0"/>
        <pt x="50" y="535" on="0"/>
        <pt x="40" y="535" on="1"/>
        <pt x="38" y="535" on="0"/>
        <pt x="28" y="537" on="0"/>
        <pt x="28" y="544" on="1"/>
        <pt x="28" y="553" on="0"/>
        <pt x="50" y="606" on="0"/>
        <pt x="93" y="662" on="0"/>
        <pt x="157" y="705" on="0"/>
        <pt x="200" y="705" on="1"/>
        <pt x="239" y="705" on="0"/>
        <pt x="293" y="674" on="0"/>
        <pt x="327" y="621" on="0"/>
        <pt x="342" y="549" on="0"/>
        <pt x="342" y="508" on="1"/>
        <pt x="342" y="497" on="0"/>
        <pt x="341" y="468" on="0"/>
      </contour>
    </TTGlyph>
    <TTGlyph name="V" xMin="56" yMin="-22" xMax="769" yMax="683">
      <contour>
        <pt x="268" y="-4" on="1"/>
        <pt x="262" y="-14" on="0"/>
        <pt x="252" y="-22" on="0"/>
        <pt x="240" y="-22" on="1"/>
        <pt x="230" y="-22" on="0"/>
        <pt x="222" y="-14" on="0"/>
        <pt x="220" y="1" on="1"/>
        <pt x="141" y="618" on="1"/>
        <pt x="140" y="627" on="0"/>
        <pt x="137" y="640" on="0"/>
        <pt x="125" y="648" on="0"/>
        <pt x="102" y="652" on="0"/>
        <pt x="81" y="652" on="1"/>
        <pt x="69" y="652" on="0"/>
        <pt x="56" y="655" on="0"/>
        <pt x="56" y="664" on="1"/>
        <pt x="56" y="678" on="0"/>
        <pt x="70" y="683" on="0"/>
        <pt x="75" y="683" on="1"/>
        <pt x="88" y="683" on="0"/>
        <pt x="115" y="681" on="0"/>
        <pt x="129" y="681" on="1"/>
        <pt x="143" y="681" on="0"/>
        <pt x="170" y="680" on="0"/>
        <pt x="184" y="680" on="1"/>
        <pt x="215" y="680" on="0"/>
        <pt x="278" y="683" on="0"/>
        <pt x="308" y="683" on="1"/>
        <pt x="313" y="683" on="0"/>
        <pt x="322" y="679" on="0"/>
        <pt x="322" y="672" on="1"/>
        <pt x="322" y="657" on="0"/>
        <pt x="308" y="652" on="0"/>
        <pt x="297" y="652" on="1"/>
        <pt x="262" y="652" on="0"/>
        <pt x="228" y="635" on="0"/>
        <pt x="228" y="622" on="1"/>
        <pt x="296" y="93" on="1"/>
        <pt x="603" y="581" on="1"/>
        <pt x="603" y="581" on="0"/>
        <pt x="608" y="589" on="0"/>
        <pt x="613" y="600" on="0"/>
        <pt x="618" y="613" on="0"/>
        <pt x="618" y="619" on="1"/>
        <pt x="618" y="635" on="0"/>
        <pt x="592" y="650" on="0"/>
        <pt x="572" y="652" on="1"/>
        <pt x="567" y="652" on="0"/>
        <pt x="556" y="656" on="0"/>
        <pt x="556" y="664" on="1"/>
        <pt x="556" y="678" on="0"/>
        <pt x="570" y="683" on="0"/>
        <pt x="575" y="683" on="1"/>
        <pt x="599" y="683" on="0"/>
        <pt x="649" y="680" on="0"/>
        <pt x="674" y="680" on="1"/>
        <pt x="694" y="680" on="0"/>
        <pt x="736" y="683" on="0"/>
        <pt x="756" y="683" on="1"/>
        <pt x="769" y="683" on="0"/>
        <pt x="769" y="671" on="1"/>
        <pt x="769" y="670" on="0"/>
        <pt x="765" y="653" on="0"/>
        <pt x="756" y="652" on="1"/>
        <pt x="742" y="651" on="0"/>
        <pt x="712" y="647" on="0"/>
        <pt x="681" y="631" on="0"/>
        <pt x="646" y="598" on="0"/>
        <pt x="628" y="569" on="1"/>
      </contour>
    </TTGlyph>
    <TTGlyph name="W" xMin="55" yMin="-22" xMax="1048" yMax="683">
      <contour>
        <pt x="589" y="-3" on="1"/>
        <pt x="585" y="-10" on="0"/>
        <pt x="575" y="-22" on="0"/>
        <pt x="565" y="-22" on="1"/>
        <pt x="556" y="-22" on="0"/>
        <pt x="551" y="-12" on="0"/>
        <pt x="549" y="4" on="1"/>
        <pt x="512" y="509" on="1"/>
        <pt x="218" y="-1" on="1"/>
        <pt x="211" y="-12" on="0"/>
        <pt x="203" y="-22" on="0"/>
        <pt x="194" y="-22" on="1"/>
        <pt x="183" y="-22" on="0"/>
        <pt x="179" y="-10" on="0"/>
        <pt x="178" y="4" on="1"/>
        <pt x="133" y="615" on="1"/>
        <pt x="132" y="626" on="0"/>
        <pt x="130" y="640" on="0"/>
        <pt x="119" y="648" on="0"/>
        <pt x="99" y="652" on="0"/>
        <pt x="80" y="652" on="1"/>
        <pt x="68" y="652" on="0"/>
        <pt x="55" y="655" on="0"/>
        <pt x="55" y="664" on="1"/>
        <pt x="55" y="678" on="0"/>
        <pt x="69" y="683" on="0"/>
        <pt x="73" y="683" on="1"/>
        <pt x="99" y="683" on="0"/>
        <pt x="152" y="680" on="0"/>
        <pt x="178" y="680" on="1"/>
        <pt x="209" y="680" on="0"/>
        <pt x="271" y="683" on="0"/>
        <pt x="301" y="683" on="1"/>
        <pt x="303" y="683" on="0"/>
        <pt x="315" y="680" on="0"/>
        <pt x="315" y="672" on="1"/>
        <pt x="315" y="657" on="0"/>
        <pt x="302" y="652" on="0"/>
        <pt x="294" y="652" on="1"/>
        <pt x="266" y="652" on="0"/>
        <pt x="235" y="644" on="0"/>
        <pt x="220" y="633" on="0"/>
        <pt x="218" y="621" on="0"/>
        <pt x="218" y="616" on="1"/>
        <pt x="256" y="109" on="1"/>
        <pt x="509" y="550" on="1"/>
        <pt x="503" y="627" on="1"/>
        <pt x="501" y="641" on="0"/>
        <pt x="483" y="652" on="0"/>
        <pt x="450" y="652" on="1"/>
        <pt x="439" y="652" on="0"/>
        <pt x="426" y="655" on="0"/>
        <pt x="426" y="663" on="1"/>
        <pt x="426" y="678" on="0"/>
        <pt x="440" y="683" on="0"/>
        <pt x="445" y="683" on="1"/>
        <pt x="454" y="683" on="0"/>
        <pt x="482" y="682" on="0"/>
        <pt x="513" y="681" on="0"/>
        <pt x="541" y="680" on="0"/>
        <pt x="550" y="680" on="1"/>
        <pt x="580" y="680" on="0"/>
        <pt x="642" y="683" on="0"/>
        <pt x="672" y="683" on="1"/>
        <pt x="675" y="683" on="0"/>
        <pt x="687" y="680" on="0"/>
        <pt x="687" y="672" on="1"/>
        <pt x="687" y="657" on="0"/>
        <pt x="673" y="652" on="0"/>
        <pt x="660" y="652" on="1"/>
        <pt x="633" y="652" on="0"/>
        <pt x="604" y="642" on="0"/>
        <pt x="591" y="629" on="0"/>
        <pt x="590" y="613" on="0"/>
        <pt x="590" y="605" on="1"/>
        <pt x="627" y="109" on="1"/>
        <pt x="897" y="580" on="1"/>
        <pt x="903" y="591" on="0"/>
        <pt x="910" y="605" on="0"/>
        <pt x="910" y="613" on="1"/>
        <pt x="910" y="624" on="0"/>
        <pt x="898" y="639" on="0"/>
        <pt x="881" y="648" on="0"/>
        <pt x="860" y="652" on="0"/>
        <pt x="851" y="652" on="1"/>
        <pt x="846" y="652" on="0"/>
        <pt x="836" y="656" on="0"/>
        <pt x="836" y="664" on="1"/>
        <pt x="836" y="678" on="0"/>
        <pt x="850" y="683" on="0"/>
        <pt x="855" y="683" on="1"/>
        <pt x="880" y="683" on="0"/>
        <pt x="933" y="680" on="0"/>
        <pt x="959" y="680" on="1"/>
        <pt x="978" y="680" on="0"/>
        <pt x="1018" y="683" on="0"/>
        <pt x="1036" y="683" on="1"/>
        <pt x="1042" y="683" on="0"/>
        <pt x="1048" y="675" on="0"/>
        <pt x="1048" y="672" on="1"/>
        <pt x="1048" y="658" on="0"/>
        <pt x="1036" y="653" on="0"/>
        <pt x="1029" y="652" on="1"/>
        <pt x="1005" y="650" on="0"/>
        <pt x="972" y="635" on="0"/>
        <pt x="946" y="613" on="0"/>
        <pt x="926" y="584" on="0"/>
        <pt x="917" y="567" on="1"/>
      </contour>
    </TTGlyph>
    <TTGlyph name="X" xMin="27" yMin="0" xMax="851" yMax="683">
      <contour>
        <pt x="647" y="585" on="1"/>
        <pt x="653" y="592" on="0"/>
        <pt x="666" y="610" on="0"/>
        <pt x="666" y="621" on="1"/>
        <pt x="666" y="632" on="0"/>
        <pt x="656" y="644" on="0"/>
        <pt x="643" y="650" on="0"/>
        <pt x="629" y="652" on="0"/>
        <pt x="626" y="652" on="1"/>
        <pt x="614" y="654" on="0"/>
        <pt x="614" y="663" on="1"/>
        <pt x="614" y="678" on="0"/>
        <pt x="628" y="683" on="0"/>
        <pt x="633" y="683" on="1"/>
        <pt x="660" y="683" on="0"/>
        <pt x="716" y="680" on="0"/>
        <pt x="744" y="680" on="1"/>
        <pt x="767" y="680" on="0"/>
        <pt x="815" y="683" on="0"/>
        <pt x="838" y="683" on="1"/>
        <pt x="848" y="683" on="0"/>
        <pt x="851" y="673" on="0"/>
        <pt x="851" y="672" on="1"/>
        <pt x="851" y="658" on="0"/>
        <pt x="839" y="653" on="0"/>
        <pt x="829" y="652" on="1"/>
        <pt x="784" y="650" on="0"/>
        <pt x="724" y="619" on="0"/>
        <pt x="702" y="601" on="1"/>
        <pt x="690" y="591" on="0"/>
        <pt x="642" y="540" on="0"/>
        <pt x="584" y="477" on="0"/>
        <pt x="523" y="410" on="0"/>
        <pt x="497" y="384" on="1"/>
        <pt x="506" y="362" on="0"/>
        <pt x="537" y="285" on="0"/>
        <pt x="574" y="198" on="0"/>
        <pt x="611" y="110" on="0"/>
        <pt x="626" y="75" on="1"/>
        <pt x="632" y="60" on="0"/>
        <pt x="642" y="43" on="0"/>
        <pt x="659" y="34" on="0"/>
        <pt x="687" y="31" on="0"/>
        <pt x="712" y="31" on="1"/>
        <pt x="718" y="31" on="0"/>
        <pt x="730" y="28" on="0"/>
        <pt x="730" y="19" on="1"/>
        <pt x="730" y="5" on="0"/>
        <pt x="716" y="0" on="0"/>
        <pt x="711" y="0" on="1"/>
        <pt x="702" y="0" on="0"/>
        <pt x="672" y="1" on="0"/>
        <pt x="639" y="2" on="0"/>
        <pt x="609" y="3" on="0"/>
        <pt x="600" y="3" on="1"/>
        <pt x="590" y="3" on="0"/>
        <pt x="555" y="2" on="0"/>
        <pt x="519" y="1" on="0"/>
        <pt x="485" y="0" on="0"/>
        <pt x="474" y="0" on="1"/>
        <pt x="471" y="0" on="0"/>
        <pt x="459" y="3" on="0"/>
        <pt x="459" y="12" on="1"/>
        <pt x="459" y="25" on="0"/>
        <pt x="471" y="30" on="0"/>
        <pt x="479" y="31" on="1"/>
        <pt x="508" y="34" on="0"/>
        <pt x="537" y="54" on="0"/>
        <pt x="537" y="60" on="1"/>
        <pt x="537" y="62" on="0"/>
        <pt x="535" y="66" on="0"/>
        <pt x="532" y="74" on="1"/>
        <pt x="431" y="313" on="1"/>
        <pt x="341" y="215" on="1"/>
        <pt x="239" y="107" on="1"/>
        <pt x="230" y="97" on="0"/>
        <pt x="212" y="74" on="0"/>
        <pt x="212" y="62" on="1"/>
        <pt x="212" y="52" on="0"/>
        <pt x="222" y="39" on="0"/>
        <pt x="235" y="33" on="0"/>
        <pt x="249" y="31" on="0"/>
        <pt x="252" y="31" on="1"/>
        <pt x="254" y="31" on="0"/>
        <pt x="264" y="28" on="0"/>
        <pt x="264" y="20" on="1"/>
        <pt x="264" y="5" on="0"/>
        <pt x="251" y="0" on="0"/>
        <pt x="246" y="0" on="1"/>
        <pt x="219" y="0" on="0"/>
        <pt x="162" y="3" on="0"/>
        <pt x="134" y="3" on="1"/>
        <pt x="111" y="3" on="0"/>
        <pt x="63" y="0" on="0"/>
        <pt x="40" y="0" on="1"/>
        <pt x="30" y="0" on="0"/>
        <pt x="27" y="10" on="0"/>
        <pt x="27" y="11" on="1"/>
        <pt x="27" y="25" on="0"/>
        <pt x="39" y="30" on="0"/>
        <pt x="49" y="31" on="1"/>
        <pt x="87" y="33" on="0"/>
        <pt x="159" y="63" on="0"/>
        <pt x="196" y="103" on="1"/>
        <pt x="209" y="114" on="1"/>
        <pt x="420" y="341" on="1"/>
        <pt x="302" y="620" on="1"/>
        <pt x="299" y="628" on="0"/>
        <pt x="291" y="640" on="0"/>
        <pt x="276" y="648" on="0"/>
        <pt x="250" y="652" on="0"/>
        <pt x="227" y="652" on="1"/>
        <pt x="217" y="652" on="0"/>
        <pt x="204" y="655" on="0"/>
        <pt x="204" y="663" on="1"/>
        <pt x="204" y="678" on="0"/>
        <pt x="217" y="683" on="0"/>
        <pt x="222" y="683" on="1"/>
        <pt x="231" y="683" on="0"/>
        <pt x="262" y="682" on="0"/>
        <pt x="294" y="681" on="0"/>
        <pt x="325" y="680" on="0"/>
        <pt x="334" y="680" on="1"/>
        <pt x="366" y="680" on="0"/>
        <pt x="429" y="683" on="0"/>
        <pt x="460" y="683" on="1"/>
        <pt x="462" y="683" on="0"/>
        <pt x="475" y="680" on="0"/>
        <pt x="475" y="671" on="1"/>
        <pt x="475" y="658" on="0"/>
        <pt x="463" y="653" on="0"/>
        <pt x="455" y="652" on="1"/>
        <pt x="423" y="649" on="0"/>
        <pt x="396" y="628" on="0"/>
        <pt x="396" y="623" on="1"/>
        <pt x="396" y="623" on="0"/>
        <pt x="401" y="610" on="1"/>
        <pt x="485" y="411" on="1"/>
      </contour>
    </TTGlyph>
    <TTGlyph name="Xi" xMin="53" yMin="0" xMax="777" yMax="677">
      <contour>
        <pt x="755" y="547" on="1"/>
        <pt x="753" y="534" on="0"/>
        <pt x="749" y="525" on="0"/>
        <pt x="741" y="525" on="1"/>
        <pt x="728" y="525" on="0"/>
        <pt x="728" y="537" on="1"/>
        <pt x="728" y="538" on="0"/>
        <pt x="728" y="542" on="0"/>
        <pt x="730" y="550" on="1"/>
        <pt x="732" y="561" on="0"/>
        <pt x="736" y="581" on="0"/>
        <pt x="736" y="594" on="1"/>
        <pt x="736" y="603" on="0"/>
        <pt x="734" y="607" on="0"/>
        <pt x="729" y="608" on="1"/>
        <pt x="716" y="610" on="0"/>
        <pt x="682" y="611" on="0"/>
        <pt x="666" y="611" on="1"/>
        <pt x="311" y="611" on="1"/>
        <pt x="307" y="611" on="0"/>
        <pt x="284" y="611" on="0"/>
        <pt x="258" y="609" on="0"/>
        <pt x="237" y="607" on="0"/>
        <pt x="235" y="604" on="1"/>
        <pt x="231" y="600" on="0"/>
        <pt x="222" y="582" on="0"/>
        <pt x="215" y="562" on="0"/>
        <pt x="210" y="546" on="0"/>
        <pt x="209" y="543" on="1"/>
        <pt x="206" y="534" on="0"/>
        <pt x="201" y="525" on="0"/>
        <pt x="194" y="525" on="1"/>
        <pt x="187" y="525" on="0"/>
        <pt x="181" y="532" on="0"/>
        <pt x="181" y="536" on="1"/>
        <pt x="181" y="539" on="0"/>
        <pt x="184" y="548" on="0"/>
        <pt x="185" y="551" on="1"/>
        <pt x="218" y="657" on="1"/>
        <pt x="223" y="671" on="0"/>
        <pt x="231" y="677" on="0"/>
        <pt x="250" y="677" on="1"/>
        <pt x="750" y="677" on="1"/>
        <pt x="763" y="677" on="0"/>
        <pt x="777" y="674" on="0"/>
        <pt x="777" y="666" on="1"/>
        <pt x="775" y="649" on="1"/>
      </contour>
      <contour>
        <pt x="525" y="66" on="1"/>
        <pt x="530" y="66" on="0"/>
        <pt x="553" y="66" on="0"/>
        <pt x="578" y="67" on="0"/>
        <pt x="600" y="70" on="0"/>
        <pt x="603" y="72" on="1"/>
        <pt x="607" y="74" on="0"/>
        <pt x="615" y="90" on="0"/>
        <pt x="623" y="110" on="0"/>
        <pt x="629" y="129" on="0"/>
        <pt x="630" y="133" on="1"/>
        <pt x="632" y="138" on="0"/>
        <pt x="636" y="152" on="0"/>
        <pt x="638" y="157" on="1"/>
        <pt x="639" y="158" on="0"/>
        <pt x="644" y="163" on="0"/>
        <pt x="649" y="163" on="1"/>
        <pt x="656" y="163" on="0"/>
        <pt x="662" y="156" on="0"/>
        <pt x="662" y="152" on="1"/>
        <pt x="662" y="150" on="0"/>
        <pt x="650" y="110" on="0"/>
        <pt x="635" y="62" on="0"/>
        <pt x="622" y="19" on="0"/>
        <pt x="620" y="13" on="1"/>
        <pt x="616" y="4" on="0"/>
        <pt x="608" y="0" on="0"/>
        <pt x="591" y="0" on="1"/>
        <pt x="81" y="0" on="1"/>
        <pt x="66" y="0" on="0"/>
        <pt x="53" y="3" on="0"/>
        <pt x="53" y="12" on="1"/>
        <pt x="53" y="16" on="0"/>
        <pt x="60" y="52" on="0"/>
        <pt x="68" y="95" on="0"/>
        <pt x="77" y="134" on="0"/>
        <pt x="78" y="141" on="1"/>
        <pt x="80" y="153" on="0"/>
        <pt x="84" y="163" on="0"/>
        <pt x="92" y="163" on="1"/>
        <pt x="105" y="163" on="0"/>
        <pt x="105" y="151" on="1"/>
        <pt x="105" y="149" on="0"/>
        <pt x="104" y="145" on="0"/>
        <pt x="102" y="138" on="1"/>
        <pt x="97" y="109" on="0"/>
        <pt x="95" y="84" on="0"/>
        <pt x="95" y="70" on="1"/>
        <pt x="105" y="69" on="0"/>
        <pt x="117" y="67" on="0"/>
        <pt x="131" y="66" on="0"/>
        <pt x="151" y="66" on="0"/>
        <pt x="168" y="66" on="1"/>
      </contour>
      <contour>
        <pt x="243" y="416" on="1"/>
        <pt x="246" y="429" on="0"/>
        <pt x="250" y="436" on="0"/>
        <pt x="258" y="436" on="1"/>
        <pt x="270" y="436" on="0"/>
        <pt x="270" y="424" on="1"/>
        <pt x="270" y="422" on="0"/>
        <pt x="263" y="395" on="0"/>
        <pt x="261" y="385" on="1"/>
        <pt x="598" y="385" on="1"/>
        <pt x="600" y="390" on="0"/>
        <pt x="604" y="411" on="0"/>
        <pt x="606" y="415" on="1"/>
        <pt x="609" y="428" on="0"/>
        <pt x="613" y="436" on="0"/>
        <pt x="621" y="436" on="1"/>
        <pt x="633" y="436" on="0"/>
        <pt x="633" y="424" on="1"/>
        <pt x="633" y="420" on="0"/>
        <pt x="631" y="412" on="0"/>
        <pt x="630" y="409" on="1"/>
        <pt x="599" y="288" on="1"/>
        <pt x="596" y="275" on="0"/>
        <pt x="592" y="268" on="0"/>
        <pt x="584" y="268" on="1"/>
        <pt x="572" y="268" on="0"/>
        <pt x="572" y="280" on="1"/>
        <pt x="572" y="282" on="0"/>
        <pt x="579" y="309" on="0"/>
        <pt x="581" y="319" on="1"/>
        <pt x="244" y="319" on="1"/>
        <pt x="242" y="314" on="0"/>
        <pt x="238" y="293" on="0"/>
        <pt x="236" y="289" on="1"/>
        <pt x="233" y="276" on="0"/>
        <pt x="229" y="268" on="0"/>
        <pt x="221" y="268" on="1"/>
        <pt x="209" y="268" on="0"/>
        <pt x="209" y="280" on="1"/>
        <pt x="209" y="284" on="0"/>
        <pt x="211" y="292" on="0"/>
        <pt x="212" y="295" on="1"/>
      </contour>
    </TTGlyph>
    <TTGlyph name="Y" xMin="35" yMin="0" xMax="762" yMax="683">
      <contour>
        <pt x="349" y="284" on="1"/>
        <pt x="343" y="277" on="0"/>
        <pt x="339" y="267" on="0"/>
        <pt x="335" y="253" on="1"/>
        <pt x="300" y="112" on="1"/>
        <pt x="298" y="104" on="0"/>
        <pt x="293" y="84" on="0"/>
        <pt x="289" y="66" on="0"/>
        <pt x="286" y="52" on="0"/>
        <pt x="286" y="49" on="1"/>
        <pt x="286" y="40" on="0"/>
        <pt x="297" y="35" on="0"/>
        <pt x="313" y="33" on="1"/>
        <pt x="326" y="31" on="0"/>
        <pt x="349" y="31" on="0"/>
        <pt x="351" y="31" on="1"/>
        <pt x="365" y="31" on="0"/>
        <pt x="379" y="28" on="0"/>
        <pt x="379" y="20" on="1"/>
        <pt x="379" y="5" on="0"/>
        <pt x="365" y="0" on="0"/>
        <pt x="360" y="0" on="1"/>
        <pt x="350" y="0" on="0"/>
        <pt x="315" y="1" on="0"/>
        <pt x="277" y="2" on="0"/>
        <pt x="243" y="3" on="0"/>
        <pt x="232" y="3" on="1"/>
        <pt x="222" y="3" on="0"/>
        <pt x="187" y="2" on="0"/>
        <pt x="151" y="1" on="0"/>
        <pt x="117" y="0" on="0"/>
        <pt x="106" y="0" on="1"/>
        <pt x="104" y="0" on="0"/>
        <pt x="92" y="3" on="0"/>
        <pt x="92" y="11" on="1"/>
        <pt x="92" y="26" on="0"/>
        <pt x="105" y="31" on="0"/>
        <pt x="119" y="31" on="1"/>
        <pt x="149" y="31" on="0"/>
        <pt x="182" y="34" on="0"/>
        <pt x="200" y="46" on="0"/>
        <pt x="208" y="69" on="0"/>
        <pt x="213" y="90" on="1"/>
        <pt x="215" y="97" on="0"/>
        <pt x="229" y="154" on="0"/>
        <pt x="245" y="219" on="0"/>
        <pt x="258" y="271" on="0"/>
        <pt x="258" y="272" on="1"/>
        <pt x="258" y="274" on="0"/>
        <pt x="255" y="287" on="0"/>
        <pt x="254" y="289" on="1"/>
        <pt x="131" y="618" on="1"/>
        <pt x="128" y="627" on="0"/>
        <pt x="121" y="640" on="0"/>
        <pt x="106" y="648" on="0"/>
        <pt x="81" y="652" on="0"/>
        <pt x="58" y="652" on="1"/>
        <pt x="48" y="652" on="0"/>
        <pt x="35" y="655" on="0"/>
        <pt x="35" y="663" on="1"/>
        <pt x="35" y="678" on="0"/>
        <pt x="49" y="683" on="0"/>
        <pt x="54" y="683" on="1"/>
        <pt x="63" y="683" on="0"/>
        <pt x="94" y="682" on="0"/>
        <pt x="126" y="681" on="0"/>
        <pt x="157" y="680" on="0"/>
        <pt x="166" y="680" on="1"/>
        <pt x="177" y="680" on="0"/>
        <pt x="211" y="681" on="0"/>
        <pt x="247" y="682" on="0"/>
        <pt x="282" y="683" on="0"/>
        <pt x="292" y="683" on="1"/>
        <pt x="294" y="683" on="0"/>
        <pt x="307" y="680" on="0"/>
        <pt x="307" y="672" on="1"/>
        <pt x="307" y="657" on="0"/>
        <pt x="294" y="652" on="0"/>
        <pt x="283" y="652" on="1"/>
        <pt x="279" y="652" on="0"/>
        <pt x="260" y="651" on="0"/>
        <pt x="240" y="647" on="0"/>
        <pt x="224" y="637" on="0"/>
        <pt x="224" y="628" on="1"/>
        <pt x="224" y="627" on="0"/>
        <pt x="225" y="622" on="0"/>
        <pt x="230" y="611" on="1"/>
        <pt x="340" y="314" on="1"/>
        <pt x="572" y="581" on="1"/>
        <pt x="574" y="583" on="0"/>
        <pt x="582" y="594" on="0"/>
        <pt x="592" y="607" on="0"/>
        <pt x="599" y="623" on="0"/>
        <pt x="599" y="629" on="1"/>
        <pt x="599" y="637" on="0"/>
        <pt x="590" y="646" on="0"/>
        <pt x="578" y="651" on="0"/>
        <pt x="566" y="652" on="0"/>
        <pt x="563" y="652" on="1"/>
        <pt x="559" y="652" on="0"/>
        <pt x="548" y="656" on="0"/>
        <pt x="548" y="664" on="1"/>
        <pt x="548" y="678" on="0"/>
        <pt x="562" y="683" on="0"/>
        <pt x="567" y="683" on="1"/>
        <pt x="591" y="683" on="0"/>
        <pt x="642" y="680" on="0"/>
        <pt x="667" y="680" on="1"/>
        <pt x="687" y="680" on="0"/>
        <pt x="729" y="683" on="0"/>
        <pt x="749" y="683" on="1"/>
        <pt x="762" y="683" on="0"/>
        <pt x="762" y="671" on="1"/>
        <pt x="762" y="657" on="0"/>
        <pt x="750" y="653" on="0"/>
        <pt x="742" y="652" on="1"/>
        <pt x="717" y="650" on="0"/>
        <pt x="678" y="637" on="0"/>
        <pt x="647" y="617" on="0"/>
        <pt x="622" y="594" on="0"/>
        <pt x="611" y="583" on="1"/>
        <pt x="597" y="569" on="1"/>
      </contour>
    </TTGlyph>
    <TTGlyph name="Z" xMin="58" yMin="0" xMax="723" yMax="683">
      <contour>
        <pt x="161" y="34" on="1"/>
        <pt x="332" y="34" on="1"/>
        <pt x="396" y="34" on="0"/>
        <pt x="481" y="61" on="0"/>
        <pt x="539" y="113" on="0"/>
        <pt x="578" y="191" on="0"/>
        <pt x="594" y="242" on="1"/>
        <pt x="599" y="258" on="0"/>
        <pt x="604" y="267" on="0"/>
        <pt x="611" y="267" on="1"/>
        <pt x="618" y="267" on="0"/>
        <pt x="624" y="260" on="0"/>
        <pt x="624" y="256" on="1"/>
        <pt x="624" y="253" on="0"/>
        <pt x="621" y="244" on="0"/>
        <pt x="620" y="241" on="1"/>
        <pt x="549" y="20" on="1"/>
        <pt x="544" y="6" on="0"/>
        <pt x="536" y="0" on="0"/>
        <pt x="518" y="0" on="1"/>
        <pt x="83" y="0" on="1"/>
        <pt x="69" y="0" on="0"/>
        <pt x="58" y="2" on="0"/>
        <pt x="58" y="9" on="1"/>
        <pt x="58" y="11" on="0"/>
        <pt x="62" y="26" on="0"/>
        <pt x="62" y="27" on="1"/>
        <pt x="621" y="652" on="1"/>
        <pt x="458" y="652" on="1"/>
        <pt x="400" y="652" on="0"/>
        <pt x="319" y="628" on="0"/>
        <pt x="263" y="581" on="0"/>
        <pt x="226" y="512" on="0"/>
        <pt x="212" y="468" on="1"/>
        <pt x="210" y="466" on="0"/>
        <pt x="206" y="458" on="0"/>
        <pt x="199" y="458" on="1"/>
        <pt x="190" y="458" on="0"/>
        <pt x="187" y="468" on="0"/>
        <pt x="187" y="469" on="1"/>
        <pt x="187" y="471" on="0"/>
        <pt x="188" y="479" on="0"/>
        <pt x="190" y="483" on="1"/>
        <pt x="245" y="663" on="1"/>
        <pt x="250" y="677" on="0"/>
        <pt x="258" y="683" on="0"/>
        <pt x="276" y="683" on="1"/>
        <pt x="698" y="683" on="1"/>
        <pt x="713" y="683" on="0"/>
        <pt x="723" y="681" on="0"/>
        <pt x="723" y="674" on="1"/>
        <pt x="723" y="669" on="0"/>
        <pt x="721" y="662" on="0"/>
        <pt x="720" y="659" on="1"/>
      </contour>
    </TTGlyph>
    <TTGlyph name="a" xMin="40" yMin="-11" xMax="498" yMax="442">
      <contour>
        <pt x="373" y="378" on="1"/>
        <pt x="375" y="395" on="0"/>
        <pt x="397" y="422" on="0"/>
        <pt x="415" y="422" on="1"/>
        <pt x="428" y="422" on="0"/>
        <pt x="444" y="408" on="0"/>
        <pt x="444" y="395" on="1"/>
        <pt x="444" y="392" on="0"/>
        <pt x="442" y="382" on="0"/>
        <pt x="437" y="361" on="1"/>
        <pt x="401" y="221" on="1"/>
        <pt x="398" y="207" on="0"/>
        <pt x="393" y="187" on="0"/>
        <pt x="389" y="168" on="0"/>
        <pt x="383" y="147" on="0"/>
        <pt x="379" y="131" on="1"/>
        <pt x="375" y="115" on="0"/>
        <pt x="370" y="93" on="0"/>
        <pt x="367" y="78" on="0"/>
        <pt x="366" y="65" on="0"/>
        <pt x="366" y="57" on="1"/>
        <pt x="366" y="42" on="0"/>
        <pt x="376" y="11" on="0"/>
        <pt x="396" y="11" on="1"/>
        <pt x="411" y="11" on="0"/>
        <pt x="434" y="31" on="0"/>
        <pt x="452" y="66" on="0"/>
        <pt x="466" y="111" on="0"/>
        <pt x="472" y="135" on="1"/>
        <pt x="474" y="146" on="0"/>
        <pt x="478" y="153" on="0"/>
        <pt x="486" y="153" on="1"/>
        <pt x="488" y="153" on="0"/>
        <pt x="498" y="151" on="0"/>
        <pt x="498" y="143" on="1"/>
        <pt x="498" y="142" on="0"/>
        <pt x="493" y="121" on="0"/>
        <pt x="485" y="91" on="0"/>
        <pt x="474" y="58" on="0"/>
        <pt x="468" y="44" on="1"/>
        <pt x="456" y="20" on="0"/>
        <pt x="420" y="-11" on="0"/>
        <pt x="394" y="-11" on="1"/>
        <pt x="358" y="-11" on="0"/>
        <pt x="309" y="32" on="0"/>
        <pt x="303" y="64" on="1"/>
        <pt x="281" y="37" on="0"/>
        <pt x="240" y="7" on="0"/>
        <pt x="206" y="-8" on="0"/>
        <pt x="181" y="-11" on="0"/>
        <pt x="173" y="-11" on="1"/>
        <pt x="144" y="-11" on="0"/>
        <pt x="95" y="13" on="0"/>
        <pt x="60" y="55" on="0"/>
        <pt x="40" y="114" on="0"/>
        <pt x="40" y="149" on="1"/>
        <pt x="40" y="204" on="0"/>
        <pt x="82" y="309" on="0"/>
        <pt x="151" y="392" on="0"/>
        <pt x="237" y="442" on="0"/>
        <pt x="281" y="442" on="1"/>
        <pt x="315" y="442" on="0"/>
        <pt x="359" y="406" on="0"/>
      </contour>
      <contour>
        <pt x="358" y="315" on="1"/>
        <pt x="359" y="319" on="0"/>
        <pt x="361" y="327" on="0"/>
        <pt x="361" y="332" on="1"/>
        <pt x="361" y="334" on="0"/>
        <pt x="355" y="362" on="0"/>
        <pt x="337" y="394" on="0"/>
        <pt x="306" y="420" on="0"/>
        <pt x="282" y="420" on="1"/>
        <pt x="252" y="420" on="0"/>
        <pt x="189" y="369" on="0"/>
        <pt x="166" y="324" on="1"/>
        <pt x="157" y="307" on="0"/>
        <pt x="138" y="248" on="0"/>
        <pt x="122" y="184" on="0"/>
        <pt x="111" y="124" on="0"/>
        <pt x="111" y="105" on="1"/>
        <pt x="111" y="90" on="0"/>
        <pt x="117" y="57" on="0"/>
        <pt x="132" y="29" on="0"/>
        <pt x="156" y="11" on="0"/>
        <pt x="175" y="11" on="1"/>
        <pt x="196" y="11" on="0"/>
        <pt x="255" y="40" on="0"/>
        <pt x="288" y="82" on="1"/>
        <pt x="299" y="95" on="0"/>
        <pt x="304" y="106" on="0"/>
        <pt x="308" y="119" on="1"/>
      </contour>
    </TTGlyph>
    <TTGlyph name="alpha" xMin="41" yMin="-11" xMax="602" yMax="442">
      <contour>
        <pt x="477" y="174" on="1"/>
        <pt x="512" y="219" on="0"/>
        <pt x="561" y="324" on="0"/>
        <pt x="575" y="372" on="1"/>
        <pt x="579" y="386" on="0"/>
        <pt x="582" y="393" on="0"/>
        <pt x="590" y="393" on="1"/>
        <pt x="598" y="393" on="0"/>
        <pt x="602" y="385" on="0"/>
        <pt x="602" y="383" on="1"/>
        <pt x="602" y="383" on="0"/>
        <pt x="593" y="342" on="0"/>
        <pt x="567" y="276" on="0"/>
        <pt x="522" y="192" on="0"/>
        <pt x="487" y="148" on="1"/>
        <pt x="479" y="139" on="0"/>
        <pt x="477" y="129" on="0"/>
        <pt x="477" y="113" on="1"/>
        <pt x="477" y="104" on="0"/>
        <pt x="478" y="70" on="0"/>
        <pt x="484" y="36" on="0"/>
        <pt x="496" y="11" on="0"/>
        <pt x="508" y="11" on="1"/>
        <pt x="509" y="11" on="0"/>
        <pt x="521" y="13" on="0"/>
        <pt x="539" y="22" on="0"/>
        <pt x="557" y="42" on="0"/>
        <pt x="564" y="60" on="1"/>
        <pt x="568" y="70" on="0"/>
        <pt x="577" y="70" on="1"/>
        <pt x="582" y="70" on="0"/>
        <pt x="589" y="65" on="0"/>
        <pt x="589" y="60" on="1"/>
        <pt x="589" y="54" on="0"/>
        <pt x="578" y="30" on="0"/>
        <pt x="556" y="7" on="0"/>
        <pt x="525" y="-11" on="0"/>
        <pt x="505" y="-11" on="1"/>
        <pt x="471" y="-11" on="0"/>
        <pt x="424" y="33" on="0"/>
        <pt x="414" y="73" on="1"/>
        <pt x="357" y="27" on="0"/>
        <pt x="251" y="-11" on="0"/>
        <pt x="203" y="-11" on="1"/>
        <pt x="165" y="-11" on="0"/>
        <pt x="105" y="16" on="0"/>
        <pt x="63" y="62" on="0"/>
        <pt x="41" y="123" on="0"/>
        <pt x="41" y="158" on="1"/>
        <pt x="41" y="211" on="0"/>
        <pt x="87" y="313" on="0"/>
        <pt x="162" y="393" on="0"/>
        <pt x="259" y="442" on="0"/>
        <pt x="310" y="442" on="1"/>
        <pt x="338" y="442" on="0"/>
        <pt x="397" y="422" on="0"/>
        <pt x="446" y="374" on="0"/>
        <pt x="477" y="295" on="0"/>
        <pt x="477" y="236" on="1"/>
      </contour>
      <contour>
        <pt x="410" y="99" on="1"/>
        <pt x="409" y="105" on="0"/>
        <pt x="408" y="132" on="0"/>
        <pt x="408" y="163" on="0"/>
        <pt x="408" y="197" on="0"/>
        <pt x="408" y="211" on="1"/>
        <pt x="408" y="240" on="0"/>
        <pt x="405" y="313" on="0"/>
        <pt x="386" y="377" on="0"/>
        <pt x="346" y="420" on="0"/>
        <pt x="309" y="420" on="1"/>
        <pt x="296" y="420" on="0"/>
        <pt x="263" y="412" on="0"/>
        <pt x="228" y="391" on="0"/>
        <pt x="191" y="355" on="0"/>
        <pt x="173" y="328" on="1"/>
        <pt x="161" y="309" on="0"/>
        <pt x="140" y="253" on="0"/>
        <pt x="124" y="194" on="0"/>
        <pt x="115" y="138" on="0"/>
        <pt x="115" y="120" on="1"/>
        <pt x="115" y="72" on="0"/>
        <pt x="160" y="11" on="0"/>
        <pt x="205" y="11" on="1"/>
        <pt x="220" y="11" on="0"/>
        <pt x="263" y="17" on="0"/>
        <pt x="316" y="35" on="0"/>
        <pt x="377" y="70" on="0"/>
      </contour>
    </TTGlyph>
    <TTGlyph name="b" xMin="47" yMin="-11" xMax="415" yMax="694">
      <contour>
        <pt x="165" y="382" on="1"/>
        <pt x="188" y="405" on="0"/>
        <pt x="247" y="442" on="0"/>
        <pt x="282" y="442" on="1"/>
        <pt x="312" y="442" on="0"/>
        <pt x="361" y="418" on="0"/>
        <pt x="396" y="375" on="0"/>
        <pt x="415" y="316" on="0"/>
        <pt x="415" y="282" on="1"/>
        <pt x="415" y="228" on="0"/>
        <pt x="373" y="123" on="0"/>
        <pt x="305" y="40" on="0"/>
        <pt x="218" y="-11" on="0"/>
        <pt x="174" y="-11" on="1"/>
        <pt x="118" y="-11" on="0"/>
        <pt x="47" y="74" on="0"/>
        <pt x="47" y="146" on="1"/>
        <pt x="47" y="159" on="0"/>
        <pt x="49" y="180" on="0"/>
        <pt x="52" y="202" on="0"/>
        <pt x="59" y="228" on="0"/>
        <pt x="63" y="247" on="1"/>
        <pt x="145" y="573" on="1"/>
        <pt x="147" y="581" on="0"/>
        <pt x="152" y="600" on="0"/>
        <pt x="156" y="618" on="0"/>
        <pt x="159" y="632" on="0"/>
        <pt x="159" y="635" on="1"/>
        <pt x="159" y="643" on="0"/>
        <pt x="145" y="652" on="0"/>
        <pt x="109" y="652" on="1"/>
        <pt x="98" y="652" on="0"/>
        <pt x="85" y="655" on="0"/>
        <pt x="85" y="664" on="1"/>
        <pt x="85" y="678" on="0"/>
        <pt x="98" y="683" on="0"/>
        <pt x="104" y="684" on="1"/>
        <pt x="114" y="685" on="0"/>
        <pt x="148" y="688" on="0"/>
        <pt x="184" y="691" on="0"/>
        <pt x="217" y="694" on="0"/>
        <pt x="226" y="694" on="1"/>
        <pt x="236" y="694" on="0"/>
        <pt x="239" y="684" on="0"/>
        <pt x="239" y="683" on="1"/>
      </contour>
      <contour>
        <pt x="123" y="213" on="1"/>
        <pt x="111" y="166" on="0"/>
        <pt x="107" y="126" on="0"/>
        <pt x="107" y="112" on="1"/>
        <pt x="107" y="84" on="0"/>
        <pt x="118" y="46" on="0"/>
        <pt x="137" y="22" on="0"/>
        <pt x="161" y="11" on="0"/>
        <pt x="174" y="11" on="1"/>
        <pt x="203" y="11" on="0"/>
        <pt x="267" y="63" on="0"/>
        <pt x="292" y="114" on="1"/>
        <pt x="299" y="128" on="0"/>
        <pt x="316" y="181" on="0"/>
        <pt x="332" y="243" on="0"/>
        <pt x="343" y="304" on="0"/>
        <pt x="343" y="326" on="1"/>
        <pt x="343" y="374" on="0"/>
        <pt x="307" y="420" on="0"/>
        <pt x="280" y="420" on="1"/>
        <pt x="260" y="420" on="0"/>
        <pt x="197" y="389" on="0"/>
        <pt x="160" y="340" on="1"/>
        <pt x="157" y="336" on="0"/>
        <pt x="153" y="330" on="0"/>
        <pt x="150" y="323" on="0"/>
        <pt x="147" y="313" on="0"/>
        <pt x="145" y="305" on="1"/>
      </contour>
    </TTGlyph>
    <TTGlyph name="beta" xMin="29" yMin="-194" xMax="575" yMax="706">
      <contour>
        <pt x="575" y="569" on="1"/>
        <pt x="575" y="542" on="0"/>
        <pt x="555" y="492" on="0"/>
        <pt x="523" y="449" on="0"/>
        <pt x="482" y="414" on="0"/>
        <pt x="460" y="402" on="1"/>
        <pt x="487" y="383" on="0"/>
        <pt x="533" y="307" on="0"/>
        <pt x="533" y="253" on="1"/>
        <pt x="533" y="198" on="0"/>
        <pt x="488" y="102" on="0"/>
        <pt x="412" y="31" on="0"/>
        <pt x="314" y="-10" on="0"/>
        <pt x="260" y="-10" on="1"/>
        <pt x="205" y="-10" on="0"/>
        <pt x="138" y="42" on="0"/>
        <pt x="124" y="87" on="1"/>
        <pt x="54" y="-189" on="1"/>
        <pt x="52" y="-194" on="0"/>
        <pt x="42" y="-194" on="1"/>
        <pt x="36" y="-194" on="0"/>
        <pt x="29" y="-187" on="0"/>
        <pt x="30" y="-184" on="1"/>
        <pt x="189" y="451" on="1"/>
        <pt x="196" y="480" on="0"/>
        <pt x="223" y="542" on="0"/>
        <pt x="257" y="600" on="0"/>
        <pt x="297" y="649" on="0"/>
        <pt x="318" y="664" on="1"/>
        <pt x="344" y="684" on="0"/>
        <pt x="396" y="706" on="0"/>
        <pt x="439" y="706" on="1"/>
        <pt x="469" y="706" on="0"/>
        <pt x="519" y="684" on="0"/>
        <pt x="555" y="647" on="0"/>
        <pt x="575" y="597" on="0"/>
      </contour>
      <contour>
        <pt x="395" y="403" on="1"/>
        <pt x="385" y="407" on="0"/>
        <pt x="368" y="408" on="0"/>
        <pt x="352" y="408" on="1"/>
        <pt x="348" y="408" on="0"/>
        <pt x="332" y="408" on="0"/>
        <pt x="316" y="407" on="0"/>
        <pt x="304" y="404" on="0"/>
        <pt x="303" y="400" on="1"/>
        <pt x="311" y="396" on="0"/>
        <pt x="336" y="396" on="0"/>
        <pt x="347" y="396" on="1"/>
        <pt x="365" y="396" on="0"/>
        <pt x="385" y="399" on="0"/>
      </contour>
      <contour>
        <pt x="519" y="592" on="1"/>
        <pt x="519" y="637" on="0"/>
        <pt x="470" y="683" on="0"/>
        <pt x="426" y="683" on="1"/>
        <pt x="381" y="683" on="0"/>
        <pt x="309" y="631" on="0"/>
        <pt x="255" y="555" on="0"/>
        <pt x="220" y="470" on="0"/>
        <pt x="212" y="438" on="1"/>
        <pt x="148" y="185" on="1"/>
        <pt x="144" y="171" on="0"/>
        <pt x="143" y="149" on="0"/>
        <pt x="143" y="141" on="1"/>
        <pt x="143" y="114" on="0"/>
        <pt x="157" y="67" on="0"/>
        <pt x="186" y="32" on="0"/>
        <pt x="229" y="12" on="0"/>
        <pt x="257" y="12" on="1"/>
        <pt x="278" y="12" on="0"/>
        <pt x="324" y="25" on="0"/>
        <pt x="367" y="49" on="0"/>
        <pt x="405" y="82" on="0"/>
        <pt x="420" y="102" on="1"/>
        <pt x="431" y="117" on="0"/>
        <pt x="449" y="158" on="0"/>
        <pt x="463" y="204" on="0"/>
        <pt x="471" y="252" on="0"/>
        <pt x="470" y="274" on="1"/>
        <pt x="469" y="309" on="0"/>
        <pt x="455" y="360" on="0"/>
        <pt x="426" y="387" on="1"/>
        <pt x="415" y="383" on="0"/>
        <pt x="397" y="377" on="0"/>
        <pt x="379" y="375" on="0"/>
        <pt x="358" y="374" on="0"/>
        <pt x="344" y="374" on="1"/>
        <pt x="337" y="374" on="0"/>
        <pt x="314" y="374" on="0"/>
        <pt x="291" y="378" on="0"/>
        <pt x="275" y="389" on="0"/>
        <pt x="275" y="399" on="1"/>
        <pt x="275" y="411" on="0"/>
        <pt x="291" y="424" on="0"/>
        <pt x="314" y="430" on="0"/>
        <pt x="339" y="431" on="0"/>
        <pt x="348" y="431" on="1"/>
        <pt x="371" y="431" on="0"/>
        <pt x="407" y="427" on="0"/>
        <pt x="429" y="419" on="1"/>
        <pt x="449" y="431" on="0"/>
        <pt x="482" y="468" on="0"/>
        <pt x="506" y="514" on="0"/>
        <pt x="519" y="566" on="0"/>
      </contour>
    </TTGlyph>
    <TTGlyph name="c" xMin="41" yMin="-11" xMax="430" yMax="442">
      <contour>
        <pt x="396" y="380" on="1"/>
        <pt x="385" y="400" on="0"/>
        <pt x="336" y="420" on="0"/>
        <pt x="310" y="420" on="1"/>
        <pt x="268" y="420" on="0"/>
        <pt x="192" y="363" on="0"/>
        <pt x="169" y="320" on="1"/>
        <pt x="156" y="297" on="0"/>
        <pt x="136" y="240" on="0"/>
        <pt x="122" y="184" on="0"/>
        <pt x="115" y="135" on="0"/>
        <pt x="115" y="120" on="1"/>
        <pt x="115" y="75" on="0"/>
        <pt x="158" y="11" on="0"/>
        <pt x="205" y="11" on="1"/>
        <pt x="210" y="11" on="0"/>
        <pt x="251" y="14" on="0"/>
        <pt x="309" y="33" on="0"/>
        <pt x="375" y="73" on="0"/>
        <pt x="405" y="110" on="1"/>
        <pt x="413" y="120" on="0"/>
        <pt x="418" y="120" on="1"/>
        <pt x="423" y="120" on="0"/>
        <pt x="430" y="112" on="0"/>
        <pt x="430" y="107" on="1"/>
        <pt x="430" y="103" on="0"/>
        <pt x="399" y="65" on="0"/>
        <pt x="341" y="23" on="0"/>
        <pt x="257" y="-11" on="0"/>
        <pt x="203" y="-11" on="1"/>
        <pt x="164" y="-11" on="0"/>
        <pt x="104" y="17" on="0"/>
        <pt x="62" y="63" on="0"/>
        <pt x="41" y="124" on="0"/>
        <pt x="41" y="158" on="1"/>
        <pt x="41" y="211" on="0"/>
        <pt x="87" y="313" on="0"/>
        <pt x="162" y="393" on="0"/>
        <pt x="258" y="442" on="0"/>
        <pt x="309" y="442" on="1"/>
        <pt x="363" y="442" on="0"/>
        <pt x="427" y="393" on="0"/>
        <pt x="427" y="356" on="1"/>
        <pt x="427" y="326" on="0"/>
        <pt x="393" y="292" on="0"/>
        <pt x="371" y="292" on="1"/>
        <pt x="357" y="292" on="0"/>
        <pt x="334" y="309" on="0"/>
        <pt x="334" y="327" on="1"/>
        <pt x="334" y="332" on="0"/>
        <pt x="340" y="355" on="0"/>
        <pt x="352" y="366" on="1"/>
        <pt x="363" y="377" on="0"/>
        <pt x="384" y="380" on="0"/>
      </contour>
    </TTGlyph>
    <TTGlyph name="chi" xMin="31" yMin="-205" xMax="594" yMax="442">
      <contour>
        <pt x="345" y="136" on="1"/>
        <pt x="351" y="117" on="0"/>
        <pt x="369" y="55" on="0"/>
        <pt x="391" y="-16" on="0"/>
        <pt x="418" y="-88" on="0"/>
        <pt x="446" y="-146" on="0"/>
        <pt x="473" y="-183" on="0"/>
        <pt x="486" y="-183" on="1"/>
        <pt x="500" y="-183" on="0"/>
        <pt x="532" y="-161" on="0"/>
        <pt x="539" y="-143" on="1"/>
        <pt x="541" y="-135" on="0"/>
        <pt x="545" y="-129" on="0"/>
        <pt x="553" y="-129" on="1"/>
        <pt x="561" y="-129" on="0"/>
        <pt x="565" y="-136" on="0"/>
        <pt x="565" y="-140" on="1"/>
        <pt x="565" y="-145" on="0"/>
        <pt x="555" y="-166" on="0"/>
        <pt x="534" y="-188" on="0"/>
        <pt x="502" y="-205" on="0"/>
        <pt x="480" y="-205" on="1"/>
        <pt x="447" y="-205" on="0"/>
        <pt x="403" y="-188" on="0"/>
        <pt x="376" y="-164" on="0"/>
        <pt x="361" y="-136" on="0"/>
        <pt x="356" y="-125" on="1"/>
        <pt x="347" y="-104" on="0"/>
        <pt x="333" y="-66" on="0"/>
        <pt x="318" y="-21" on="0"/>
        <pt x="300" y="35" on="0"/>
        <pt x="288" y="74" on="1"/>
        <pt x="59" y="-183" on="1"/>
        <pt x="56" y="-186" on="0"/>
        <pt x="48" y="-194" on="0"/>
        <pt x="43" y="-194" on="1"/>
        <pt x="38" y="-194" on="0"/>
        <pt x="31" y="-187" on="0"/>
        <pt x="31" y="-182" on="1"/>
        <pt x="31" y="-180" on="0"/>
        <pt x="34" y="-174" on="0"/>
        <pt x="42" y="-166" on="1"/>
        <pt x="272" y="91" on="1"/>
        <pt x="278" y="97" on="0"/>
        <pt x="280" y="101" on="0"/>
        <pt x="280" y="102" on="1"/>
        <pt x="280" y="103" on="0"/>
        <pt x="269" y="143" on="0"/>
        <pt x="251" y="202" on="0"/>
        <pt x="228" y="270" on="0"/>
        <pt x="216" y="300" on="1"/>
        <pt x="210" y="317" on="0"/>
        <pt x="192" y="358" on="0"/>
        <pt x="172" y="395" on="0"/>
        <pt x="150" y="420" on="0"/>
        <pt x="139" y="420" on="1"/>
        <pt x="137" y="420" on="0"/>
        <pt x="124" y="418" on="0"/>
        <pt x="108" y="409" on="0"/>
        <pt x="92" y="392" on="0"/>
        <pt x="86" y="377" on="1"/>
        <pt x="84" y="373" on="0"/>
        <pt x="80" y="366" on="0"/>
        <pt x="73" y="366" on="1"/>
        <pt x="64" y="366" on="0"/>
        <pt x="61" y="375" on="0"/>
        <pt x="61" y="376" on="1"/>
        <pt x="61" y="381" on="0"/>
        <pt x="71" y="403" on="0"/>
        <pt x="92" y="425" on="0"/>
        <pt x="123" y="442" on="0"/>
        <pt x="145" y="442" on="1"/>
        <pt x="178" y="442" on="0"/>
        <pt x="221" y="426" on="0"/>
        <pt x="248" y="403" on="0"/>
        <pt x="262" y="378" on="0"/>
        <pt x="266" y="369" on="1"/>
        <pt x="275" y="349" on="0"/>
        <pt x="288" y="316" on="0"/>
        <pt x="303" y="273" on="0"/>
        <pt x="322" y="212" on="0"/>
        <pt x="337" y="164" on="1"/>
        <pt x="566" y="419" on="1"/>
        <pt x="571" y="424" on="0"/>
        <pt x="577" y="431" on="0"/>
        <pt x="582" y="431" on="1"/>
        <pt x="588" y="431" on="0"/>
        <pt x="594" y="424" on="0"/>
        <pt x="594" y="419" on="1"/>
        <pt x="594" y="417" on="0"/>
        <pt x="591" y="411" on="0"/>
        <pt x="583" y="403" on="1"/>
      </contour>
    </TTGlyph>
    <TTGlyph name="comma" xMin="86" yMin="-193" xMax="203" yMax="106">
      <contour>
        <pt x="203" y="1" on="1"/>
        <pt x="203" y="-43" on="0"/>
        <pt x="178" y="-114" on="0"/>
        <pt x="146" y="-165" on="0"/>
        <pt x="116" y="-193" on="0"/>
        <pt x="112" y="-193" on="1"/>
        <pt x="102" y="-193" on="0"/>
        <pt x="102" y="-182" on="1"/>
        <pt x="102" y="-180" on="0"/>
        <pt x="105" y="-174" on="0"/>
        <pt x="113" y="-166" on="1"/>
        <pt x="138" y="-141" on="0"/>
        <pt x="181" y="-55" on="0"/>
        <pt x="181" y="1" on="1"/>
        <pt x="181" y="12" on="0"/>
        <pt x="180" y="16" on="0"/>
        <pt x="179" y="16" on="1"/>
        <pt x="179" y="16" on="0"/>
        <pt x="174" y="13" on="1"/>
        <pt x="166" y="6" on="0"/>
        <pt x="148" y="0" on="0"/>
        <pt x="139" y="0" on="1"/>
        <pt x="114" y="0" on="0"/>
        <pt x="86" y="33" on="0"/>
        <pt x="86" y="53" on="1"/>
        <pt x="86" y="74" on="0"/>
        <pt x="114" y="106" on="0"/>
        <pt x="139" y="106" on="1"/>
        <pt x="168" y="106" on="0"/>
        <pt x="203" y="51" on="0"/>
      </contour>
    </TTGlyph>
    <TTGlyph name="d" xMin="40" yMin="-11" xMax="516" yMax="694">
      <contour>
        <pt x="372" y="105" on="1"/>
        <pt x="369" y="92" on="0"/>
        <pt x="366" y="75" on="0"/>
        <pt x="366" y="57" on="1"/>
        <pt x="366" y="42" on="0"/>
        <pt x="376" y="11" on="0"/>
        <pt x="396" y="11" on="1"/>
        <pt x="411" y="11" on="0"/>
        <pt x="434" y="31" on="0"/>
        <pt x="452" y="66" on="0"/>
        <pt x="466" y="111" on="0"/>
        <pt x="472" y="135" on="1"/>
        <pt x="474" y="146" on="0"/>
        <pt x="478" y="153" on="0"/>
        <pt x="486" y="153" on="1"/>
        <pt x="488" y="153" on="0"/>
        <pt x="498" y="151" on="0"/>
        <pt x="498" y="143" on="1"/>
        <pt x="498" y="142" on="0"/>
        <pt x="493" y="121" on="0"/>
        <pt x="485" y="91" on="0"/>
        <pt x="474" y="58" on="0"/>
        <pt x="468" y="44" on="1"/>
        <pt x="456" y="20" on="0"/>
        <pt x="420" y="-11" on="0"/>
        <pt x="394" y="-11" on="1"/>
        <pt x="358" y="-11" on="0"/>
        <pt x="309" y="32" on="0"/>
        <pt x="303" y="64" on="1"/>
        <pt x="281" y="37" on="0"/>
        <pt x="240" y="7" on="0"/>
        <pt x="206" y="-8" on="0"/>
        <pt x="181" y="-11" on="0"/>
        <pt x="173" y="-11" on="1"/>
        <pt x="144" y="-11" on="0"/>
        <pt x="95" y="13" on="0"/>
        <pt x="60" y="55" on="0"/>
        <pt x="40" y="114" on="0"/>
        <pt x="40" y="149" on="1"/>
        <pt x="40" y="204" on="0"/>
        <pt x="82" y="309" on="0"/>
        <pt x="151" y="392" on="0"/>
        <pt x="237" y="442" on="0"/>
        <pt x="281" y="442" on="1"/>
        <pt x="315" y="442" on="0"/>
        <pt x="359" y="406" on="0"/>
        <pt x="373" y="378" on="1"/>
        <pt x="433" y="615" on="1"/>
        <pt x="436" y="635" on="1"/>
        <pt x="436" y="643" on="0"/>
        <pt x="422" y="652" on="0"/>
        <pt x="386" y="652" on="1"/>
        <pt x="375" y="652" on="0"/>
        <pt x="362" y="655" on="0"/>
        <pt x="362" y="664" on="1"/>
        <pt x="362" y="681" on="0"/>
        <pt x="376" y="683" on="1"/>
        <pt x="382" y="684" on="0"/>
        <pt x="419" y="687" on="0"/>
        <pt x="461" y="691" on="0"/>
        <pt x="497" y="694" on="0"/>
        <pt x="503" y="694" on="1"/>
        <pt x="513" y="694" on="0"/>
        <pt x="516" y="684" on="0"/>
        <pt x="516" y="683" on="1"/>
      </contour>
      <contour>
        <pt x="358" y="315" on="1"/>
        <pt x="359" y="319" on="0"/>
        <pt x="361" y="327" on="0"/>
        <pt x="361" y="332" on="1"/>
        <pt x="361" y="334" on="0"/>
        <pt x="355" y="362" on="0"/>
        <pt x="337" y="394" on="0"/>
        <pt x="306" y="420" on="0"/>
        <pt x="282" y="420" on="1"/>
        <pt x="252" y="420" on="0"/>
        <pt x="189" y="369" on="0"/>
        <pt x="166" y="324" on="1"/>
        <pt x="157" y="307" on="0"/>
        <pt x="138" y="248" on="0"/>
        <pt x="122" y="184" on="0"/>
        <pt x="111" y="124" on="0"/>
        <pt x="111" y="105" on="1"/>
        <pt x="111" y="90" on="0"/>
        <pt x="117" y="57" on="0"/>
        <pt x="132" y="29" on="0"/>
        <pt x="156" y="11" on="0"/>
        <pt x="175" y="11" on="1"/>
        <pt x="196" y="11" on="0"/>
        <pt x="255" y="40" on="0"/>
        <pt x="288" y="82" on="1"/>
        <pt x="299" y="95" on="0"/>
        <pt x="304" y="106" on="0"/>
        <pt x="308" y="119" on="1"/>
      </contour>
    </TTGlyph>
    <TTGlyph name="delta" xMin="42" yMin="-12" xMax="452" yMax="711">
      <contour>
        <pt x="264" y="437" on="1"/>
        <pt x="241" y="483" on="0"/>
        <pt x="204" y="567" on="0"/>
        <pt x="204" y="608" on="1"/>
        <pt x="204" y="653" on="0"/>
        <pt x="259" y="711" on="0"/>
        <pt x="318" y="711" on="1"/>
        <pt x="330" y="711" on="0"/>
        <pt x="361" y="708" on="0"/>
        <pt x="400" y="700" on="1"/>
        <pt x="427" y="694" on="0"/>
        <pt x="452" y="684" on="0"/>
        <pt x="452" y="667" on="1"/>
        <pt x="452" y="655" on="0"/>
        <pt x="431" y="627" on="0"/>
        <pt x="412" y="627" on="1"/>
        <pt x="401" y="627" on="0"/>
        <pt x="372" y="643" on="0"/>
        <pt x="357" y="652" on="1"/>
        <pt x="341" y="663" on="0"/>
        <pt x="309" y="679" on="0"/>
        <pt x="286" y="679" on="1"/>
        <pt x="260" y="679" on="0"/>
        <pt x="231" y="650" on="0"/>
        <pt x="231" y="633" on="1"/>
        <pt x="231" y="617" on="0"/>
        <pt x="251" y="574" on="0"/>
        <pt x="279" y="529" on="0"/>
        <pt x="313" y="486" on="0"/>
        <pt x="326" y="469" on="1"/>
        <pt x="339" y="452" on="0"/>
        <pt x="365" y="415" on="0"/>
        <pt x="386" y="371" on="0"/>
        <pt x="400" y="317" on="0"/>
        <pt x="400" y="283" on="1"/>
        <pt x="400" y="231" on="0"/>
        <pt x="370" y="126" on="0"/>
        <pt x="317" y="41" on="0"/>
        <pt x="244" y="-12" on="0"/>
        <pt x="200" y="-12" on="1"/>
        <pt x="165" y="-12" on="0"/>
        <pt x="107" y="14" on="0"/>
        <pt x="65" y="59" on="0"/>
        <pt x="42" y="120" on="0"/>
        <pt x="42" y="156" on="1"/>
        <pt x="42" y="201" on="0"/>
        <pt x="76" y="292" on="0"/>
        <pt x="136" y="369" on="0"/>
        <pt x="217" y="426" on="0"/>
      </contour>
      <contour>
        <pt x="276" y="415" on="1"/>
        <pt x="242" y="406" on="0"/>
        <pt x="191" y="365" on="0"/>
        <pt x="152" y="312" on="0"/>
        <pt x="126" y="251" on="0"/>
        <pt x="111" y="194" on="0"/>
        <pt x="104" y="144" on="0"/>
        <pt x="104" y="128" on="1"/>
        <pt x="104" y="71" on="0"/>
        <pt x="158" y="10" on="0"/>
        <pt x="200" y="10" on="1"/>
        <pt x="235" y="10" on="0"/>
        <pt x="285" y="64" on="0"/>
        <pt x="316" y="139" on="0"/>
        <pt x="331" y="218" on="0"/>
        <pt x="331" y="243" on="1"/>
        <pt x="331" y="297" on="0"/>
        <pt x="295" y="380" on="0"/>
      </contour>
    </TTGlyph>
    <TTGlyph name="dotlessi" xMin="29" yMin="-11" xMax="293" yMax="442">
      <contour>
        <pt x="169" y="144" on="1"/>
        <pt x="160" y="121" on="0"/>
        <pt x="149" y="91" on="0"/>
        <pt x="143" y="70" on="0"/>
        <pt x="140" y="53" on="0"/>
        <pt x="140" y="44" on="1"/>
        <pt x="140" y="11" on="0"/>
        <pt x="164" y="11" on="1"/>
        <pt x="183" y="11" on="0"/>
        <pt x="215" y="32" on="0"/>
        <pt x="240" y="67" on="0"/>
        <pt x="259" y="111" on="0"/>
        <pt x="266" y="135" on="1"/>
        <pt x="270" y="146" on="0"/>
        <pt x="273" y="153" on="0"/>
        <pt x="281" y="153" on="1"/>
        <pt x="283" y="153" on="0"/>
        <pt x="293" y="151" on="0"/>
        <pt x="293" y="143" on="1"/>
        <pt x="293" y="141" on="0"/>
        <pt x="287" y="116" on="0"/>
        <pt x="273" y="82" on="0"/>
        <pt x="252" y="43" on="0"/>
        <pt x="223" y="11" on="0"/>
        <pt x="185" y="-11" on="0"/>
        <pt x="162" y="-11" on="1"/>
        <pt x="126" y="-11" on="0"/>
        <pt x="80" y="36" on="0"/>
        <pt x="80" y="71" on="1"/>
        <pt x="80" y="87" on="0"/>
        <pt x="95" y="131" on="0"/>
        <pt x="103" y="151" on="1"/>
        <pt x="109" y="167" on="0"/>
        <pt x="130" y="222" on="0"/>
        <pt x="151" y="278" on="0"/>
        <pt x="169" y="326" on="0"/>
        <pt x="172" y="336" on="1"/>
        <pt x="175" y="344" on="0"/>
        <pt x="183" y="372" on="0"/>
        <pt x="183" y="388" on="1"/>
        <pt x="183" y="412" on="0"/>
        <pt x="164" y="420" on="0"/>
        <pt x="158" y="420" on="1"/>
        <pt x="145" y="420" on="0"/>
        <pt x="118" y="408" on="0"/>
        <pt x="92" y="379" on="0"/>
        <pt x="67" y="331" on="0"/>
        <pt x="57" y="296" on="1"/>
        <pt x="53" y="284" on="0"/>
        <pt x="49" y="278" on="0"/>
        <pt x="41" y="278" on="1"/>
        <pt x="39" y="278" on="0"/>
        <pt x="29" y="280" on="0"/>
        <pt x="29" y="288" on="1"/>
        <pt x="29" y="290" on="0"/>
        <pt x="36" y="315" on="0"/>
        <pt x="49" y="349" on="0"/>
        <pt x="70" y="388" on="0"/>
        <pt x="100" y="420" on="0"/>
        <pt x="138" y="442" on="0"/>
        <pt x="161" y="442" on="1"/>
        <pt x="199" y="442" on="0"/>
        <pt x="243" y="394" on="0"/>
        <pt x="243" y="360" on="1"/>
        <pt x="243" y="346" on="0"/>
        <pt x="236" y="322" on="0"/>
        <pt x="230" y="307" on="1"/>
        <pt x="226" y="297" on="0"/>
        <pt x="222" y="284" on="0"/>
        <pt x="218" y="273" on="0"/>
        <pt x="213" y="260" on="0"/>
        <pt x="208" y="249" on="1"/>
      </contour>
    </TTGlyph>
    <TTGlyph name="e" xMin="46" yMin="-11" xMax="430" yMax="442">
      <contour>
        <pt x="134" y="231" on="1"/>
        <pt x="123" y="185" on="0"/>
        <pt x="118" y="136" on="0"/>
        <pt x="118" y="127" on="1"/>
        <pt x="118" y="115" on="0"/>
        <pt x="123" y="76" on="0"/>
        <pt x="141" y="38" on="0"/>
        <pt x="176" y="11" on="0"/>
        <pt x="205" y="11" on="1"/>
        <pt x="210" y="11" on="0"/>
        <pt x="251" y="14" on="0"/>
        <pt x="309" y="33" on="0"/>
        <pt x="375" y="73" on="0"/>
        <pt x="405" y="110" on="1"/>
        <pt x="413" y="120" on="0"/>
        <pt x="418" y="120" on="1"/>
        <pt x="423" y="120" on="0"/>
        <pt x="430" y="112" on="0"/>
        <pt x="430" y="107" on="1"/>
        <pt x="430" y="103" on="0"/>
        <pt x="399" y="65" on="0"/>
        <pt x="341" y="23" on="0"/>
        <pt x="257" y="-11" on="0"/>
        <pt x="203" y="-11" on="1"/>
        <pt x="166" y="-11" on="0"/>
        <pt x="108" y="17" on="0"/>
        <pt x="68" y="66" on="0"/>
        <pt x="46" y="132" on="0"/>
        <pt x="46" y="170" on="1"/>
        <pt x="46" y="236" on="0"/>
        <pt x="97" y="337" on="0"/>
        <pt x="174" y="406" on="0"/>
        <pt x="266" y="442" on="0"/>
        <pt x="308" y="442" on="1"/>
        <pt x="360" y="442" on="0"/>
        <pt x="415" y="390" on="0"/>
        <pt x="415" y="357" on="1"/>
        <pt x="415" y="352" on="0"/>
        <pt x="411" y="327" on="0"/>
        <pt x="396" y="296" on="0"/>
        <pt x="366" y="265" on="0"/>
        <pt x="340" y="254" on="1"/>
        <pt x="321" y="246" on="0"/>
        <pt x="277" y="237" on="0"/>
        <pt x="234" y="232" on="0"/>
        <pt x="198" y="231" on="0"/>
        <pt x="187" y="231" on="1"/>
      </contour>
      <contour>
        <pt x="181" y="253" on="1"/>
        <pt x="191" y="253" on="0"/>
        <pt x="229" y="254" on="0"/>
        <pt x="274" y="260" on="0"/>
        <pt x="320" y="272" on="0"/>
        <pt x="358" y="295" on="0"/>
        <pt x="382" y="331" on="0"/>
        <pt x="382" y="357" on="1"/>
        <pt x="382" y="383" on="0"/>
        <pt x="343" y="420" on="0"/>
        <pt x="308" y="420" on="1"/>
        <pt x="298" y="420" on="0"/>
        <pt x="254" y="411" on="0"/>
        <pt x="203" y="376" on="0"/>
        <pt x="155" y="310" on="0"/>
        <pt x="140" y="253" on="1"/>
      </contour>
    </TTGlyph>
    <TTGlyph name="eightoldstyle" xMin="42" yMin="-22" xMax="457" yMax="666">
      <contour>
        <pt x="355" y="330" on="1"/>
        <pt x="366" y="323" on="0"/>
        <pt x="400" y="297" on="0"/>
        <pt x="433" y="258" on="0"/>
        <pt x="457" y="203" on="0"/>
        <pt x="457" y="166" on="1"/>
        <pt x="457" y="127" on="0"/>
        <pt x="424" y="58" on="0"/>
        <pt x="367" y="7" on="0"/>
        <pt x="292" y="-22" on="0"/>
        <pt x="249" y="-22" on="1"/>
        <pt x="209" y="-22" on="0"/>
        <pt x="134" y="3" on="0"/>
        <pt x="77" y="48" on="0"/>
        <pt x="42" y="112" on="0"/>
        <pt x="42" y="151" on="1"/>
        <pt x="42" y="201" on="0"/>
        <pt x="109" y="298" on="0"/>
        <pt x="190" y="336" on="1"/>
        <pt x="180" y="342" on="0"/>
        <pt x="154" y="359" on="0"/>
        <pt x="151" y="361" on="1"/>
        <pt x="144" y="366" on="0"/>
        <pt x="116" y="387" on="0"/>
        <pt x="89" y="421" on="0"/>
        <pt x="69" y="469" on="0"/>
        <pt x="69" y="501" on="1"/>
        <pt x="69" y="535" on="0"/>
        <pt x="97" y="595" on="0"/>
        <pt x="147" y="640" on="0"/>
        <pt x="213" y="666" on="0"/>
        <pt x="250" y="666" on="1"/>
        <pt x="286" y="666" on="0"/>
        <pt x="351" y="644" on="0"/>
        <pt x="400" y="605" on="0"/>
        <pt x="430" y="551" on="0"/>
        <pt x="430" y="518" on="1"/>
        <pt x="430" y="491" on="0"/>
        <pt x="410" y="445" on="0"/>
        <pt x="376" y="406" on="0"/>
        <pt x="331" y="374" on="0"/>
        <pt x="306" y="361" on="1"/>
      </contour>
      <contour>
        <pt x="284" y="376" on="1"/>
        <pt x="332" y="402" on="0"/>
        <pt x="387" y="473" on="0"/>
        <pt x="387" y="518" on="1"/>
        <pt x="387" y="545" on="0"/>
        <pt x="365" y="590" on="0"/>
        <pt x="327" y="623" on="0"/>
        <pt x="277" y="641" on="0"/>
        <pt x="249" y="641" on="1"/>
        <pt x="223" y="641" on="0"/>
        <pt x="174" y="626" on="0"/>
        <pt x="135" y="599" on="0"/>
        <pt x="112" y="560" on="0"/>
        <pt x="112" y="536" on="1"/>
        <pt x="112" y="518" on="0"/>
        <pt x="124" y="490" on="0"/>
        <pt x="144" y="468" on="0"/>
        <pt x="167" y="451" on="0"/>
        <pt x="178" y="444" on="1"/>
      </contour>
      <contour>
        <pt x="212" y="321" on="1"/>
        <pt x="175" y="302" on="0"/>
        <pt x="127" y="257" on="0"/>
        <pt x="101" y="211" on="0"/>
        <pt x="91" y="168" on="0"/>
        <pt x="91" y="151" on="1"/>
        <pt x="91" y="119" on="0"/>
        <pt x="117" y="66" on="0"/>
        <pt x="161" y="27" on="0"/>
        <pt x="219" y="6" on="0"/>
        <pt x="250" y="6" on="1"/>
        <pt x="281" y="6" on="0"/>
        <pt x="338" y="25" on="0"/>
        <pt x="382" y="58" on="0"/>
        <pt x="408" y="105" on="0"/>
        <pt x="408" y="133" on="1"/>
        <pt x="408" y="156" on="0"/>
        <pt x="393" y="191" on="0"/>
        <pt x="370" y="218" on="0"/>
        <pt x="345" y="236" on="0"/>
        <pt x="334" y="243" on="1"/>
        <pt x="309" y="259" on="0"/>
        <pt x="274" y="282" on="0"/>
        <pt x="247" y="299" on="0"/>
        <pt x="224" y="314" on="0"/>
      </contour>
    </TTGlyph>
    <TTGlyph name="epsilon" xMin="26" yMin="-22" xMax="429" yMax="453">
      <contour>
        <pt x="141" y="227" on="1"/>
        <pt x="95" y="204" on="0"/>
        <pt x="52" y="136" on="0"/>
        <pt x="52" y="110" on="1"/>
        <pt x="52" y="83" on="0"/>
        <pt x="80" y="50" on="0"/>
        <pt x="124" y="31" on="0"/>
        <pt x="175" y="24" on="0"/>
        <pt x="198" y="24" on="1"/>
        <pt x="243" y="24" on="0"/>
        <pt x="300" y="36" on="0"/>
        <pt x="334" y="54" on="0"/>
        <pt x="351" y="75" on="0"/>
        <pt x="356" y="84" on="1"/>
        <pt x="358" y="86" on="0"/>
        <pt x="362" y="91" on="0"/>
        <pt x="366" y="91" on="1"/>
        <pt x="377" y="91" on="0"/>
        <pt x="377" y="81" on="1"/>
        <pt x="377" y="75" on="0"/>
        <pt x="355" y="42" on="0"/>
        <pt x="310" y="6" on="0"/>
        <pt x="239" y="-22" on="0"/>
        <pt x="189" y="-22" on="1"/>
        <pt x="149" y="-22" on="0"/>
        <pt x="88" y="-1" on="0"/>
        <pt x="47" y="34" on="0"/>
        <pt x="26" y="80" on="0"/>
        <pt x="26" y="104" on="1"/>
        <pt x="26" y="139" on="0"/>
        <pt x="72" y="214" on="0"/>
        <pt x="117" y="239" on="1"/>
        <pt x="116" y="240" on="0"/>
        <pt x="103" y="251" on="0"/>
        <pt x="88" y="269" on="0"/>
        <pt x="77" y="294" on="0"/>
        <pt x="77" y="310" on="1"/>
        <pt x="77" y="339" on="0"/>
        <pt x="114" y="390" on="0"/>
        <pt x="176" y="430" on="0"/>
        <pt x="257" y="453" on="0"/>
        <pt x="300" y="453" on="1"/>
        <pt x="326" y="453" on="0"/>
        <pt x="372" y="441" on="0"/>
        <pt x="408" y="423" on="0"/>
        <pt x="429" y="403" on="0"/>
        <pt x="429" y="396" on="1"/>
        <pt x="429" y="385" on="0"/>
        <pt x="412" y="369" on="0"/>
        <pt x="402" y="369" on="1"/>
        <pt x="397" y="369" on="0"/>
        <pt x="390" y="373" on="0"/>
        <pt x="382" y="379" on="1"/>
        <pt x="352" y="400" on="0"/>
        <pt x="302" y="407" on="0"/>
        <pt x="290" y="407" on="1"/>
        <pt x="256" y="407" on="0"/>
        <pt x="189" y="394" on="0"/>
        <pt x="135" y="369" on="0"/>
        <pt x="102" y="333" on="0"/>
        <pt x="102" y="310" on="1"/>
        <pt x="102" y="290" on="0"/>
        <pt x="125" y="261" on="0"/>
        <pt x="142" y="252" on="1"/>
        <pt x="170" y="265" on="0"/>
        <pt x="219" y="271" on="0"/>
        <pt x="235" y="271" on="1"/>
        <pt x="264" y="271" on="0"/>
        <pt x="308" y="262" on="0"/>
        <pt x="308" y="244" on="1"/>
        <pt x="308" y="232" on="0"/>
        <pt x="290" y="220" on="0"/>
        <pt x="265" y="214" on="0"/>
        <pt x="237" y="213" on="0"/>
        <pt x="227" y="213" on="1"/>
        <pt x="209" y="213" on="0"/>
        <pt x="166" y="216" on="0"/>
      </contour>
      <contour>
        <pt x="174" y="240" on="1"/>
        <pt x="188" y="236" on="0"/>
        <pt x="210" y="235" on="0"/>
        <pt x="227" y="235" on="1"/>
        <pt x="241" y="235" on="0"/>
        <pt x="258" y="236" on="0"/>
        <pt x="268" y="237" on="0"/>
        <pt x="276" y="240" on="0"/>
        <pt x="282" y="243" on="1"/>
        <pt x="269" y="247" on="0"/>
        <pt x="254" y="249" on="0"/>
        <pt x="235" y="249" on="1"/>
        <pt x="222" y="249" on="0"/>
        <pt x="191" y="246" on="0"/>
      </contour>
    </TTGlyph>
    <TTGlyph name="eta" xMin="29" yMin="-216" xMax="496" yMax="442">
      <contour>
        <pt x="374" y="-176" on="1"/>
        <pt x="373" y="-180" on="0"/>
        <pt x="369" y="-194" on="0"/>
        <pt x="360" y="-207" on="0"/>
        <pt x="345" y="-216" on="0"/>
        <pt x="333" y="-216" on="1"/>
        <pt x="320" y="-216" on="0"/>
        <pt x="305" y="-200" on="0"/>
        <pt x="305" y="-189" on="1"/>
        <pt x="305" y="-187" on="0"/>
        <pt x="306" y="-182" on="0"/>
        <pt x="308" y="-173" on="1"/>
        <pt x="422" y="287" on="1"/>
        <pt x="430" y="317" on="0"/>
        <pt x="432" y="346" on="0"/>
        <pt x="432" y="350" on="1"/>
        <pt x="432" y="377" on="0"/>
        <pt x="410" y="420" on="0"/>
        <pt x="378" y="420" on="1"/>
        <pt x="346" y="420" on="0"/>
        <pt x="299" y="397" on="0"/>
        <pt x="282" y="385" on="1"/>
        <pt x="269" y="375" on="0"/>
        <pt x="246" y="346" on="0"/>
        <pt x="227" y="318" on="0"/>
        <pt x="215" y="296" on="0"/>
        <pt x="214" y="293" on="1"/>
        <pt x="214" y="291" on="0"/>
        <pt x="211" y="278" on="0"/>
        <pt x="207" y="263" on="0"/>
        <pt x="204" y="250" on="0"/>
        <pt x="203" y="248" on="1"/>
        <pt x="199" y="231" on="0"/>
        <pt x="191" y="198" on="0"/>
        <pt x="186" y="181" on="1"/>
        <pt x="164" y="91" on="1"/>
        <pt x="162" y="82" on="0"/>
        <pt x="156" y="57" on="0"/>
        <pt x="150" y="34" on="0"/>
        <pt x="145" y="18" on="0"/>
        <pt x="145" y="17" on="1"/>
        <pt x="140" y="2" on="0"/>
        <pt x="117" y="-11" on="0"/>
        <pt x="108" y="-11" on="1"/>
        <pt x="97" y="-11" on="0"/>
        <pt x="79" y="2" on="0"/>
        <pt x="79" y="16" on="1"/>
        <pt x="79" y="20" on="0"/>
        <pt x="86" y="48" on="0"/>
        <pt x="88" y="59" on="1"/>
        <pt x="146" y="290" on="1"/>
        <pt x="151" y="310" on="0"/>
        <pt x="157" y="335" on="0"/>
        <pt x="161" y="353" on="0"/>
        <pt x="162" y="366" on="0"/>
        <pt x="162" y="374" on="1"/>
        <pt x="162" y="403" on="0"/>
        <pt x="144" y="420" on="0"/>
        <pt x="131" y="420" on="1"/>
        <pt x="104" y="420" on="0"/>
        <pt x="71" y="355" on="0"/>
        <pt x="58" y="301" on="1"/>
        <pt x="53" y="284" on="0"/>
        <pt x="49" y="278" on="0"/>
        <pt x="41" y="278" on="1"/>
        <pt x="39" y="278" on="0"/>
        <pt x="29" y="280" on="0"/>
        <pt x="29" y="288" on="1"/>
        <pt x="29" y="289" on="0"/>
        <pt x="34" y="310" on="0"/>
        <pt x="42" y="340" on="0"/>
        <pt x="53" y="372" on="0"/>
        <pt x="60" y="385" on="1"/>
        <pt x="63" y="392" on="0"/>
        <pt x="74" y="411" on="0"/>
        <pt x="92" y="429" on="0"/>
        <pt x="117" y="442" on="0"/>
        <pt x="134" y="442" on="1"/>
        <pt x="168" y="442" on="0"/>
        <pt x="222" y="398" on="0"/>
        <pt x="226" y="355" on="1"/>
        <pt x="235" y="368" on="0"/>
        <pt x="263" y="399" on="0"/>
        <pt x="302" y="425" on="0"/>
        <pt x="351" y="442" on="0"/>
        <pt x="381" y="442" on="1"/>
        <pt x="438" y="442" on="0"/>
        <pt x="496" y="384" on="0"/>
        <pt x="496" y="335" on="1"/>
        <pt x="496" y="315" on="0"/>
        <pt x="492" y="291" on="0"/>
        <pt x="488" y="277" on="1"/>
      </contour>
    </TTGlyph>
    <TTGlyph name="f" xMin="53" yMin="-205" xMax="552" yMax="705">
      <contour>
        <pt x="307" y="83" on="1"/>
        <pt x="307" y="80" on="0"/>
        <pt x="298" y="38" on="0"/>
        <pt x="283" y="-21" on="0"/>
        <pt x="263" y="-84" on="0"/>
        <pt x="251" y="-108" on="1"/>
        <pt x="244" y="-122" on="0"/>
        <pt x="223" y="-156" on="0"/>
        <pt x="194" y="-185" on="0"/>
        <pt x="159" y="-205" on="0"/>
        <pt x="138" y="-205" on="1"/>
        <pt x="123" y="-205" on="0"/>
        <pt x="92" y="-196" on="0"/>
        <pt x="68" y="-179" on="0"/>
        <pt x="53" y="-153" on="0"/>
        <pt x="53" y="-136" on="1"/>
        <pt x="53" y="-107" on="0"/>
        <pt x="88" y="-76" on="0"/>
        <pt x="108" y="-76" on="1"/>
        <pt x="122" y="-76" on="0"/>
        <pt x="145" y="-94" on="0"/>
        <pt x="145" y="-111" on="1"/>
        <pt x="145" y="-117" on="0"/>
        <pt x="141" y="-134" on="0"/>
        <pt x="129" y="-151" on="0"/>
        <pt x="107" y="-164" on="0"/>
        <pt x="90" y="-165" on="1"/>
        <pt x="104" y="-179" on="0"/>
        <pt x="135" y="-183" on="0"/>
        <pt x="138" y="-183" on="1"/>
        <pt x="158" y="-183" on="0"/>
        <pt x="185" y="-152" on="0"/>
        <pt x="204" y="-99" on="0"/>
        <pt x="218" y="-31" on="0"/>
        <pt x="225" y="5" on="1"/>
        <pt x="300" y="400" on="1"/>
        <pt x="234" y="400" on="1"/>
        <pt x="220" y="400" on="0"/>
        <pt x="206" y="403" on="0"/>
        <pt x="206" y="412" on="1"/>
        <pt x="206" y="426" on="0"/>
        <pt x="222" y="431" on="0"/>
        <pt x="236" y="431" on="1"/>
        <pt x="305" y="431" on="1"/>
        <pt x="314" y="478" on="0"/>
        <pt x="325" y="533" on="0"/>
        <pt x="332" y="565" on="0"/>
        <pt x="336" y="580" on="0"/>
        <pt x="338" y="588" on="1"/>
        <pt x="349" y="625" on="0"/>
        <pt x="382" y="671" on="0"/>
        <pt x="418" y="696" on="0"/>
        <pt x="452" y="705" on="0"/>
        <pt x="465" y="705" on="1"/>
        <pt x="480" y="705" on="0"/>
        <pt x="511" y="696" on="0"/>
        <pt x="536" y="679" on="0"/>
        <pt x="552" y="653" on="0"/>
        <pt x="552" y="636" on="1"/>
        <pt x="552" y="607" on="0"/>
        <pt x="517" y="576" on="0"/>
        <pt x="497" y="576" on="1"/>
        <pt x="483" y="576" on="0"/>
        <pt x="460" y="594" on="0"/>
        <pt x="460" y="611" on="1"/>
        <pt x="460" y="617" on="0"/>
        <pt x="465" y="634" on="0"/>
        <pt x="477" y="650" on="0"/>
        <pt x="498" y="664" on="0"/>
        <pt x="514" y="665" on="1"/>
        <pt x="507" y="672" on="0"/>
        <pt x="491" y="679" on="0"/>
        <pt x="477" y="682" on="0"/>
        <pt x="467" y="683" on="0"/>
        <pt x="465" y="683" on="1"/>
        <pt x="449" y="683" on="0"/>
        <pt x="425" y="663" on="0"/>
        <pt x="418" y="649" on="1"/>
        <pt x="416" y="645" on="0"/>
        <pt x="409" y="617" on="0"/>
        <pt x="402" y="584" on="0"/>
        <pt x="396" y="553" on="0"/>
        <pt x="394" y="545" on="1"/>
        <pt x="373" y="431" on="1"/>
        <pt x="456" y="431" on="1"/>
        <pt x="469" y="431" on="0"/>
        <pt x="483" y="428" on="0"/>
        <pt x="483" y="420" on="1"/>
        <pt x="483" y="405" on="0"/>
        <pt x="468" y="400" on="0"/>
        <pt x="453" y="400" on="1"/>
        <pt x="367" y="400" on="1"/>
      </contour>
    </TTGlyph>
    <TTGlyph name="fiveoldstyle" xMin="50" yMin="-216" xMax="449" yMax="453">
      <contour>
        <pt x="132" y="164" on="1"/>
        <pt x="158" y="190" on="0"/>
        <pt x="224" y="214" on="0"/>
        <pt x="260" y="214" on="1"/>
        <pt x="300" y="214" on="0"/>
        <pt x="369" y="180" on="0"/>
        <pt x="420" y="121" on="0"/>
        <pt x="449" y="44" on="0"/>
        <pt x="449" y="1" on="1"/>
        <pt x="449" y="-45" on="0"/>
        <pt x="414" y="-124" on="0"/>
        <pt x="355" y="-183" on="0"/>
        <pt x="276" y="-216" on="0"/>
        <pt x="232" y="-216" on="1"/>
        <pt x="191" y="-216" on="0"/>
        <pt x="124" y="-184" on="0"/>
        <pt x="76" y="-133" on="0"/>
        <pt x="50" y="-70" on="0"/>
        <pt x="50" y="-38" on="1"/>
        <pt x="50" y="-22" on="0"/>
        <pt x="60" y="-2" on="0"/>
        <pt x="75" y="9" on="0"/>
        <pt x="91" y="13" on="0"/>
        <pt x="97" y="13" on="1"/>
        <pt x="123" y="13" on="0"/>
        <pt x="145" y="-20" on="0"/>
        <pt x="145" y="-34" on="1"/>
        <pt x="145" y="-48" on="0"/>
        <pt x="123" y="-81" on="0"/>
        <pt x="97" y="-81" on="1"/>
        <pt x="90" y="-81" on="0"/>
        <pt x="82" y="-79" on="1"/>
        <pt x="90" y="-106" on="0"/>
        <pt x="121" y="-146" on="0"/>
        <pt x="162" y="-174" on="0"/>
        <pt x="208" y="-188" on="0"/>
        <pt x="230" y="-188" on="1"/>
        <pt x="266" y="-188" on="0"/>
        <pt x="320" y="-155" on="0"/>
        <pt x="335" y="-132" on="1"/>
        <pt x="355" y="-100" on="0"/>
        <pt x="365" y="-32" on="0"/>
        <pt x="365" y="6" on="1"/>
        <pt x="365" y="49" on="0"/>
        <pt x="356" y="105" on="0"/>
        <pt x="345" y="130" on="1"/>
        <pt x="335" y="151" on="0"/>
        <pt x="293" y="192" on="0"/>
        <pt x="259" y="192" on="1"/>
        <pt x="245" y="192" on="0"/>
        <pt x="212" y="187" on="0"/>
        <pt x="177" y="172" on="0"/>
        <pt x="144" y="147" on="0"/>
        <pt x="130" y="127" on="1"/>
        <pt x="126" y="121" on="0"/>
        <pt x="120" y="115" on="0"/>
        <pt x="114" y="115" on="1"/>
        <pt x="104" y="115" on="0"/>
        <pt x="101" y="128" on="0"/>
        <pt x="101" y="143" on="1"/>
        <pt x="101" y="427" on="1"/>
        <pt x="101" y="441" on="0"/>
        <pt x="103" y="452" on="0"/>
        <pt x="110" y="452" on="1"/>
        <pt x="112" y="452" on="0"/>
        <pt x="116" y="451" on="0"/>
        <pt x="121" y="449" on="1"/>
        <pt x="141" y="441" on="0"/>
        <pt x="208" y="422" on="0"/>
        <pt x="255" y="422" on="1"/>
        <pt x="306" y="422" on="0"/>
        <pt x="375" y="443" on="0"/>
        <pt x="392" y="450" on="1"/>
        <pt x="396" y="452" on="0"/>
        <pt x="399" y="453" on="0"/>
        <pt x="400" y="453" on="1"/>
        <pt x="410" y="453" on="0"/>
        <pt x="410" y="442" on="1"/>
        <pt x="410" y="437" on="0"/>
        <pt x="396" y="420" on="0"/>
        <pt x="375" y="400" on="0"/>
        <pt x="351" y="381" on="0"/>
        <pt x="340" y="375" on="1"/>
        <pt x="298" y="352" on="0"/>
        <pt x="234" y="344" on="0"/>
        <pt x="219" y="344" on="1"/>
        <pt x="208" y="344" on="0"/>
        <pt x="164" y="347" on="0"/>
        <pt x="132" y="357" on="1"/>
      </contour>
    </TTGlyph>
    <TTGlyph name="fouroldstyle" xMin="28" yMin="-194" xMax="471" yMax="464">
      <contour>
        <pt x="370" y="31" on="1"/>
        <pt x="443" y="31" on="1"/>
        <pt x="460" y="31" on="0"/>
        <pt x="471" y="27" on="0"/>
        <pt x="471" y="16" on="1"/>
        <pt x="471" y="4" on="0"/>
        <pt x="460" y="0" on="0"/>
        <pt x="443" y="0" on="1"/>
        <pt x="370" y="0" on="1"/>
        <pt x="370" y="-117" on="1"/>
        <pt x="370" y="-132" on="0"/>
        <pt x="372" y="-150" on="0"/>
        <pt x="386" y="-160" on="0"/>
        <pt x="415" y="-163" on="0"/>
        <pt x="442" y="-163" on="1"/>
        <pt x="456" y="-163" on="0"/>
        <pt x="467" y="-167" on="0"/>
        <pt x="467" y="-179" on="1"/>
        <pt x="467" y="-194" on="0"/>
        <pt x="451" y="-194" on="1"/>
        <pt x="441" y="-194" on="0"/>
        <pt x="409" y="-193" on="0"/>
        <pt x="375" y="-192" on="0"/>
        <pt x="343" y="-191" on="0"/>
        <pt x="333" y="-191" on="1"/>
        <pt x="304" y="-191" on="0"/>
        <pt x="244" y="-194" on="0"/>
        <pt x="215" y="-194" on="1"/>
        <pt x="205" y="-194" on="0"/>
        <pt x="199" y="-187" on="0"/>
        <pt x="199" y="-179" on="1"/>
        <pt x="199" y="-167" on="0"/>
        <pt x="210" y="-163" on="0"/>
        <pt x="225" y="-163" on="1"/>
        <pt x="252" y="-163" on="0"/>
        <pt x="280" y="-160" on="0"/>
        <pt x="294" y="-150" on="0"/>
        <pt x="296" y="-132" on="0"/>
        <pt x="296" y="-117" on="1"/>
        <pt x="296" y="0" on="1"/>
        <pt x="56" y="0" on="1"/>
        <pt x="36" y="0" on="0"/>
        <pt x="28" y="9" on="0"/>
        <pt x="28" y="31" on="1"/>
        <pt x="332" y="451" on="1"/>
        <pt x="338" y="459" on="0"/>
        <pt x="344" y="464" on="0"/>
        <pt x="353" y="464" on="1"/>
        <pt x="366" y="464" on="0"/>
        <pt x="370" y="454" on="0"/>
        <pt x="370" y="436" on="1"/>
      </contour>
      <contour>
        <pt x="57" y="31" on="1"/>
        <pt x="302" y="31" on="1"/>
        <pt x="302" y="370" on="1"/>
      </contour>
    </TTGlyph>
    <TTGlyph name="g" xMin="15" yMin="-205" xMax="474" yMax="442">
      <contour>
        <pt x="360" y="-67" on="1"/>
        <pt x="354" y="-90" on="0"/>
        <pt x="322" y="-138" on="0"/>
        <pt x="269" y="-179" on="0"/>
        <pt x="195" y="-205" on="0"/>
        <pt x="148" y="-205" on="1"/>
        <pt x="76" y="-205" on="0"/>
        <pt x="15" y="-175" on="0"/>
        <pt x="15" y="-144" on="1"/>
        <pt x="15" y="-129" on="0"/>
        <pt x="26" y="-107" on="0"/>
        <pt x="42" y="-93" on="0"/>
        <pt x="61" y="-86" on="0"/>
        <pt x="69" y="-86" on="1"/>
        <pt x="89" y="-86" on="0"/>
        <pt x="107" y="-109" on="0"/>
        <pt x="107" y="-121" on="1"/>
        <pt x="107" y="-134" on="0"/>
        <pt x="89" y="-166" on="0"/>
        <pt x="66" y="-173" on="1"/>
        <pt x="87" y="-180" on="0"/>
        <pt x="132" y="-183" on="0"/>
        <pt x="146" y="-183" on="1"/>
        <pt x="186" y="-183" on="0"/>
        <pt x="240" y="-152" on="0"/>
        <pt x="273" y="-113" on="0"/>
        <pt x="289" y="-78" on="0"/>
        <pt x="290" y="-75" on="1"/>
        <pt x="290" y="-73" on="0"/>
        <pt x="307" y="-10" on="0"/>
        <pt x="323" y="57" on="1"/>
        <pt x="322" y="58" on="1"/>
        <pt x="318" y="54" on="0"/>
        <pt x="298" y="35" on="0"/>
        <pt x="267" y="15" on="0"/>
        <pt x="228" y="0" on="0"/>
        <pt x="206" y="0" on="1"/>
        <pt x="179" y="0" on="0"/>
        <pt x="131" y="22" on="0"/>
        <pt x="94" y="62" on="0"/>
        <pt x="73" y="121" on="0"/>
        <pt x="73" y="158" on="1"/>
        <pt x="73" y="212" on="0"/>
        <pt x="115" y="314" on="0"/>
        <pt x="183" y="394" on="0"/>
        <pt x="268" y="442" on="0"/>
        <pt x="311" y="442" on="1"/>
        <pt x="341" y="442" on="0"/>
        <pt x="390" y="407" on="0"/>
        <pt x="404" y="379" on="1"/>
        <pt x="406" y="393" on="0"/>
        <pt x="416" y="409" on="0"/>
        <pt x="429" y="419" on="0"/>
        <pt x="441" y="422" on="0"/>
        <pt x="445" y="422" on="1"/>
        <pt x="458" y="422" on="0"/>
        <pt x="474" y="408" on="0"/>
        <pt x="474" y="395" on="1"/>
        <pt x="474" y="390" on="0"/>
        <pt x="472" y="382" on="0"/>
        <pt x="471" y="377" on="1"/>
      </contour>
      <contour>
        <pt x="389" y="319" on="1"/>
        <pt x="390" y="322" on="0"/>
        <pt x="392" y="330" on="0"/>
        <pt x="392" y="334" on="1"/>
        <pt x="392" y="336" on="0"/>
        <pt x="386" y="363" on="0"/>
        <pt x="368" y="395" on="0"/>
        <pt x="337" y="420" on="0"/>
        <pt x="312" y="420" on="1"/>
        <pt x="280" y="420" on="0"/>
        <pt x="220" y="368" on="0"/>
        <pt x="200" y="331" on="1"/>
        <pt x="190" y="312" on="0"/>
        <pt x="170" y="253" on="0"/>
        <pt x="154" y="190" on="0"/>
        <pt x="144" y="132" on="0"/>
        <pt x="144" y="114" on="1"/>
        <pt x="144" y="99" on="0"/>
        <pt x="150" y="67" on="0"/>
        <pt x="165" y="40" on="0"/>
        <pt x="190" y="22" on="0"/>
        <pt x="209" y="22" on="1"/>
        <pt x="227" y="22" on="0"/>
        <pt x="270" y="42" on="0"/>
        <pt x="308" y="73" on="0"/>
        <pt x="337" y="110" on="0"/>
        <pt x="341" y="128" on="1"/>
      </contour>
    </TTGlyph>
    <TTGlyph name="gamma" xMin="18" yMin="-215" xMax="543" yMax="442">
      <contour>
        <pt x="37" y="249" on="1"/>
        <pt x="29" y="249" on="0"/>
        <pt x="18" y="251" on="0"/>
        <pt x="18" y="259" on="1"/>
        <pt x="18" y="271" on="0"/>
        <pt x="44" y="331" on="0"/>
        <pt x="93" y="394" on="0"/>
        <pt x="166" y="442" on="0"/>
        <pt x="213" y="442" on="1"/>
        <pt x="265" y="442" on="0"/>
        <pt x="328" y="378" on="0"/>
        <pt x="346" y="332" on="1"/>
        <pt x="361" y="296" on="0"/>
        <pt x="377" y="232" on="0"/>
        <pt x="385" y="179" on="0"/>
        <pt x="387" y="140" on="0"/>
        <pt x="387" y="128" on="1"/>
        <pt x="417" y="204" on="0"/>
        <pt x="480" y="352" on="0"/>
        <pt x="519" y="424" on="1"/>
        <pt x="521" y="429" on="0"/>
        <pt x="529" y="431" on="0"/>
        <pt x="531" y="431" on="1"/>
        <pt x="533" y="431" on="0"/>
        <pt x="543" y="429" on="0"/>
        <pt x="543" y="421" on="1"/>
        <pt x="543" y="418" on="0"/>
        <pt x="529" y="392" on="0"/>
        <pt x="524" y="383" on="1"/>
        <pt x="509" y="353" on="0"/>
        <pt x="472" y="272" on="0"/>
        <pt x="434" y="182" on="0"/>
        <pt x="400" y="93" on="0"/>
        <pt x="388" y="56" on="1"/>
        <pt x="385" y="46" on="0"/>
        <pt x="382" y="27" on="0"/>
        <pt x="380" y="17" on="1"/>
        <pt x="379" y="8" on="0"/>
        <pt x="372" y="-33" on="0"/>
        <pt x="362" y="-84" on="0"/>
        <pt x="349" y="-140" on="0"/>
        <pt x="334" y="-185" on="0"/>
        <pt x="319" y="-215" on="0"/>
        <pt x="311" y="-215" on="1"/>
        <pt x="298" y="-215" on="0"/>
        <pt x="298" y="-197" on="1"/>
        <pt x="298" y="-187" on="0"/>
        <pt x="308" y="-138" on="0"/>
        <pt x="323" y="-76" on="0"/>
        <pt x="342" y="-9" on="0"/>
        <pt x="350" y="18" on="1"/>
        <pt x="353" y="26" on="0"/>
        <pt x="357" y="41" on="0"/>
        <pt x="360" y="62" on="0"/>
        <pt x="362" y="93" on="0"/>
        <pt x="362" y="116" on="1"/>
        <pt x="362" y="146" on="0"/>
        <pt x="354" y="232" on="0"/>
        <pt x="321" y="313" on="0"/>
        <pt x="257" y="370" on="0"/>
        <pt x="200" y="370" on="1"/>
        <pt x="196" y="370" on="0"/>
        <pt x="156" y="366" on="0"/>
        <pt x="106" y="344" on="0"/>
        <pt x="56" y="297" on="0"/>
        <pt x="41" y="254" on="1"/>
      </contour>
    </TTGlyph>
    <TTGlyph name="greater" xMin="83" yMin="-40" xMax="694" yMax="540">
      <contour>
        <pt x="121" y="-33" on="1"/>
        <pt x="111" y="-38" on="0"/>
        <pt x="105" y="-40" on="0"/>
        <pt x="103" y="-40" on="1"/>
        <pt x="95" y="-40" on="0"/>
        <pt x="83" y="-28" on="0"/>
        <pt x="83" y="-20" on="1"/>
        <pt x="83" y="-8" on="0"/>
        <pt x="102" y="2" on="1"/>
        <pt x="627" y="250" on="1"/>
        <pt x="102" y="498" on="1"/>
        <pt x="83" y="508" on="0"/>
        <pt x="83" y="520" on="1"/>
        <pt x="83" y="528" on="0"/>
        <pt x="95" y="540" on="0"/>
        <pt x="103" y="540" on="1"/>
        <pt x="105" y="540" on="0"/>
        <pt x="111" y="538" on="0"/>
        <pt x="121" y="533" on="1"/>
        <pt x="675" y="272" on="1"/>
        <pt x="683" y="268" on="0"/>
        <pt x="694" y="259" on="0"/>
        <pt x="694" y="250" on="1"/>
        <pt x="694" y="241" on="0"/>
        <pt x="683" y="232" on="0"/>
        <pt x="675" y="228" on="1"/>
      </contour>
    </TTGlyph>
    <TTGlyph name="h" xMin="55" yMin="-11" xMax="546" yMax="694">
      <contour>
        <pt x="209" y="365" on="1"/>
        <pt x="237" y="400" on="0"/>
        <pt x="309" y="442" on="0"/>
        <pt x="357" y="442" on="1"/>
        <pt x="414" y="442" on="0"/>
        <pt x="472" y="384" on="0"/>
        <pt x="472" y="335" on="1"/>
        <pt x="472" y="313" on="0"/>
        <pt x="457" y="251" on="0"/>
        <pt x="438" y="188" on="0"/>
        <pt x="417" y="131" on="0"/>
        <pt x="411" y="115" on="1"/>
        <pt x="404" y="98" on="0"/>
        <pt x="393" y="63" on="0"/>
        <pt x="393" y="44" on="1"/>
        <pt x="393" y="11" on="0"/>
        <pt x="417" y="11" on="1"/>
        <pt x="438" y="11" on="0"/>
        <pt x="470" y="35" on="0"/>
        <pt x="496" y="71" on="0"/>
        <pt x="513" y="115" on="0"/>
        <pt x="519" y="135" on="1"/>
        <pt x="523" y="146" on="0"/>
        <pt x="526" y="153" on="0"/>
        <pt x="534" y="153" on="1"/>
        <pt x="536" y="153" on="0"/>
        <pt x="546" y="151" on="0"/>
        <pt x="546" y="143" on="1"/>
        <pt x="546" y="140" on="0"/>
        <pt x="532" y="91" on="0"/>
        <pt x="500" y="35" on="0"/>
        <pt x="450" y="-11" on="0"/>
        <pt x="415" y="-11" on="1"/>
        <pt x="380" y="-11" on="0"/>
        <pt x="333" y="36" on="0"/>
        <pt x="333" y="71" on="1"/>
        <pt x="333" y="86" on="0"/>
        <pt x="340" y="109" on="0"/>
        <pt x="346" y="126" on="1"/>
        <pt x="355" y="149" on="0"/>
        <pt x="377" y="209" on="0"/>
        <pt x="395" y="272" on="0"/>
        <pt x="408" y="330" on="0"/>
        <pt x="408" y="350" on="1"/>
        <pt x="408" y="377" on="0"/>
        <pt x="386" y="420" on="0"/>
        <pt x="354" y="420" on="1"/>
        <pt x="322" y="420" on="0"/>
        <pt x="275" y="397" on="0"/>
        <pt x="258" y="385" on="1"/>
        <pt x="245" y="375" on="0"/>
        <pt x="222" y="346" on="0"/>
        <pt x="203" y="318" on="0"/>
        <pt x="191" y="296" on="0"/>
        <pt x="190" y="293" on="1"/>
        <pt x="190" y="291" on="0"/>
        <pt x="187" y="278" on="0"/>
        <pt x="183" y="263" on="0"/>
        <pt x="180" y="250" on="0"/>
        <pt x="179" y="248" on="1"/>
        <pt x="175" y="231" on="0"/>
        <pt x="167" y="198" on="0"/>
        <pt x="162" y="181" on="1"/>
        <pt x="121" y="15" on="1"/>
        <pt x="117" y="4" on="0"/>
        <pt x="96" y="-11" on="0"/>
        <pt x="84" y="-11" on="1"/>
        <pt x="77" y="-11" on="0"/>
        <pt x="55" y="0" on="0"/>
        <pt x="55" y="17" on="1"/>
        <pt x="55" y="22" on="0"/>
        <pt x="56" y="28" on="0"/>
        <pt x="59" y="39" on="1"/>
        <pt x="204" y="615" on="1"/>
        <pt x="207" y="635" on="1"/>
        <pt x="207" y="643" on="0"/>
        <pt x="193" y="652" on="0"/>
        <pt x="157" y="652" on="1"/>
        <pt x="146" y="652" on="0"/>
        <pt x="133" y="655" on="0"/>
        <pt x="133" y="664" on="1"/>
        <pt x="133" y="678" on="0"/>
        <pt x="146" y="683" on="0"/>
        <pt x="152" y="684" on="1"/>
        <pt x="162" y="685" on="0"/>
        <pt x="196" y="688" on="0"/>
        <pt x="232" y="691" on="0"/>
        <pt x="265" y="694" on="0"/>
        <pt x="274" y="694" on="1"/>
        <pt x="284" y="694" on="0"/>
        <pt x="287" y="684" on="0"/>
        <pt x="287" y="683" on="1"/>
      </contour>
    </TTGlyph>
    <TTGlyph name="i" xMin="29" yMin="-11" xMax="293" yMax="661">
      <contour>
        <pt x="284" y="625" on="1"/>
        <pt x="284" y="603" on="0"/>
        <pt x="248" y="572" on="0"/>
        <pt x="231" y="572" on="1"/>
        <pt x="213" y="572" on="0"/>
        <pt x="193" y="594" on="0"/>
        <pt x="193" y="608" on="1"/>
        <pt x="193" y="628" on="0"/>
        <pt x="227" y="661" on="0"/>
        <pt x="247" y="661" on="1"/>
        <pt x="264" y="661" on="0"/>
        <pt x="284" y="640" on="0"/>
      </contour>
      <contour>
        <pt x="169" y="144" on="1"/>
        <pt x="160" y="121" on="0"/>
        <pt x="149" y="91" on="0"/>
        <pt x="143" y="70" on="0"/>
        <pt x="140" y="53" on="0"/>
        <pt x="140" y="44" on="1"/>
        <pt x="140" y="11" on="0"/>
        <pt x="164" y="11" on="1"/>
        <pt x="183" y="11" on="0"/>
        <pt x="215" y="32" on="0"/>
        <pt x="240" y="67" on="0"/>
        <pt x="259" y="111" on="0"/>
        <pt x="266" y="135" on="1"/>
        <pt x="270" y="146" on="0"/>
        <pt x="273" y="153" on="0"/>
        <pt x="281" y="153" on="1"/>
        <pt x="283" y="153" on="0"/>
        <pt x="293" y="151" on="0"/>
        <pt x="293" y="143" on="1"/>
        <pt x="293" y="141" on="0"/>
        <pt x="287" y="116" on="0"/>
        <pt x="273" y="82" on="0"/>
        <pt x="252" y="43" on="0"/>
        <pt x="223" y="11" on="0"/>
        <pt x="185" y="-11" on="0"/>
        <pt x="162" y="-11" on="1"/>
        <pt x="126" y="-11" on="0"/>
        <pt x="80" y="36" on="0"/>
        <pt x="80" y="71" on="1"/>
        <pt x="80" y="87" on="0"/>
        <pt x="95" y="131" on="0"/>
        <pt x="103" y="151" on="1"/>
        <pt x="109" y="167" on="0"/>
        <pt x="130" y="222" on="0"/>
        <pt x="151" y="278" on="0"/>
        <pt x="169" y="326" on="0"/>
        <pt x="172" y="336" on="1"/>
        <pt x="175" y="344" on="0"/>
        <pt x="183" y="372" on="0"/>
        <pt x="183" y="388" on="1"/>
        <pt x="183" y="412" on="0"/>
        <pt x="164" y="420" on="0"/>
        <pt x="158" y="420" on="1"/>
        <pt x="145" y="420" on="0"/>
        <pt x="118" y="408" on="0"/>
        <pt x="92" y="379" on="0"/>
        <pt x="67" y="331" on="0"/>
        <pt x="57" y="296" on="1"/>
        <pt x="53" y="284" on="0"/>
        <pt x="49" y="278" on="0"/>
        <pt x="41" y="278" on="1"/>
        <pt x="39" y="278" on="0"/>
        <pt x="29" y="280" on="0"/>
        <pt x="29" y="288" on="1"/>
        <pt x="29" y="290" on="0"/>
        <pt x="36" y="315" on="0"/>
        <pt x="49" y="349" on="0"/>
        <pt x="70" y="388" on="0"/>
        <pt x="100" y="420" on="0"/>
        <pt x="138" y="442" on="0"/>
        <pt x="161" y="442" on="1"/>
        <pt x="199" y="442" on="0"/>
        <pt x="243" y="394" on="0"/>
        <pt x="243" y="360" on="1"/>
        <pt x="243" y="346" on="0"/>
        <pt x="236" y="322" on="0"/>
        <pt x="230" y="307" on="1"/>
        <pt x="226" y="297" on="0"/>
        <pt x="222" y="284" on="0"/>
        <pt x="218" y="273" on="0"/>
        <pt x="213" y="260" on="0"/>
        <pt x="208" y="249" on="1"/>
      </contour>
    </TTGlyph>
    <TTGlyph name="iota" xMin="56" yMin="-11" xMax="324" yMax="442">
      <contour>
        <pt x="324" y="143" on="1"/>
        <pt x="324" y="131" on="0"/>
        <pt x="299" y="79" on="0"/>
        <pt x="251" y="28" on="0"/>
        <pt x="183" y="-11" on="0"/>
        <pt x="140" y="-11" on="1"/>
        <pt x="98" y="-11" on="0"/>
        <pt x="56" y="40" on="0"/>
        <pt x="56" y="71" on="1"/>
        <pt x="56" y="83" on="0"/>
        <pt x="64" y="112" on="0"/>
        <pt x="74" y="140" on="0"/>
        <pt x="85" y="168" on="0"/>
        <pt x="88" y="178" on="1"/>
        <pt x="90" y="186" on="0"/>
        <pt x="100" y="215" on="0"/>
        <pt x="102" y="223" on="1"/>
        <pt x="103" y="228" on="0"/>
        <pt x="112" y="261" on="0"/>
        <pt x="123" y="297" on="0"/>
        <pt x="131" y="327" on="0"/>
        <pt x="132" y="329" on="1"/>
        <pt x="134" y="336" on="0"/>
        <pt x="140" y="360" on="0"/>
        <pt x="146" y="385" on="0"/>
        <pt x="151" y="409" on="0"/>
        <pt x="154" y="416" on="1"/>
        <pt x="160" y="430" on="0"/>
        <pt x="183" y="442" on="0"/>
        <pt x="191" y="442" on="1"/>
        <pt x="204" y="442" on="0"/>
        <pt x="220" y="428" on="0"/>
        <pt x="220" y="415" on="1"/>
        <pt x="220" y="412" on="0"/>
        <pt x="206" y="352" on="0"/>
        <pt x="182" y="265" on="0"/>
        <pt x="151" y="163" on="0"/>
        <pt x="134" y="118" on="1"/>
        <pt x="126" y="98" on="0"/>
        <pt x="116" y="62" on="0"/>
        <pt x="116" y="44" on="1"/>
        <pt x="116" y="21" on="0"/>
        <pt x="131" y="11" on="0"/>
        <pt x="142" y="11" on="1"/>
        <pt x="158" y="11" on="0"/>
        <pt x="203" y="24" on="0"/>
        <pt x="248" y="55" on="0"/>
        <pt x="287" y="105" on="0"/>
        <pt x="299" y="142" on="1"/>
        <pt x="301" y="147" on="0"/>
        <pt x="305" y="153" on="0"/>
        <pt x="312" y="153" on="1"/>
        <pt x="314" y="153" on="0"/>
        <pt x="324" y="151" on="0"/>
      </contour>
    </TTGlyph>
</ttFont>
